<svg width="226" height="191" viewBox="0 0 226 191" fill="none" xmlns="http://www.w3.org/2000/svg">
<path d="M15.8913 137.641L0.101074 128.527V94.6584L15.8913 103.778V137.641Z" fill="#E0E0E0"/>
<path d="M15.8914 103.778L38.452 90.7539V124.617L15.8914 137.641V103.778Z" fill="#EBEBEB"/>
<path d="M38.452 90.7539L15.8913 103.778L0.101074 94.6584L22.6618 81.634L38.452 90.7539Z" fill="#F5F5F5"/>
<path d="M18.1518 105.078L36.197 94.6584L36.6136 94.8972V107.444L18.5628 117.863L18.1462 117.625L18.1518 105.078Z" fill="#E0E0E0"/>
<path d="M18.5627 105.322L36.6135 94.8972V107.444L18.5627 117.863V105.322Z" fill="#F5F5F5"/>
<path d="M25.6388 103.362L28.7102 101.59C29.1045 101.357 29.4267 101.462 29.4267 101.823C29.398 102.044 29.3184 102.256 29.1941 102.441C29.0697 102.626 28.9041 102.779 28.7102 102.89L25.6388 104.661C25.2389 104.895 24.9167 104.789 24.9167 104.428C24.9455 104.206 25.0258 103.994 25.1512 103.809C25.2766 103.624 25.4436 103.471 25.6388 103.362Z" fill="#E0E0E0"/>
<path d="M17.7354 120.951L35.7806 110.532V123.079L36.1971 123.317L18.1464 133.737L17.7354 133.498V120.951Z" fill="#E0E0E0"/>
<path d="M18.1462 121.19L36.197 110.771V123.317L18.1462 133.737V121.19Z" fill="#F5F5F5"/>
<path d="M25.2221 119.235L28.3213 117.469C28.7212 117.236 29.0433 117.341 29.0433 117.702C29.0145 117.924 28.9342 118.136 28.8088 118.321C28.6835 118.506 28.5165 118.66 28.3213 118.769L25.2499 120.54C24.85 120.774 24.5278 120.668 24.5278 120.307C24.5528 120.087 24.6285 119.876 24.7489 119.69C24.8694 119.504 25.0314 119.348 25.2221 119.235Z" fill="#E0E0E0"/>
<path d="M15.8913 101.823L0.101074 92.7033V58.8401L15.8913 67.9543V101.823Z" fill="#E0E0E0"/>
<path d="M15.8914 67.9543L38.452 54.93V88.7988L15.8914 101.823V67.9543Z" fill="#EBEBEB"/>
<path d="M38.452 54.93L15.8913 67.9543L0.101074 58.8401L22.6618 45.8158L38.452 54.93Z" fill="#F5F5F5"/>
<path d="M18.1462 69.2595L36.197 58.8401L36.6136 59.0789V71.6256L18.5628 82.0451L18.1462 81.8007V69.2595Z" fill="#E0E0E0"/>
<path d="M25.6388 67.5378L28.7046 65.766C29.1045 65.5383 29.4267 65.6438 29.4267 66.0048C29.397 66.2263 29.3164 66.4379 29.1911 66.623C29.0658 66.808 28.8993 66.9615 28.7046 67.0712L25.6388 68.843C25.2389 69.0707 24.9167 68.9707 24.9167 68.6097C24.946 68.3874 25.0264 68.1748 25.1517 67.9888C25.277 67.8028 25.4437 67.6484 25.6388 67.5378Z" fill="#E0E0E0"/>
<path d="M17.7354 85.1331L35.7806 74.7137V87.2548L36.1971 87.4936L18.1464 97.9131L17.7354 97.6743V85.1331Z" fill="#E0E0E0"/>
<path d="M18.1462 85.372L36.197 74.9525V87.4936L18.1462 97.9131V85.372Z" fill="#F5F5F5"/>
<path d="M25.2223 83.4114L28.3215 81.6396C28.7158 81.4119 29.0435 81.5174 29.0435 81.8784C29.0122 82.0994 28.9309 82.3103 28.8058 82.4951C28.6807 82.6799 28.515 82.8337 28.3215 82.9448L25.2223 84.6999C24.8224 84.9276 24.5002 84.8221 24.5002 84.4666C24.5319 84.2472 24.6134 84.038 24.7386 83.8551C24.8638 83.6721 25.0292 83.5203 25.2223 83.4114Z" fill="#E0E0E0"/>
<path d="M18.1462 69.2595L36.197 58.8401V71.3812L18.1462 81.8007V69.2595Z" fill="#E0E0E0"/>
<path d="M45.2225 65.0384L35.3418 59.3344V70.387L45.2225 76.0855V65.0384Z" fill="#E0E0E0"/>
<path d="M24.9167 83.5891V67.9543L28.7879 65.7105L29.4267 66.6547L40.707 60.1397V74.4693L24.9167 83.5891Z" fill="#EBEBEB"/>
<path d="M24.9167 83.5891L26.0442 69.9094L41.8345 60.7951L40.707 74.4693L24.9167 83.5891Z" fill="#F5F5F5"/>
<path d="M27.1716 75.4579L18.5627 70.487V81.5396L27.1716 86.505V75.4579Z" fill="#EBEBEB"/>
<path d="M27.1716 74.4693L45.2224 64.0498V76.5909L27.1716 87.0104V74.4693Z" fill="#F5F5F5"/>
<path d="M34.2477 72.5087L37.3135 70.7369C37.7134 70.5092 38.0355 70.6147 38.0355 70.9758C38.0055 71.1971 37.9247 71.4085 37.7995 71.5935C37.6742 71.7785 37.5079 71.932 37.3135 72.0421L34.2477 73.8139C33.8478 74.0416 33.5256 73.9361 33.5256 73.5806C33.5549 73.3583 33.6353 73.1457 33.7606 72.9597C33.8859 72.7737 34.0526 72.6193 34.2477 72.5087Z" fill="#E0E0E0"/>
<path d="M27.1716 74.4693L26.5718 74.1249V86.666L27.1716 87.0104V74.4693Z" fill="#E0E0E0"/>
<path d="M26.5718 74.1249L44.617 63.6999L45.2224 64.0498L27.1716 74.4693L26.5718 74.1249Z" fill="#EBEBEB"/>
<path d="M202.442 117.125L186.646 108.005V74.1416L202.442 83.2558V117.125Z" fill="#E0E0E0"/>
<path d="M202.442 83.2558L225.003 70.2315V104.1L202.442 117.125V83.2558Z" fill="#EBEBEB"/>
<path d="M225.003 70.2315L202.442 83.2558L186.646 74.1416L209.212 61.1117L225.003 70.2315Z" fill="#F5F5F5"/>
<path d="M204.697 84.5611L222.748 74.1416L223.164 74.3804L223.159 86.9215L205.114 97.341L204.697 97.1022V84.5611Z" fill="#E0E0E0"/>
<path d="M205.114 84.7999L223.164 74.3804L223.159 86.9215L205.114 97.341V84.7999Z" fill="#F5F5F5"/>
<path d="M212.189 82.8393L215.255 81.0675C215.655 80.8398 215.977 80.9453 215.977 81.3008C215.948 81.5232 215.868 81.7357 215.742 81.9217C215.617 82.1077 215.45 82.2621 215.255 82.3727L212.189 84.1445C211.789 84.3722 211.467 84.2667 211.467 83.9112C211.497 83.6889 211.577 83.4763 211.702 83.2903C211.828 83.1043 211.994 82.9499 212.189 82.8393Z" fill="#E0E0E0"/>
<path d="M204.28 100.435L222.331 90.0096V102.556L222.748 102.795L204.697 113.215L204.28 112.976V100.435Z" fill="#E0E0E0"/>
<path d="M204.697 100.673L222.748 90.254V102.795L204.697 113.215V100.673Z" fill="#F5F5F5"/>
<path d="M211.773 98.7129L214.844 96.9411C215.239 96.7134 215.561 96.8189 215.561 97.1744C215.531 97.396 215.451 97.6078 215.327 97.7937C215.203 97.9795 215.038 98.1344 214.844 98.2463L211.773 100.018C211.373 100.246 211.051 100.14 211.051 99.7792C211.081 99.5579 211.162 99.3465 211.287 99.1615C211.412 98.9765 211.578 98.823 211.773 98.7129Z" fill="#E0E0E0"/>
<path d="M51.9929 69.8316V155.798L139.981 105L139.975 26.8485L74.5536 64.6219L72.2931 58.1069L51.9929 69.8316Z" fill="#3BA6B3"/>
<path opacity="0.7" d="M51.9929 69.8316V155.798L139.981 105L139.975 26.8485L74.5536 64.6219L72.2931 58.1069L51.9929 69.8316Z" fill="black"/>
<path d="M51.9929 155.798L56.5028 77.6462L144.491 26.8485L139.981 105L51.9929 155.798Z" fill="#E0E0E0"/>
<path d="M51.9929 155.798L58.7578 78.9514L146.746 28.1482L139.981 105L51.9929 155.798Z" fill="#3BA6B3"/>
<path opacity="0.7" d="M51.9929 155.798L58.7578 78.9514L146.746 28.1482L139.981 105L51.9929 155.798Z" fill="black"/>
<path d="M65.5283 77.6462V163.618L153.516 112.815V34.6631L88.089 72.4365L85.8341 65.9215L65.5283 77.6462Z" fill="#3BA6B3"/>
<path opacity="0.5" d="M65.5283 77.6462V163.618L153.516 112.815V34.6631L88.089 72.4365L85.8341 65.9215L65.5283 77.6462Z" fill="black"/>
<path d="M65.5283 163.618L70.0382 85.4608L158.026 34.6631L153.516 112.815L65.5283 163.618Z" fill="#E0E0E0"/>
<path d="M65.5283 163.618L72.2932 86.766L160.281 35.9628L153.516 112.815L65.5283 163.618Z" fill="#3BA6B3"/>
<path opacity="0.5" d="M65.5283 163.618L72.2932 86.766L160.281 35.9628L153.516 112.815L65.5283 163.618Z" fill="black"/>
<path d="M139.958 190.972C124.163 181.852 109.511 171.938 102.824 160.308L123.152 148.572L139.958 190.972Z" fill="#E0E0E0"/>
<path d="M81.3184 86.766V172.732L169.306 121.935V43.783L103.879 81.5563L101.624 75.0413L81.3184 86.766Z" fill="#3BA6B3"/>
<path opacity="0.2" d="M81.3184 86.766V172.732L169.306 121.935V43.783L103.879 81.5563L101.624 75.0413L81.3184 86.766Z" fill="black"/>
<path d="M106.667 112.182C106.445 112.182 106.412 111.926 106.412 111.776V38.4621C106.429 38.1777 106.513 37.9013 106.656 37.6546C106.798 37.4079 106.996 37.1977 107.234 37.0403L170.739 0.383324C170.826 0.32908 170.925 0.298447 171.028 0.294456C171.25 0.294456 171.283 0.549946 171.283 0.699907V74.0138C171.266 74.2991 171.183 74.5764 171.04 74.8241C170.897 75.0718 170.699 75.283 170.461 75.4412L106.956 112.098C106.868 112.15 106.769 112.178 106.667 112.182Z" fill="white"/>
<path d="M170.995 0.549942C170.999 0.590548 170.999 0.631527 170.995 0.672133V73.9861C170.976 74.2225 170.906 74.4519 170.787 74.6576C170.669 74.8632 170.507 75.0398 170.312 75.1747L106.806 111.832L106.695 111.882C106.688 111.841 106.688 111.8 106.695 111.759V38.4455C106.714 38.21 106.785 37.9817 106.903 37.7771C107.022 37.5725 107.184 37.3967 107.378 37.2625L170.884 0.605482C170.919 0.580982 170.958 0.563967 171 0.555497L170.995 0.549942ZM171.034 8.8729e-05C170.882 0.00459153 170.735 0.0486361 170.606 0.127835L107.101 36.7848C106.821 36.9682 106.589 37.2144 106.422 37.5038C106.255 37.7931 106.159 38.1175 106.14 38.451V111.765C106.14 112.198 106.356 112.448 106.695 112.448C106.846 112.444 106.994 112.4 107.123 112.32L170.628 75.6634C170.909 75.4813 171.142 75.2354 171.309 74.9458C171.476 74.6561 171.572 74.3311 171.589 73.9972V0.683243C171.589 0.250024 171.372 -0.00546536 171.034 8.8729e-05Z" fill="#3BA6B3"/>
<path opacity="0.7" d="M170.995 0.549942C170.999 0.590548 170.999 0.631527 170.995 0.672133V73.9861C170.976 74.2225 170.906 74.4519 170.787 74.6576C170.669 74.8632 170.507 75.0398 170.312 75.1747L106.806 111.832L106.695 111.882C106.688 111.841 106.688 111.8 106.695 111.759V38.4455C106.714 38.21 106.785 37.9817 106.903 37.7771C107.022 37.5725 107.184 37.3967 107.378 37.2625L170.884 0.605482C170.919 0.580982 170.958 0.563967 171 0.555497L170.995 0.549942ZM171.034 8.8729e-05C170.882 0.00459153 170.735 0.0486361 170.606 0.127835L107.101 36.7848C106.821 36.9682 106.589 37.2144 106.422 37.5038C106.255 37.7931 106.159 38.1175 106.14 38.451V111.765C106.14 112.198 106.356 112.448 106.695 112.448C106.846 112.444 106.994 112.4 107.123 112.32L170.628 75.6634C170.909 75.4813 171.142 75.2354 171.309 74.9458C171.476 74.6561 171.572 74.3311 171.589 73.9972V0.683243C171.589 0.250024 171.372 -0.00546536 171.034 8.8729e-05Z" fill="white"/>
<path d="M112.905 41.2447L135.465 28.2204V54.2691L112.905 67.2934V41.2447Z" fill="#3BA6B3"/>
<path opacity="0.8" d="M112.905 41.2447L135.465 28.2204V54.2691L112.905 67.2934V41.2447Z" fill="white"/>
<path d="M132.083 34.7131V42.5444L131.372 42.9387V40.5449C131.372 39.223 130.3 38.7732 128.967 39.5396L119.408 45.0659C118.081 45.8324 117.003 47.5264 117.003 48.8483V51.2421L116.298 51.6642V43.8496L132.083 34.7131Z" fill="white"/>
<path d="M127.739 54.6523C126.584 55.3188 125.645 54.619 125.645 53.0805V40.5449L122.741 42.1223V54.7578C122.741 56.2908 121.802 58.0903 120.647 58.7401L118.547 59.9509V60.784L129.828 54.2691V53.4415L127.739 54.6523Z" fill="white"/>
<path d="M139.958 26.9374C139.958 27.6594 140.608 27.8649 141.403 27.4095L163.352 14.7184C163.742 14.4977 164.075 14.1897 164.325 13.8188C164.576 13.4478 164.737 13.0238 164.796 12.5801C164.796 11.8636 164.147 11.6526 163.352 12.1136L141.419 24.7769C141.023 24.9972 140.685 25.3075 140.431 25.6829C140.177 26.0582 140.015 26.4879 139.958 26.9374Z" fill="#455A64"/>
<path d="M139.958 34.7131C139.958 35.4352 140.608 35.6462 141.403 35.1852L163.336 22.5219C163.725 22.3012 164.058 21.9932 164.309 21.6222C164.559 21.2513 164.72 20.8273 164.78 20.3836C164.78 19.6671 164.13 19.4561 163.336 19.917L141.403 32.5804C141.014 32.8006 140.681 33.1076 140.431 33.4776C140.18 33.8475 140.019 34.2704 139.958 34.7131Z" fill="#455A64"/>
<path d="M139.958 42.5444C139.958 43.2664 140.608 43.4775 141.403 43.0165L163.336 30.3532C163.724 30.133 164.057 29.8259 164.308 29.456C164.558 29.086 164.72 28.6631 164.78 28.2204C164.78 27.4984 164.13 27.2873 163.336 27.7483L141.403 40.4116C141.014 40.6318 140.681 40.9389 140.431 41.3088C140.18 41.6788 140.019 42.1017 139.958 42.5444Z" fill="#455A64"/>
<path d="M139.958 50.359C139.958 51.081 140.608 51.2921 141.403 50.8311L163.336 38.1678C163.724 37.9476 164.057 37.6405 164.308 37.2706C164.558 36.9006 164.72 36.4777 164.78 36.035C164.78 35.313 164.13 35.1019 163.336 35.5629L141.403 48.2262C141.014 48.4464 140.681 48.7535 140.431 49.1234C140.18 49.4934 140.019 49.9163 139.958 50.359Z" fill="#455A64"/>
<path d="M112.905 73.8083C112.905 74.5304 113.549 74.7414 114.349 74.2804L163.352 45.9546C163.742 45.7351 164.075 45.4282 164.325 45.0581C164.576 44.688 164.737 44.2648 164.796 43.8218C164.796 43.0998 164.147 42.8943 163.352 43.3497L114.349 71.6756C113.959 71.8948 113.626 72.2015 113.375 72.5717C113.124 72.9418 112.963 73.3652 112.905 73.8083Z" fill="#455A64"/>
<path d="M112.905 81.6229C112.905 82.345 113.549 82.556 114.349 82.095L163.352 53.8025C163.742 53.5818 164.075 53.2738 164.325 52.9029C164.576 52.5319 164.737 52.1079 164.796 51.6642C164.796 50.9477 164.147 50.7367 163.352 51.1976L114.349 79.4902C113.959 79.7094 113.626 80.0161 113.375 80.3863C113.124 80.7564 112.963 81.1798 112.905 81.6229Z" fill="#455A64"/>
<path d="M112.905 89.4431C112.905 90.1596 113.549 90.3706 114.349 89.9096L163.352 61.6171C163.742 61.3964 164.075 61.0885 164.325 60.7175C164.576 60.3465 164.737 59.9225 164.796 59.4788C164.796 58.7623 164.147 58.5513 163.352 59.0123L114.349 87.3048C113.958 87.5245 113.625 87.8322 113.374 88.2033C113.123 88.5745 112.963 88.999 112.905 89.4431Z" fill="#455A64"/>
<path d="M81.3184 172.732L97.1086 103.7L185.096 52.8972L169.306 121.935L81.3184 172.732Z" fill="#3BA6B3"/>
<path d="M102.846 109.105V160.308L123.152 148.583V97.3854L102.846 109.105Z" fill="#3BA6B3"/>
<path opacity="0.2" d="M102.846 109.105V160.308L123.152 148.583V97.3854L102.846 109.105Z" fill="black"/>
<path d="M139.997 190.639C138.27 189.35 121.619 176.626 113.154 158.425C104.146 139.074 104.157 116.503 104.157 108.01V107.744L164.519 72.8975C164.519 81.4674 164.519 104.073 173.566 123.49C181.836 141.263 197.849 153.826 200.387 155.748L139.997 190.639Z" fill="white"/>
<path d="M164.241 73.3973C164.241 82.3283 164.413 104.5 173.316 123.628C181.309 140.791 196.505 153.132 199.887 155.737L140.014 190.305C137.676 188.545 121.652 176.031 113.41 158.33C104.412 139.036 104.412 116.508 104.412 108.027V107.922L164.219 73.3918L164.241 73.3973ZM164.774 72.4309L103.857 107.605C103.857 115.597 103.69 138.819 112.882 158.564C121.93 177.942 139.958 190.972 139.958 190.972L200.892 155.792C200.892 155.792 182.842 142.762 173.822 123.384C164.624 103.639 164.796 80.4177 164.796 72.4254L164.774 72.4309Z" fill="#3BA6B3"/>
<path opacity="0.7" d="M164.241 73.3973C164.241 82.3283 164.413 104.5 173.316 123.628C181.309 140.791 196.505 153.132 199.887 155.737L140.014 190.305C137.676 188.545 121.652 176.031 113.41 158.33C104.412 139.036 104.412 116.508 104.412 108.027V107.922L164.219 73.3918L164.241 73.3973ZM164.774 72.4309L103.857 107.605C103.857 115.597 103.69 138.819 112.882 158.564C121.93 177.942 139.958 190.972 139.958 190.972L200.892 155.792C200.892 155.792 182.842 142.762 173.822 123.384C164.624 103.639 164.796 80.4177 164.796 72.4254L164.774 72.4309Z" fill="white"/>
<path d="M157.904 84.2278L138.642 95.336C138.257 95.5482 137.928 95.8504 137.684 96.2169C137.441 96.5834 137.289 97.0033 137.242 97.441C137.27 98.1464 137.942 98.3463 138.736 97.8853L158.004 86.7771C158.385 86.5669 158.71 86.2687 158.952 85.9074C159.195 85.5461 159.347 85.1321 159.398 84.6999C159.364 83.9668 158.703 83.7668 157.904 84.2278Z" fill="#455A64"/>
<path d="M158.315 91.8091L139.053 102.917C138.672 103.122 138.349 103.42 138.114 103.783C137.879 104.146 137.74 104.563 137.709 104.995C137.77 105.678 138.47 105.861 139.264 105.4L158.531 94.2918C158.91 94.0878 159.231 93.7905 159.463 93.428C159.696 93.0655 159.832 92.6498 159.859 92.2201C159.803 91.5314 159.114 91.3648 158.315 91.8091Z" fill="#455A64"/>
<path d="M159.087 99.1794L139.82 110.288C139.025 110.749 138.448 111.665 138.542 112.326C138.637 112.987 139.364 113.159 140.164 112.698L159.431 101.59C160.225 101.129 160.792 100.218 160.692 99.5571C160.592 98.8962 159.881 98.7184 159.087 99.1794Z" fill="#455A64"/>
<path d="M160.242 106.328L140.975 117.436C140.181 117.897 139.631 118.796 139.764 119.441C139.897 120.085 140.653 120.229 141.43 119.768L160.692 108.66C161.492 108.199 162.025 107.305 161.892 106.661C161.758 106.016 161.064 105.867 160.242 106.328Z" fill="#455A64"/>
<path d="M161.808 113.237L142.541 124.345C141.747 124.806 141.23 125.684 141.43 126.3C141.63 126.917 142.391 127.055 143.185 126.594L162.453 115.486C163.252 115.025 163.752 114.153 163.563 113.531C163.375 112.909 162.603 112.776 161.808 113.237Z" fill="#455A64"/>
<path d="M163.841 119.896L116.887 147.006C116.093 147.467 115.609 148.322 115.826 148.916C116.043 149.511 116.87 149.622 117.664 149.161L164.619 122.051C165.418 121.59 165.879 120.74 165.663 120.141C165.446 119.541 164.608 119.435 163.841 119.896Z" fill="#455A64"/>
<path d="M166.312 126.256L119.364 153.365C118.564 153.826 118.125 154.659 118.392 155.226C118.658 155.792 119.503 155.881 120.314 155.42L167.268 128.311C168.068 127.85 168.495 127.016 168.229 126.45C167.962 125.883 167.112 125.8 166.312 126.256Z" fill="#455A64"/>
<path d="M169.395 132.315L122.441 159.425C121.641 159.886 121.247 160.696 121.563 161.235C121.88 161.774 122.785 161.83 123.585 161.369L170.506 134.259C171.3 133.804 171.683 132.998 171.367 132.459C171.05 131.921 170.173 131.854 169.395 132.315Z" fill="#455A64"/>
<path d="M172.989 138.047L126.04 165.151C125.24 165.612 124.885 166.406 125.246 166.911C125.607 167.417 126.556 167.467 127.356 167L174.305 139.891C175.105 139.43 175.449 138.647 175.088 138.136C174.727 137.625 173.788 137.586 172.989 138.047Z" fill="#455A64"/>
<path d="M177.087 143.495L130.133 170.599C129.339 171.06 129.022 171.832 129.422 172.316C129.822 172.799 130.805 172.821 131.605 172.36L178.559 145.239C179.353 144.778 179.67 144.018 179.259 143.534C178.848 143.051 177.887 143.018 177.087 143.495Z" fill="#455A64"/>
<path d="M181.614 148.683L134.676 175.787C133.877 176.248 133.566 177.003 134.032 177.453C134.499 177.903 135.487 177.914 136.282 177.453L183.236 150.344C184.036 149.883 184.313 149.138 183.869 148.677C183.425 148.216 182.425 148.228 181.614 148.683Z" fill="#455A64"/>
<path d="M186.613 153.643L139.659 180.747C138.864 181.208 138.603 181.946 139.103 182.385C139.603 182.824 140.625 182.807 141.425 182.346L188.34 155.237C189.134 154.776 189.384 154.054 188.896 153.609C188.407 153.165 187.39 153.182 186.613 153.643Z" fill="#455A64"/>
<path d="M131.661 99.3849L109.511 112.159C109.755 120.185 110.672 131.76 114.026 143.418L136.182 130.643C132.821 118.985 131.905 107.405 131.661 99.3849Z" fill="#3BA6B3"/>
<path opacity="0.8" d="M131.661 99.3849L109.511 112.159C109.755 120.185 110.672 131.76 114.026 143.418L136.182 130.643C132.821 118.985 131.905 107.405 131.661 99.3849Z" fill="white"/>
<path d="M118.542 110.393C118.572 109.875 118.491 109.357 118.305 108.872C118.12 108.388 117.833 107.948 117.464 107.583L109.511 112.17C109.578 114.292 109.689 116.664 109.883 119.219C110.918 119.338 111.964 119.144 112.888 118.663C116.015 117.23 118.542 113.515 118.542 110.393Z" fill="#3BA6B3"/>
<path opacity="0.6" d="M118.542 110.393C118.572 109.875 118.491 109.357 118.305 108.872C118.12 108.388 117.833 107.948 117.464 107.583L109.511 112.17C109.578 114.292 109.689 116.664 109.883 119.219C110.918 119.338 111.964 119.144 112.888 118.663C116.015 117.23 118.542 113.515 118.542 110.393Z" fill="white"/>
<path d="M134.299 122.979C132.821 121.118 129.817 115.37 128.534 112.865C128.483 112.766 128.404 112.684 128.307 112.63C128.21 112.577 128.098 112.553 127.988 112.564C127.877 112.574 127.772 112.617 127.686 112.687C127.6 112.758 127.538 112.853 127.506 112.959C126.118 117.704 125.312 122.599 125.107 127.539C123.257 126.07 121.667 124.302 120.402 122.307C120.348 122.229 120.274 122.169 120.187 122.133C120.1 122.097 120.004 122.086 119.911 122.103C119.818 122.119 119.732 122.161 119.663 122.225C119.593 122.289 119.544 122.371 119.519 122.462C117.098 131.787 118.314 140.963 118.314 140.963L136.182 130.643C135.437 128.066 134.821 125.5 134.299 122.979Z" fill="#3BA6B3"/>
<path opacity="0.6" d="M134.299 122.979C132.821 121.118 129.817 115.37 128.534 112.865C128.483 112.766 128.404 112.684 128.307 112.63C128.21 112.577 128.098 112.553 127.988 112.564C127.877 112.574 127.772 112.617 127.686 112.687C127.6 112.758 127.538 112.853 127.506 112.959C126.118 117.704 125.312 122.599 125.107 127.539C123.257 126.07 121.667 124.302 120.402 122.307C120.348 122.229 120.274 122.169 120.187 122.133C120.1 122.097 120.004 122.086 119.911 122.103C119.818 122.119 119.732 122.161 119.663 122.225C119.593 122.289 119.544 122.371 119.519 122.462C117.098 131.787 118.314 140.963 118.314 140.963L136.182 130.643C135.437 128.066 134.821 125.5 134.299 122.979Z" fill="white"/>
</svg>
