<svg width="18" height="18" viewBox="0 0 18 18" fill="none" xmlns="http://www.w3.org/2000/svg">
<path d="M13.1667 2.49998H16.5C16.721 2.49998 16.933 2.58778 17.0893 2.74406C17.2455 2.90034 17.3333 3.1123 17.3333 3.33331V16.6666C17.3333 16.8877 17.2455 17.0996 17.0893 17.2559C16.933 17.4122 16.721 17.5 16.5 17.5H1.50001C1.27899 17.5 1.06703 17.4122 0.910749 17.2559C0.754469 17.0996 0.666672 16.8877 0.666672 16.6666V3.33331C0.666672 3.1123 0.754469 2.90034 0.910749 2.74406C1.06703 2.58778 1.27899 2.49998 1.50001 2.49998H4.83334V0.833313H6.50001V2.49998H11.5V0.833313H13.1667V2.49998ZM15.6667 9.16665H2.33334V15.8333H15.6667V9.16665ZM11.5 4.16665H6.50001V5.83331H4.83334V4.16665H2.33334V7.49998H15.6667V4.16665H13.1667V5.83331H11.5V4.16665ZM4.00001 10.8333H5.66667V12.5H4.00001V10.8333ZM8.16667 10.8333H9.83334V12.5H8.16667V10.8333ZM12.3333 10.8333H14V12.5H12.3333V10.8333Z" fill="#747474"/>
</svg>
