<svg width="80" height="80" viewBox="0 0 80 80" fill="none" xmlns="http://www.w3.org/2000/svg">
<g filter="url(#filter0_i_717_17)">
<mask id="mask0_717_17" style="mask-type:alpha" maskUnits="userSpaceOnUse" x="0" y="0" width="80" height="80">
<path d="M80 40C80 17.9086 62.0914 0 40 0C17.9086 0 0 17.9086 0 40C0 62.0914 17.9086 80 40 80C62.0914 80 80 62.0914 80 40Z" fill="white"/>
</mask>
<g mask="url(#mask0_717_17)">
<path d="M78 0H2C0.89543 0 0 0.89543 0 2V78C0 79.1046 0.89543 80 2 80H78C79.1046 80 80 79.1046 80 78V2C80 0.89543 79.1046 0 78 0Z" fill="#F2F2F2"/>
<g filter="url(#filter1_f_717_17)">
<path d="M-3.091 30.9464L-20.6947 52.0524L-24.6975 80.5337L66.7042 93.3794L73.7191 43.4663L57.1571 31.65L18.8478 51.2835L-3.091 30.9464Z" fill="#3BA6B3"/>
</g>
<g style="mix-blend-mode:overlay" filter="url(#filter2_f_717_17)">
<path d="M49.5325 58.4363L89.8617 49.3622L101.477 -2.19765L32.6107 -48.6574L-5.99943 18.151L21.2343 29.6288L21.3836 -1.56399L66.238 -14.8995L49.5336 58.437L49.5325 58.4363Z" fill="#3BA6B3"/>
</g>
<path d="M28.64 56V48.8H35.936V34.496L35.984 31.856H35.888C35.6 32.496 35.152 33.104 34.544 33.68L32.48 35.552L27.632 30.368L36.896 21.68H44.144V48.8H51.488V56H28.64Z" fill="white"/>
<path d="M28.64 56H27.64V57H28.64V56ZM28.64 48.8V47.8H27.64V48.8H28.64ZM35.936 48.8V49.8H36.936V48.8H35.936ZM35.936 34.496L34.9362 34.4778L34.936 34.4869V34.496H35.936ZM35.984 31.856L36.9838 31.8742L37.0023 30.856H35.984V31.856ZM35.888 31.856V30.856H35.2414L34.9761 31.4456L35.888 31.856ZM34.544 33.68L35.2158 34.4207L35.2239 34.4134L35.2317 34.406L34.544 33.68ZM32.48 35.552L31.7496 36.235L32.4223 36.9544L33.1518 36.2927L32.48 35.552ZM27.632 30.368L26.9479 29.6386L26.2195 30.3217L26.9016 31.051L27.632 30.368ZM36.896 21.68V20.68H36.5005L36.2119 20.9506L36.896 21.68ZM44.144 21.68H45.144V20.68H44.144V21.68ZM44.144 48.8H43.144V49.8H44.144V48.8ZM51.488 48.8H52.488V47.8H51.488V48.8ZM51.488 56V57H52.488V56H51.488ZM29.64 56V48.8H27.64V56H29.64ZM28.64 49.8H35.936V47.8H28.64V49.8ZM36.936 48.8V34.496H34.936V48.8H36.936ZM36.9358 34.5142L36.9838 31.8742L34.9842 31.8378L34.9362 34.4778L36.9358 34.5142ZM35.984 30.856H35.888V32.856H35.984V30.856ZM34.9761 31.4456C34.7508 31.9462 34.3876 32.4507 33.8563 32.954L35.2317 34.406C35.9164 33.7573 36.4492 33.0458 36.7999 32.2664L34.9761 31.4456ZM33.8722 32.9393L31.8082 34.8113L33.1518 36.2927L35.2158 34.4207L33.8722 32.9393ZM33.2104 34.869L28.3624 29.685L26.9016 31.051L31.7496 36.235L33.2104 34.869ZM28.3161 31.0974L37.5801 22.4094L36.2119 20.9506L26.9479 29.6386L28.3161 31.0974ZM36.896 22.68H44.144V20.68H36.896V22.68ZM43.144 21.68V48.8H45.144V21.68H43.144ZM44.144 49.8H51.488V47.8H44.144V49.8ZM50.488 48.8V56H52.488V48.8H50.488ZM51.488 55H28.64V57H51.488V55Z" fill="#C4C4C4"/>
</g>
</g>
<defs>
<filter id="filter0_i_717_17" x="0" y="0" width="80" height="84" filterUnits="userSpaceOnUse" color-interpolation-filters="sRGB">
<feFlood flood-opacity="0" result="BackgroundImageFix"/>
<feBlend mode="normal" in="SourceGraphic" in2="BackgroundImageFix" result="shape"/>
<feColorMatrix in="SourceAlpha" type="matrix" values="0 0 0 0 0 0 0 0 0 0 0 0 0 0 0 0 0 0 127 0" result="hardAlpha"/>
<feOffset dy="4"/>
<feGaussianBlur stdDeviation="2"/>
<feComposite in2="hardAlpha" operator="arithmetic" k2="-1" k3="1"/>
<feColorMatrix type="matrix" values="0 0 0 0 0 0 0 0 0 0 0 0 0 0 0 0 0 0 0.25 0"/>
<feBlend mode="normal" in2="shape" result="effect1_innerShadow_717_17"/>
</filter>
<filter id="filter1_f_717_17" x="-42.8975" y="12.7464" width="134.817" height="98.833" filterUnits="userSpaceOnUse" color-interpolation-filters="sRGB">
<feFlood flood-opacity="0" result="BackgroundImageFix"/>
<feBlend mode="normal" in="SourceGraphic" in2="BackgroundImageFix" result="shape"/>
<feGaussianBlur stdDeviation="9.1" result="effect1_foregroundBlur_717_17"/>
</filter>
<filter id="filter2_f_717_17" x="-24.1995" y="-66.8573" width="143.876" height="143.494" filterUnits="userSpaceOnUse" color-interpolation-filters="sRGB">
<feFlood flood-opacity="0" result="BackgroundImageFix"/>
<feBlend mode="normal" in="SourceGraphic" in2="BackgroundImageFix" result="shape"/>
<feGaussianBlur stdDeviation="9.1" result="effect1_foregroundBlur_717_17"/>
</filter>
</defs>
</svg>
