<svg width="54" height="44" viewBox="0 0 54 44" fill="none" xmlns="http://www.w3.org/2000/svg">
<path d="M13.9987 23.28C14.4886 26.3292 14.3426 26.9848 13.8632 28.2233C13.8319 28.3065 14.1654 28.5875 14.2905 28.2753C14.6762 27.2762 14.6762 27.2658 14.7387 26.3917C14.8013 25.2885 13.9778 23.1968 13.9987 23.28ZM34.0324 22.2602C34.0533 22.1665 32.6565 25.1532 32.7399 26.3604C32.8129 27.3179 32.7712 27.6093 33.2403 28.6916C33.3862 29.035 33.7927 28.7228 33.7614 28.6291C33.1048 26.4957 33.0005 26.3708 34.0324 22.2602ZM36.2318 22.5515C36.2526 22.4579 35.2624 24.8723 35.3458 26.0795C35.4187 27.0369 35.3875 26.8912 35.8565 27.9735C36.0025 28.3169 36.4298 28.0255 36.3881 27.9423C35.8148 26.5894 35.6376 25.8817 36.2318 22.5515ZM38.6813 23.0407C38.6917 22.9678 37.8474 24.7994 37.9204 25.7672C37.9829 26.5374 37.9829 26.5478 38.379 27.4115C38.5041 27.6821 38.848 27.4427 38.8168 27.3699C38.3269 26.298 38.1705 25.7152 38.6813 23.0407ZM22.4208 21.2299C22.2644 21.0217 22.0143 20.8032 22.1393 21.053C22.4625 21.7398 22.8481 22.0728 23.4318 22.1977C24.1198 22.3434 24.6722 21.9063 25.0266 21.1466C25.1413 20.8865 24.4638 21.771 23.6195 21.7502C23.1087 21.7398 22.7335 21.6357 22.4208 21.2299ZM22.4833 24.3415C22.327 24.1334 22.0768 23.9148 22.2019 24.1646C22.525 24.8514 22.9107 25.1845 23.4944 25.3093C24.1823 25.455 24.7348 25.018 25.0892 24.2583C25.2038 23.9981 24.5263 24.8827 23.682 24.8619C23.1713 24.8514 22.796 24.7578 22.4833 24.3415ZM22.5459 27.6925C22.3895 27.4844 22.1393 27.2658 22.2644 27.526C22.5875 28.2128 22.9732 28.5459 23.5569 28.6707C24.2449 28.8164 24.7973 28.3794 25.1517 27.6197C25.2664 27.3595 24.5888 28.2441 23.7445 28.2233C23.2338 28.2024 22.8481 28.1088 22.5459 27.6925ZM22.7126 30.5648C22.5563 30.3567 22.3061 30.1381 22.4312 30.3983C22.7543 31.0851 23.14 31.4181 23.7237 31.543C24.4116 31.6887 24.9641 31.2516 25.3185 30.4919C25.4331 30.2318 24.7556 31.1163 23.9113 31.0955C23.411 31.0747 23.0253 30.9811 22.7126 30.5648ZM25.381 19.6064C25.2247 19.3983 24.9745 19.1797 25.0996 19.4295C25.4227 20.1164 25.8084 20.4494 26.3921 20.5743C27.08 20.7199 27.6325 20.2829 27.9869 19.5232C28.1015 19.263 27.424 20.1476 26.5797 20.1268C26.069 20.1059 25.6937 20.0123 25.381 19.6064ZM25.4331 22.7181C25.2768 22.5099 25.0266 22.2914 25.1517 22.5411C25.4748 23.228 25.8605 23.561 26.4442 23.6859C27.1321 23.8316 27.6846 23.3945 28.039 22.6348C28.1536 22.3746 27.4761 23.2592 26.6318 23.2384C26.1211 23.228 25.7458 23.1239 25.4331 22.7181ZM25.4957 26.069C25.3393 25.8609 25.0892 25.6424 25.2142 25.8921C25.5374 26.579 25.923 26.912 26.5067 27.0369C27.1947 27.1826 27.7471 26.7455 28.1015 25.9858C28.2162 25.7256 27.5387 26.6102 26.6944 26.5894C26.1836 26.579 25.8084 26.4749 25.4957 26.069ZM25.6729 28.9413C25.5165 28.7332 25.2664 28.5146 25.3914 28.7748C25.7146 29.4617 26.1002 29.7947 26.6839 29.9196C27.3719 30.0653 27.9243 29.6282 28.2787 28.8685C28.3934 28.6083 27.7159 29.4929 26.8716 29.4721C26.3608 29.4513 25.9856 29.3576 25.6729 28.9413ZM28.1119 21.386C27.9556 21.1778 27.7054 20.9593 27.8305 21.2091C28.1536 21.8959 28.5393 22.2289 29.123 22.3538C29.811 22.4995 30.3634 22.0624 30.7178 21.3027C30.8325 21.0426 30.1549 21.9271 29.3106 21.9063C28.7999 21.8855 28.4142 21.7918 28.1119 21.386ZM28.1641 24.4976C28.0077 24.2895 27.7576 24.0709 27.8826 24.3207C28.2058 25.0076 28.5914 25.3406 29.1751 25.4654C29.8631 25.6111 30.4155 25.1741 30.7699 24.4144C30.8846 24.1542 30.207 25.0388 29.3628 25.018C28.852 25.0076 28.4768 24.9035 28.1641 24.4976ZM28.2266 27.8486C28.0703 27.6405 27.8201 27.4219 27.9452 27.6821C28.2683 28.3689 28.654 28.702 29.2377 28.8269C29.9256 28.9725 30.4781 28.5355 30.8325 27.7758C30.9471 27.5156 30.2696 28.4002 29.4253 28.3794C28.9145 28.3585 28.5289 28.2649 28.2266 27.8486ZM28.4038 30.7209C28.2474 30.5128 27.9973 30.2942 28.1224 30.544C28.4455 31.2308 28.8312 31.5638 29.4149 31.6887C30.1028 31.8344 30.6553 31.3973 31.0097 30.6376C31.1243 30.3775 30.4468 31.262 29.6025 31.2412C29.0917 31.2308 28.7061 31.1372 28.4038 30.7209ZM18.4911 22.3954C19.4918 27.0889 19.3876 27.2242 18.7517 29.6698C18.7205 29.7739 19.1166 30.1277 19.2521 29.7426C19.7003 28.5042 19.669 28.1608 19.7315 27.0785C19.8149 25.6944 18.4703 22.2914 18.4911 22.3954ZM16.3752 22.7285C16.9485 26.5269 16.7713 27.3387 16.2188 28.8789C16.1772 28.983 16.5941 29.3056 16.74 28.9205C17.1882 27.6821 17.1674 27.8486 17.2299 26.7559C17.3133 25.3718 16.3544 22.614 16.3752 22.7285ZM25.652 10.6878C25.4019 10.6878 25.2038 10.8959 25.2038 11.1457C25.2038 11.333 25.4227 11.6036 25.6208 11.614C26.5276 11.6556 26.2149 11.1353 26.4234 11.1353C26.5797 11.1353 27.6429 11.1145 27.6429 11.562C27.6429 11.7389 27.7575 11.7701 27.7575 11.5828C27.7471 10.9688 26.1211 10.6878 25.652 10.6878ZM35.5126 14.3822C38.6604 14.7152 41.8187 20.5534 41.7874 24.8306C41.7874 25.4759 40.5992 24.4144 40.8702 24.9971C41.7353 26.8391 41.308 28.9309 41.3914 30.0549C41.4539 30.7729 40.5366 30.9186 40.5366 30.9186C40.5366 33.1665 40.2656 34.8212 39.3275 36.8817C38.65 38.3907 37.3471 40.1286 36.951 41.6064C36.065 41.3566 35.3145 40.1078 35.3145 39.4938C35.3145 38.4844 36.607 36.0388 37.2845 34.28C37.5972 33.3434 37.7432 32.6045 38.2122 32.1778C37.3471 32.8647 37.2011 33.6036 36.7842 34.4777C36.1692 35.7994 35.1582 37.8496 34.8767 39.14C34.2096 38.578 33.5947 37.7975 33.5947 37.0586C33.5947 36.6736 35.3562 32.4692 35.9086 31.5742C34.2722 32.8127 34.0741 34.9356 33.2507 36.7464C32.7399 36.3198 32.2083 35.4248 32.2083 34.7795C32.2083 34.228 33.5738 31.0227 33.9074 30.7105C32.7504 31.2725 32.2188 33.281 31.8748 34.4257C31.093 33.7076 30.9784 32.7398 30.9367 31.9593C30.6553 33.2706 29.5191 36.3198 29.5191 36.7777C29.5191 37.1315 30.4364 39.5042 30.7282 39.8789C30.9471 39.8997 31.3432 39.5042 32.052 39.8997C32.3855 40.2431 32.5315 39.9829 32.9171 40.8051C32.6982 40.8155 32.3543 40.5137 32.2083 40.4617C31.7601 40.3056 31.8956 40.4721 31.5829 40.6282C31.239 40.7947 30.8846 40.4513 30.8116 40.5033C31.6246 41.1589 32.0624 41.211 31.7184 42.1268C31.6559 42.3037 31.4266 42.8032 31.3536 42.8969C31.2181 42.7408 31.2702 42.0539 31.1347 41.6897C30.1445 41.6793 30.7282 40.7218 30.1862 40.6594C29.9777 41.6689 28.9562 40.7739 28.6957 41.7729L28.3934 42.0955C28.2787 40.2431 29.7588 40.2223 29.738 40.1286C29.1751 37.5894 26.5693 35.3935 26.5693 35.3935C25.5165 36.7568 24.4221 37.2876 23.4631 40.1286C23.4318 40.2223 24.9015 40.4721 25.0996 42.3349L24.912 42.262C24.8598 42.0019 24.568 41.6584 24.2449 41.596C23.7445 41.4919 23.1608 41.6584 23.2755 40.7739C23.0879 40.9092 23.0774 41.1069 22.8273 41.4919C22.6292 41.7937 22.1185 42.1684 22.056 42.5847C22.0143 42.8552 22.2227 43.157 22.3687 43.438C22.2644 43.3027 21.5869 42.6991 21.6703 42.5222C22.1915 41.3775 21.1387 41.5648 22.3791 40.5033C22.3165 40.4408 21.9517 40.9196 21.6077 40.7531C21.1804 40.5449 21.3159 41.0757 20.4299 41.0549C20.9615 40.7114 21.0657 40.1391 21.5556 39.9309C21.7641 39.8477 22.3999 39.8581 22.6188 39.8373C22.9107 39.4626 23.6612 37.1315 23.6612 36.7777C23.6612 36.3198 22.525 33.2706 22.2436 31.9593C22.2019 32.7398 22.0976 33.7076 21.3055 34.4257C20.9615 33.281 20.4299 31.2725 19.2729 30.7105C19.6065 31.0227 20.9719 34.228 20.9719 34.7795C20.9719 35.4248 20.4403 36.3198 19.9296 36.7464C19.1061 34.9356 18.9081 32.8023 17.2716 31.5742C17.8241 32.4692 19.5856 36.6736 19.5856 37.0586C19.5856 37.7871 18.9706 38.5676 18.3035 39.14C18.0221 37.86 17.011 35.7994 16.396 34.4777C15.9791 33.6036 15.8332 32.8647 14.968 32.1778C15.4371 32.6045 15.583 33.3434 15.8957 34.28C16.5732 36.0284 17.8657 38.474 17.8657 39.4938C17.8657 40.0974 17.1048 41.3566 16.2293 41.6064C15.8228 40.1286 14.6241 38.3491 13.8527 36.8817C11.841 33.052 12.8729 32.2611 12.5498 30.2422C12.4456 29.597 11.841 30.3358 11.9036 29.1807C11.9036 29.1807 10.8195 25.1949 12.7166 22.4475C12.7479 22 11.6221 22.9678 11.6742 22.5515C11.914 20.824 14.1342 14.7464 17.6781 14.3822C19.7837 14.1637 19.6794 16.9423 21.0032 17.8893C21.3055 18.1078 21.6807 18.2327 22.1706 18.2327C23.067 18.2327 23.5986 17.6499 23.9113 16.9215C24.3387 15.964 24.3699 14.7673 24.3699 14.4134C24.3699 13.456 24.4638 12.1864 22.6188 12.2384C22.9419 12.0407 23.2963 11.9886 23.484 11.9886C24.026 11.9886 24.5784 12.2384 25.0996 12.6026L25.2142 12.4778C24.8494 11.8637 23.8905 11.6764 23.4423 11.6764C23.1296 11.6764 22.1289 11.9054 21.9517 12.2904C21.8371 12.2072 21.7537 12.1343 21.7537 11.947C21.7433 11.5099 21.8579 10.948 22.1081 10.7606C22.9732 10.1258 23.7862 10.5421 24.2344 10.2403C24.9953 9.71995 25.3185 9.52222 25.9751 9.52222C26.1628 9.52222 27.7888 9.75117 28.7269 9.99052C28.8103 10.0738 28.8207 10.0217 28.8207 10.2195C28.8207 10.4172 28.7374 10.5213 28.6644 10.5629C29.196 10.771 29.4357 12.176 29.4357 12.6651V15.35C29.4357 16.5884 29.8631 17.9205 31.4683 17.9413C34.1471 17.983 33.1673 14.1428 35.5126 14.3822ZM22.5146 34.0094L23.3485 36.6736C22.9628 37.7767 22.9002 38.7966 22.4833 39.4938C22.3478 39.7124 21.4514 39.5771 21.2117 39.7332C20.9198 39.9309 20.555 40.5553 20.2214 40.7843L22.5146 34.0094ZM23.0358 44C22.8481 44 21.097 43.9792 20.899 43.9792C20.3465 43.9792 19.5022 43.8023 19.5022 42.9177C19.5022 42.7199 19.8149 41.8562 20.1589 41.2942C20.2736 41.4711 20.3152 41.263 20.5029 41.263C20.6905 41.263 20.9094 41.2942 21.0762 41.211C21.0762 41.211 21.441 41.0653 21.5452 41.0444C21.3993 41.4087 21.5973 41.7833 21.5348 42.0643C21.4201 42.543 21.368 42.7303 21.4827 42.8864C21.6599 43.1258 21.8892 43.5629 22.4208 43.6357C22.6709 43.6461 22.2853 43.0113 22.2853 42.6679C22.2957 42.2204 22.869 42.0019 23.0879 41.4711C23.1504 41.8562 23.7445 41.7729 24.2136 41.929C24.568 42.0955 24.4429 42.5118 25.0996 42.7199C25.4331 42.824 25.3393 42.1684 25.3393 42.0643C25.3393 41.4087 24.5888 40.2952 23.8905 40.0766C24.2032 38.2762 26.6006 35.9659 26.6735 35.8827C27.3823 36.6424 29.0188 38.3387 29.2585 39.9309C28.9979 40.2223 28.3934 40.1911 28.1328 41.544C28.1119 41.648 28.0703 42.3869 28.3934 42.5326C28.6227 42.6367 29.0084 42.0331 29.0709 41.6897C29.1543 41.2526 29.7276 41.8978 30.1341 41.2422C30.2696 41.4191 30.3426 41.5856 30.4259 41.825C30.4989 42.0331 30.895 41.8666 30.9575 42.0643C31.1035 42.543 30.9888 43.2403 31.2807 43.2299C31.6246 43.157 32.0416 42.4494 32.0416 42.0331C32.0416 41.8354 32.3438 41.211 31.6351 40.8571C31.7184 40.7635 32.2292 40.7322 32.2292 40.7322C32.396 40.8155 32.6774 41.1485 33.1673 41.3046C33.5113 41.8666 33.824 42.7303 33.824 42.9281C33.824 43.8022 33.1048 43.9896 32.5419 43.9896C32.3647 43.9792 24.7973 44 23.0358 44ZM30.7595 33.7909L32.9067 40.2431C32.5732 40.0142 32.2917 39.6812 31.9999 39.4938C31.7601 39.3377 31.1243 39.6812 30.9888 39.4522C30.4155 38.4636 30.1862 37.8496 29.8005 36.7464L30.7595 33.7909Z" fill="#3BA6B3"/>
<path fill-rule="evenodd" clip-rule="evenodd" d="M5.51395 43.001L5.712 42.8657L5.65988 42.772C5.50353 42.5431 5.88919 42.2933 6.21232 42.0643L7.99472 40.8155C8.20319 40.6698 8.64097 40.3784 8.79732 40.597L8.85986 40.6802L9.05791 40.5449L8.95367 40.3992C8.91198 40.3368 8.83902 40.2848 8.77648 40.2327C8.71393 40.1703 8.65139 40.0975 8.59928 40.0142C8.54716 39.9414 8.49504 39.8581 8.46377 39.7748C8.41166 39.6916 8.39081 39.6083 8.33869 39.5459L8.23446 39.4002L8.03641 39.5355L8.09895 39.6187C8.25531 39.8373 7.82795 40.1495 7.61948 40.2952L5.83708 41.544C5.52437 41.7625 5.14913 42.0435 4.98236 41.8146L4.91982 41.7313L4.72177 41.8666L4.81558 42.0019C4.85728 42.0643 4.93024 42.1268 4.98236 42.1892C5.0449 42.2517 5.10744 42.3245 5.15956 42.3974C5.21167 42.4702 5.25337 42.5535 5.29506 42.6367C5.32633 42.7096 5.36802 42.7928 5.40972 42.8553L5.51395 43.001ZM4.53415 41.1798L4.47161 41.0861C4.42992 41.0237 4.46119 40.9196 4.57585 40.8676C4.83643 40.7427 5.1804 40.8051 5.44099 40.8363C5.75369 40.8676 6.08724 40.8676 6.57714 40.8884C6.79603 40.2848 7.08788 39.6708 7.20254 39.421C7.4944 38.807 7.65075 38.4844 7.41101 38.1514C7.29635 37.9953 7.24424 37.9849 7.02534 37.8288L6.8273 37.9745C7.0045 38.0577 7.04619 38.1202 7.06704 38.1514C7.15043 38.2763 6.99407 38.5468 6.88984 38.7446C6.73349 39.0568 6.57714 39.3898 6.43121 39.702C6.29571 39.9934 6.13935 40.2744 6.22274 40.6906C6.11851 40.6802 6.06639 40.6698 5.97258 40.6594C5.72242 40.6386 5.94131 40.6698 5.30548 40.5866C4.14849 40.4409 4.0651 40.4721 3.8879 40.2327L3.84621 40.1703L3.64816 40.3056L3.7107 40.3992C3.74197 40.4409 3.78367 40.4721 3.81494 40.5137C3.8879 40.5866 3.97129 40.6698 4.03383 40.7531C4.10679 40.8571 4.14849 40.9612 4.2006 41.0757C4.23187 41.1277 4.25272 41.1694 4.28399 41.211L4.34653 41.2942L4.53415 41.1798Z" fill="#3BA6B3"/>
<path fill-rule="evenodd" clip-rule="evenodd" d="M2.66833 38.4532L2.88723 38.3595L2.84553 38.2659C2.7413 37.9849 3.30416 37.808 3.64813 37.6727L5.42011 36.9546C5.73281 36.8297 6.29568 36.5904 6.41033 36.8713L6.45203 36.965L6.67092 36.8713L6.62923 36.7777C6.55626 36.6008 6.49372 36.5383 6.43118 36.4447C6.33737 36.3094 6.34779 36.2469 6.32695 36.1116C6.31652 36.018 6.28525 35.9347 6.26441 35.8515C6.22271 35.7058 6.1706 35.5705 6.11848 35.4248C5.76408 34.5506 5.0136 34.6547 4.50285 34.8628C3.95041 35.0814 3.53348 35.6329 3.86702 36.4447C3.91914 36.5799 3.98168 36.7048 4.05465 36.8297L3.4084 37.0899C2.92892 37.2772 2.53283 37.4749 2.41817 37.2044L2.37648 37.1107L2.15759 37.2044L2.22013 37.3605C2.2514 37.4333 2.30352 37.5062 2.34521 37.579C2.3869 37.6623 2.43902 37.7351 2.47029 37.8184C2.50156 37.9016 2.53283 37.9953 2.55368 38.0889C2.57452 38.1722 2.58495 38.2554 2.61622 38.3283L2.66833 38.4532ZM4.25269 36.7256C4.23184 36.684 4.211 36.6424 4.19015 36.6008C3.99211 36.1116 4.24227 35.685 4.8364 35.4352C5.42011 35.1958 5.83705 35.3519 5.9517 35.6329C6.07679 35.9347 5.88916 36.0596 5.51392 36.2157L4.25269 36.7256ZM1.55303 35.6954L1.77192 35.6017L1.73023 35.508C1.61557 35.2271 2.16801 35.0501 2.55368 34.894L4.32565 34.176C4.60709 34.0615 5.16995 33.8221 5.27418 34.0927L5.31588 34.1864L5.53477 34.0927L5.47223 33.9262C5.44096 33.8534 5.37842 33.7909 5.33672 33.7181C5.28461 33.6452 5.24291 33.562 5.21164 33.4787C5.18037 33.3955 5.1491 33.3122 5.12826 33.2185C5.11783 33.1353 5.11783 33.052 5.08656 32.9792L5.0136 32.8127L4.79471 32.8959L4.8364 32.9896C4.93021 33.229 4.46116 33.4267 4.11719 33.562L2.29309 34.3009C1.9387 34.4466 1.4071 34.7067 1.29245 34.4153L1.25075 34.3113L1.03186 34.4049L1.0944 34.561C1.12567 34.6339 1.17779 34.7067 1.21948 34.7796C1.26118 34.8628 1.31329 34.9357 1.34456 35.0189C1.37583 35.1022 1.4071 35.1958 1.42795 35.2895C1.4488 35.3832 1.45922 35.4664 1.49049 35.5393L1.55303 35.6954Z" fill="#3BA6B3"/>
<path fill-rule="evenodd" clip-rule="evenodd" d="M4.59671 30.3254L4.35698 30.3671L4.38825 30.5024C4.45079 30.8041 3.71073 30.9082 3.33548 30.9811L1.30292 31.3765L0.698363 31.491C0.677516 31.439 0.677516 31.3973 0.667093 31.3453C0.573282 30.8666 0.906831 30.5024 1.55308 30.3775C2.30357 30.2318 2.63712 30.5648 2.60585 30.9082L2.81431 30.8666C2.81431 30.7729 2.81431 30.6793 2.79347 30.5856C2.64754 29.8571 1.98044 29.6282 1.32377 29.7531C0.948525 29.8259 0.145923 30.1381 0.354391 31.1892C0.375238 31.3037 0.416931 31.4181 0.458625 31.5326C0.510742 31.6783 0.562859 31.824 0.594129 31.9801C0.614976 32.0738 0.6254 32.1778 0.635823 32.2715C0.635823 32.3235 0.646246 32.386 0.65667 32.438L0.677516 32.5421L0.917255 32.5005L0.896408 32.3964C0.844291 32.1258 1.43842 32.0113 1.90748 31.9177L3.09575 31.6887C3.31464 31.6471 3.85665 31.5534 4.08597 31.5118C4.2319 31.491 4.59671 31.439 4.64883 31.6575L4.66968 31.7616L4.90942 31.7199L4.87815 31.5326C4.8573 31.4494 4.81561 31.3765 4.78434 31.3037C4.75307 31.2204 4.7218 31.1372 4.71137 31.0435C4.69053 30.9498 4.6801 30.8562 4.6801 30.7625C4.6801 30.6793 4.70095 30.596 4.6801 30.5128L4.59671 30.3254Z" fill="#3BA6B3"/>
<path fill-rule="evenodd" clip-rule="evenodd" d="M0.0729638 28.369L0.312702 28.3586V28.2441C0.302279 27.9839 0.844295 27.9631 1.18827 27.9527L3.2521 27.8798C3.58565 27.8694 4.11724 27.8382 4.12767 28.1192V28.2233L4.3674 28.2129L4.35698 28.0255C4.35698 27.9423 4.31529 27.8694 4.29444 27.7862C4.27359 27.6925 4.26317 27.6093 4.26317 27.5156C4.26317 27.4219 4.26317 27.3387 4.28402 27.245C4.30486 27.1618 4.32571 27.0785 4.32571 27.0057L4.31529 26.7559L4.07555 26.7663L4.08597 26.9432C4.0964 27.2034 3.58565 27.2346 3.17914 27.245L0.333549 27.3491L0.323125 26.9953C0.312702 26.7559 0.229315 26.4125 0.792178 26.3917C0.948529 26.3813 1.10488 26.4125 1.13615 26.4229L1.12573 26.2252C0.823449 26.1523 0.437783 26.0899 0 26.0378C0.0416936 26.7247 0.0625404 26.6935 0.0833872 27.0577C0.0833872 27.1722 0.0938106 27.474 0.0938106 27.6197C0.0938106 27.9423 0.0625404 27.859 0.0625404 28.14L0.0729638 28.369Z" fill="#3BA6B3"/>
<path fill-rule="evenodd" clip-rule="evenodd" d="M0.0729675 24.2895L0.312706 24.3311L0.333553 24.2271C0.385669 23.9253 0.948533 24.0605 1.31335 24.123L3.19999 24.4248C3.53354 24.4768 4.13809 24.5705 4.0964 24.8619L4.07555 24.9659L4.31529 25.0076L4.33614 24.9035C4.36741 24.7162 4.34656 24.6329 4.33614 24.5184C4.32571 24.3623 4.36741 24.3103 4.41952 24.175C4.46122 24.0918 4.48207 24.0085 4.50291 23.9149C4.54461 23.7692 4.57588 23.6235 4.59672 23.4778C4.74265 22.5412 4.04428 22.2498 3.50227 22.1665C2.91856 22.0728 2.28273 22.3226 2.1368 23.1864C2.11595 23.3217 2.10553 23.4674 2.10553 23.6131L1.41759 23.4986C0.906839 23.4153 0.469057 23.3841 0.51075 23.0927L0.531597 22.9886L0.291859 22.947L0.271012 23.1135C0.260589 23.1968 0.260589 23.28 0.260589 23.3633C0.260589 23.457 0.260589 23.5506 0.239742 23.6339C0.229319 23.7275 0.198048 23.8212 0.166778 23.9044C0.145931 23.9773 0.104238 24.0605 0.0938143 24.1438L0.0729675 24.2895ZM2.314 23.6235C2.314 23.5818 2.32442 23.5298 2.33485 23.4778C2.41823 22.9574 2.85601 22.7181 3.49184 22.8117C4.11725 22.9158 4.38825 23.2592 4.34656 23.5506C4.29444 23.8732 4.07555 23.8836 3.67946 23.8212L2.314 23.6235ZM0.54202 21.3444L0.781759 21.386L0.802605 21.2819C0.854722 20.9801 1.41759 21.1154 1.8241 21.1779L3.71073 21.4797C4.01301 21.5317 4.60715 21.6149 4.56545 21.8959L4.54461 22L4.78434 22.0416L4.81561 21.8543C4.82604 21.771 4.80519 21.6878 4.80519 21.6045C4.80519 21.5109 4.80519 21.4172 4.82604 21.334C4.83646 21.2403 4.85731 21.157 4.88858 21.0738C4.91985 21.0009 4.96154 20.9177 4.97196 20.8448L5.00324 20.6679L4.7635 20.6263L4.75307 20.7304C4.71138 20.9905 4.20063 20.9177 3.84624 20.8553L1.90749 20.543C1.52182 20.4806 0.948533 20.439 0.990227 20.1372L1.01107 20.0331L0.760912 19.9811L0.729642 20.1476C0.719218 20.2308 0.719218 20.3141 0.719218 20.3974C0.719218 20.491 0.719218 20.5847 0.698372 20.6679C0.687948 20.7616 0.656678 20.8553 0.625408 20.9385C0.604561 21.0114 0.573291 21.0946 0.552444 21.1779L0.54202 21.3444Z" fill="#3BA6B3"/>
<path fill-rule="evenodd" clip-rule="evenodd" d="M4.33607 19.2734L4.46115 19.3255C4.86766 19.4816 5.25333 19.7105 5.68069 19.1694C5.78492 19.0445 5.86831 18.8988 5.92042 18.7531C6.2644 17.8685 5.64942 17.2441 5.1074 17.036C4.37776 16.755 3.86701 17.2337 3.74193 17.5667L3.71066 17.65L3.64812 17.6083C3.71066 17.2649 3.68982 16.6821 3.06441 16.4428C2.6579 16.2867 2.09504 16.2555 1.83445 16.9319C1.60514 17.5251 1.68852 17.6812 1.49048 17.9726L1.64683 18.035C1.80318 18.0975 2.24096 18.2848 2.42858 18.368L2.49112 18.1911C2.08461 17.9309 1.79276 17.6812 1.93868 17.2961C2.06377 16.9839 2.40774 16.8903 2.84552 17.0568C3.325 17.2441 3.50219 17.6708 3.37711 17.9934C3.35627 18.0558 3.31457 18.1391 3.27288 18.2015L3.59601 18.3264C3.60643 18.2536 3.61685 18.1911 3.65855 18.0975C3.88786 17.4939 4.46115 17.5147 4.95105 17.702C5.58687 17.9414 5.78492 18.3784 5.64942 18.7323C5.54518 19.0133 5.22206 19.3046 4.37776 19.1277L4.33607 19.2734Z" fill="#3BA6B3"/>
<path fill-rule="evenodd" clip-rule="evenodd" d="M7.53611 13.3728C7.88009 13.7994 7.84882 14.4134 7.66119 14.7152C7.34849 15.2356 6.38954 15.5582 5.22212 14.8609C4.25274 14.2781 3.82538 13.4352 4.27359 12.6859C4.5029 12.3008 5.01365 12.0407 5.57651 12.3737L5.68075 12.2072C5.63905 12.1864 5.60778 12.1656 5.56609 12.1447C5.35762 12.0199 4.96153 11.7597 4.74264 11.5932C4.71137 11.6973 4.63841 11.8117 4.57587 11.9262C4.42994 12.1656 4.20063 12.3113 3.92962 12.7483C3.2521 13.8723 3.8775 14.9026 4.80518 15.4541C5.96218 16.1514 7.23383 15.9536 7.84882 14.9338C8.01559 14.6632 8.15109 14.2885 8.15109 13.9868C8.15109 13.789 8.1094 13.6017 7.64035 13.2166L7.53611 13.3728Z" fill="#3BA6B3"/>
<path fill-rule="evenodd" clip-rule="evenodd" d="M6.87939 9.3557L8.90153 11.1665C9.21424 11.4475 9.71456 11.9054 9.51651 12.1239L9.44355 12.2072L9.62075 12.3633L9.75625 12.2176C9.81879 12.1551 9.85006 12.0719 9.88133 11.999C9.92303 11.9158 9.98557 11.8429 10.0481 11.7805C10.1106 11.718 10.1836 11.6452 10.2566 11.5932C10.3295 11.5411 10.4025 11.5099 10.465 11.4475L10.5901 11.3122L10.4129 11.1561L10.34 11.2393C10.1419 11.4683 9.64159 10.9896 9.32889 10.719L7.30675 8.87699L7.57776 8.57519C7.71327 8.4295 7.97385 8.14851 8.34909 8.48153C8.36994 8.50234 8.45333 8.57519 8.54714 8.68967L8.68264 8.54397C8.32825 8.13811 8.28655 8.04444 7.93216 7.68021C7.66115 8.02363 7.24421 8.57519 6.91066 8.94984C6.77516 9.09553 6.44161 9.45977 6.31653 9.57425C6.18103 9.70953 6.14976 9.73035 5.82663 10.0217C6.07679 10.2819 6.16018 10.3964 6.58754 10.8647L6.71262 10.719C6.33738 10.1882 6.38949 9.89686 6.60838 9.6575L6.87939 9.3557Z" fill="#3BA6B3"/>
<path fill-rule="evenodd" clip-rule="evenodd" d="M11.7158 10.1467L11.8513 10.0426C11.893 10.0114 11.9243 9.94893 11.9556 9.9073C12.0077 9.83445 12.0807 9.78242 12.1536 9.71998C12.4976 9.43899 12.2579 9.70957 12.5601 9.45981L12.6331 9.40777L12.4767 9.22045L12.3829 9.2933C12.2995 9.35574 12.1015 9.47021 11.9139 9.05394L11.5803 8.32546C11.8096 8.15896 11.8618 8.12774 11.966 8.04448C12.1223 7.90919 12.2995 7.75309 12.3725 7.68024L13.1021 8.21099C13.2793 8.34628 13.3106 8.52319 13.196 8.61686L13.1021 8.6897L13.2585 8.87703L13.4253 8.74174C13.4982 8.6793 13.5608 8.59604 13.6233 8.52319C13.6859 8.46075 13.738 8.39831 13.8109 8.34628C13.8943 8.27343 13.9881 8.21099 14.0924 8.14855C14.1653 8.10692 14.2487 8.06529 14.3217 8.01326L14.4155 7.93001L14.2591 7.74268L14.2279 7.80512C14.1236 7.88838 14.0403 8.02367 13.6025 7.74268C13.1855 7.47211 13.5504 7.75309 11.6741 6.42102C10.8403 5.82783 10.6422 5.68214 10.3816 5.474C10.3295 5.59888 10.2566 5.72376 10.1628 5.83824C10.3504 6.16085 10.5067 6.51468 11.1634 8.02367C11.2989 8.33587 11.4969 8.81459 11.6533 9.28289C11.7263 9.49103 11.7992 9.7616 11.6429 9.88649L11.5595 9.94893L11.7158 10.1467ZM10.7882 6.51468C11.0487 6.76444 11.1634 6.78526 12.1536 7.52414C12.0807 7.6178 12.0077 7.69065 11.8618 7.80512C11.7054 7.94041 11.5908 8.01326 11.4761 8.0757C10.9028 6.82688 10.882 6.74363 10.7569 6.55631L10.7882 6.51468Z" fill="#3BA6B3"/>
<path fill-rule="evenodd" clip-rule="evenodd" d="M13.3523 3.66318L13.4566 3.88173L13.5504 3.8401C13.7484 3.74644 13.8839 3.97539 13.9777 4.1523C14.0611 4.31881 14.2175 4.62061 14.3009 4.78712L15.1035 6.4418C15.2181 6.67075 15.437 7.14947 15.1973 7.26394L15.1035 7.30557L15.2077 7.52411L15.3745 7.44086C15.4474 7.40964 15.51 7.33679 15.5725 7.28475C15.6455 7.23272 15.7289 7.18069 15.8122 7.13906C15.8956 7.09743 15.979 7.06621 16.0728 7.0454C16.1562 7.02458 16.2396 7.02458 16.3126 6.98296L16.4793 6.8997L16.3751 6.68116L16.2813 6.72279C16.0728 6.82685 15.8539 6.46262 15.6976 6.14001L15.2285 5.17217C15.364 5.13054 15.5204 5.0577 15.7497 4.95363C15.8539 4.9016 15.9686 4.84956 16.0728 4.79753C16.1771 4.74549 16.2917 4.69346 16.396 4.64142C16.6253 4.52695 16.7712 4.4437 16.8859 4.36044L17.3549 5.32827C17.5113 5.65089 17.6676 6.04634 17.4591 6.15041L17.3653 6.19204L17.4696 6.41058L17.6363 6.32733C17.7093 6.29611 17.7718 6.22326 17.8344 6.17123C17.9074 6.11919 17.9907 6.06716 18.0741 6.02553C18.1575 5.9839 18.2409 5.95268 18.3347 5.93187C18.4181 5.91106 18.5015 5.91106 18.5744 5.86943L18.7412 5.78617L18.637 5.56763L18.5432 5.60926C18.3034 5.72373 18.0637 5.25543 17.949 5.02648L17.1464 3.37179C16.9171 2.91389 16.5732 2.33111 16.865 2.18542L16.9588 2.14379L16.8546 1.92525L16.7087 1.99809C16.6148 2.08135 16.5419 2.13338 16.4793 2.18542C16.4064 2.23745 16.323 2.28949 16.2396 2.33111C16.1562 2.37274 16.0728 2.40396 15.979 2.42477C15.8956 2.44559 15.8122 2.4664 15.7393 2.50803L15.5829 2.58088L15.6872 2.79942L15.781 2.75779C15.9999 2.65372 16.1562 2.95552 16.2188 3.07C16.2709 3.16366 16.4793 3.56952 16.5419 3.71522L16.7399 4.12108C16.6148 4.20434 16.4272 4.33963 15.9373 4.57898C15.4474 4.81834 15.2285 4.89119 15.0826 4.93282L14.8846 4.52695C14.8116 4.38125 14.6136 3.96498 14.5719 3.87132C14.5197 3.74644 14.3738 3.43423 14.5927 3.33017L14.6865 3.28854L14.5927 3.05959L14.4364 3.13244C14.3634 3.16366 14.2904 3.2261 14.2279 3.26773C14.1549 3.31976 14.0715 3.37179 13.9986 3.41342C13.9152 3.45505 13.8214 3.48627 13.738 3.51749C13.6546 3.5383 13.5712 3.55912 13.4983 3.60074L13.3523 3.66318Z" fill="#3BA6B3"/>
<path fill-rule="evenodd" clip-rule="evenodd" d="M24.2448 3.50709C24.151 4.04824 23.682 4.43329 23.3276 4.50614C22.723 4.62062 21.8474 4.1315 21.5869 2.79942C21.368 1.6859 21.7119 0.801317 22.5667 0.634808C23.0149 0.551553 23.5465 0.749283 23.6715 1.39451L23.8696 1.35288C23.8592 1.31125 23.8487 1.26962 23.8383 1.228C23.7966 0.988639 23.7132 0.520333 23.7028 0.249756C23.5986 0.291383 23.4735 0.322604 23.338 0.343417C23.067 0.395451 22.796 0.322604 22.2956 0.416265C21.0031 0.666028 20.6592 1.81078 20.8676 2.87227C21.1282 4.19394 22.1185 5.00567 23.2859 4.77672C23.5986 4.71428 23.9634 4.56858 24.1927 4.37085C24.3386 4.23556 24.4533 4.07946 24.422 3.46546L24.2448 3.50709Z" fill="#3BA6B3"/>
<path fill-rule="evenodd" clip-rule="evenodd" d="M25.4748 4.4333H25.6416C25.6937 4.4333 25.7562 4.41249 25.8083 4.40208C25.9022 4.38127 25.9855 4.38127 26.0793 4.39167C26.5171 4.40208 26.1732 4.45412 26.5588 4.45412H26.6526V4.21476H26.538C26.4337 4.21476 26.2149 4.17313 26.3295 3.73605L26.5484 2.96594C26.8298 2.98675 26.882 2.99716 27.0175 2.99716C27.2259 2.99716 27.4657 2.99716 27.5699 2.98675L27.7784 3.86093C27.8305 4.07947 27.7367 4.23557 27.5907 4.22517H27.4761V4.46452H27.695C27.7888 4.46452 27.8826 4.44371 27.9868 4.42289C28.0702 4.41249 28.1536 4.40208 28.237 4.41249C28.3517 4.41249 28.4663 4.42289 28.5705 4.44371C28.6539 4.45412 28.7373 4.48534 28.8311 4.48534H28.9562V4.24598H28.9041C28.7686 4.24598 28.6227 4.29801 28.4663 3.79849C28.3204 3.31977 28.4246 3.77767 27.8409 1.55061C27.5803 0.561968 27.5178 0.322611 27.4552 0C27.3406 0.0624409 27.2051 0.114475 27.0591 0.135289C26.9966 0.499527 26.8924 0.874172 26.4129 2.45601C26.3191 2.78903 26.1627 3.27815 25.9751 3.73605C25.8917 3.94418 25.7771 4.19394 25.579 4.19394H25.4748V4.4333ZM27.1008 1.05109C27.1425 1.41533 27.2155 1.49858 27.4969 2.69536C27.3823 2.72658 27.278 2.73699 27.1008 2.72658C26.8924 2.72658 26.7673 2.70577 26.6318 2.68496C26.9966 1.36329 27.0383 1.28004 27.0591 1.06149L27.1008 1.05109Z" fill="#3BA6B3"/>
<path fill-rule="evenodd" clip-rule="evenodd" d="M29.6442 4.61021L29.8527 4.65184C29.9673 4.67265 30.0716 4.62062 30.28 4.66225C30.3843 4.68306 30.4885 4.72469 30.5927 4.76631C30.6553 4.78713 30.7074 4.81835 30.7699 4.82876L30.8533 4.84957L30.895 4.61021L30.7803 4.57899C30.6761 4.55818 30.5198 4.46452 30.7387 3.99621L31.6246 2.11258C31.7289 1.88363 31.7914 1.75875 31.8331 1.55061L31.8748 1.56102C31.8644 1.70671 31.854 1.74834 31.8644 1.82119L32.0312 3.9858C32.052 4.29801 32.1354 4.83916 31.7289 4.75591L31.6663 4.7455L31.6246 4.99527L31.8748 5.0473C31.9582 5.05771 32.0312 5.0473 32.1145 5.03689C32.2083 5.02649 32.3022 5.0473 32.396 5.06811C32.5002 5.08893 32.594 5.10974 32.6878 5.16177C32.7504 5.19299 32.8233 5.23462 32.8859 5.24503L33.0526 5.27625L33.0943 5.03689L32.9901 5.01608C32.7504 4.96405 32.6878 4.30842 32.6253 3.68401C32.5002 2.35194 32.4377 1.67549 32.4064 0.645218C32.2813 0.655625 32.1458 0.655625 32.0103 0.655625C31.7184 1.37369 31.437 1.92526 31.1452 2.48722C30.624 3.5175 30.624 3.47587 30.426 3.85052C30.3113 4.05865 30.082 4.46452 29.811 4.40208L29.6859 4.37086L29.6442 4.61021Z" fill="#3BA6B3"/>
<path fill-rule="evenodd" clip-rule="evenodd" d="M35.7106 1.66508L35.6168 1.88363L35.7106 1.92526C35.992 2.05014 35.7106 2.56007 35.5542 2.9035L34.7725 4.65184C34.637 4.95364 34.3868 5.51561 34.1262 5.40113L34.0324 5.3595L33.9386 5.57805L34.0324 5.61967C34.1992 5.69252 34.293 5.70293 34.4076 5.72374C34.564 5.75496 34.6057 5.807 34.7204 5.89025C34.7933 5.95269 34.8663 5.99432 34.9497 6.03595C35.0852 6.1192 35.2103 6.18164 35.3458 6.24408C36.2109 6.62913 36.68 6.03595 36.8988 5.52601C37.1386 4.98486 37.0656 4.30841 36.263 3.94418C36.1379 3.89214 36.0024 3.84011 35.8669 3.79848L36.1484 3.16367C36.3568 2.69536 36.5132 2.27909 36.7738 2.39356L36.8676 2.43519L36.9614 2.21665L36.805 2.1542C36.7321 2.12298 36.6487 2.10217 36.5653 2.08136C36.4715 2.06054 36.3881 2.02932 36.3047 1.9877C36.2213 1.95648 36.1379 1.90444 36.065 1.85241C35.992 1.81078 35.9295 1.75875 35.8565 1.72753L35.7106 1.66508ZM35.7835 3.99621C35.8252 4.00662 35.8773 4.02743 35.919 4.04824C36.4089 4.26679 36.5236 4.7455 36.263 5.33869C36.0024 5.92147 35.5959 6.08798 35.3249 5.9631C35.0226 5.83822 35.0643 5.61967 35.2311 5.24503L35.7835 3.99621ZM38.4415 2.88268L38.3477 3.10122L38.4415 3.14285C38.7229 3.26773 38.4519 3.77767 38.2747 4.15231L37.493 5.90066C37.3679 6.18164 37.1282 6.7332 36.8676 6.61873L36.7738 6.5771L36.6799 6.79564L36.8467 6.86849C36.9197 6.89971 37.0031 6.91012 37.0865 6.92052C37.1803 6.94134 37.2637 6.97256 37.3471 7.00378C37.4304 7.04541 37.5138 7.08703 37.5868 7.13907C37.6493 7.1911 37.7119 7.25354 37.7848 7.28476L37.9516 7.35761L38.0454 7.13907L37.9516 7.09744C37.7119 6.99337 37.9203 6.52507 38.0663 6.18164L38.8689 4.38126C39.0252 4.02743 39.2233 3.47587 39.5047 3.60075L39.6089 3.66319L39.7027 3.44465L39.5464 3.3718C39.4734 3.34058 39.39 3.31977 39.3066 3.29895C39.2128 3.27814 39.1294 3.24692 39.0461 3.20529C38.9627 3.17407 38.8897 3.12204 38.8063 3.08041C38.7334 3.03878 38.6708 2.98675 38.5874 2.95553L38.4415 2.88268Z" fill="#3BA6B3"/>
<path fill-rule="evenodd" clip-rule="evenodd" d="M41.3913 4.53737L41.2454 4.7351L41.3288 4.79754C41.5581 4.96405 41.2662 5.32829 41.0369 5.64049L39.7548 7.39924C39.5985 7.60738 39.2858 8.02365 39.0669 7.86755L38.9835 7.80511L38.8376 8.00284L38.9835 8.1069C39.0461 8.15894 39.1294 8.17975 39.2128 8.21097C39.2962 8.2526 39.3796 8.30463 39.4526 8.35667C39.5255 8.4087 39.5985 8.47114 39.661 8.54399C39.7132 8.60643 39.7653 8.67928 39.8278 8.73131L39.9737 8.83538L40.1197 8.63765L40.0363 8.57521C39.8278 8.41911 40.1197 7.99243 40.276 7.77389L41.5581 6.01514C41.7874 5.70293 42.048 5.31788 42.2773 5.48439L42.3607 5.54683L42.5066 5.3491L42.3711 5.25544C42.3086 5.2034 42.2356 5.17218 42.1627 5.14096C42.0793 5.09934 41.9959 5.0473 41.9229 4.99527C41.85 4.94323 41.777 4.87039 41.7144 4.80795C41.6519 4.7455 41.5998 4.68306 41.5372 4.64144L41.3913 4.53737ZM42.9131 5.94229L43.0069 6.00473C43.0695 6.05676 43.0695 6.15042 42.9757 6.24409C42.7672 6.44182 42.4232 6.49385 42.1627 6.55629C41.8604 6.62914 41.5477 6.73321 41.0682 6.86849C41.0578 7.51372 40.9848 8.17975 40.964 8.46074C40.891 9.13718 40.8493 9.49101 41.1724 9.73037C41.3288 9.84484 41.3913 9.83444 41.6415 9.90728L41.7874 9.70955C41.5894 9.68874 41.5268 9.63671 41.4956 9.61589C41.3705 9.52223 41.433 9.22043 41.4747 8.99148C41.5268 8.64806 41.5581 8.28382 41.5998 7.92999C41.6415 7.61778 41.6936 7.29517 41.4747 6.93094C41.5789 6.91012 41.6311 6.89971 41.7249 6.8789C41.9646 6.81646 41.7561 6.85809 42.3815 6.73321C43.5281 6.49385 43.5907 6.43141 43.8408 6.60832L43.8929 6.64995L44.0389 6.45222L43.9451 6.38978C43.9034 6.35856 43.8512 6.33775 43.8095 6.31693C43.7157 6.27531 43.6115 6.22327 43.5281 6.16083C43.4343 6.08798 43.3509 6.00473 43.2675 5.91107C43.2258 5.86944 43.1841 5.83822 43.1425 5.807L43.0486 5.74456L42.9131 5.94229Z" fill="#3BA6B3"/>
<path fill-rule="evenodd" clip-rule="evenodd" d="M46.7489 9.21002L46.5612 9.36612L46.6238 9.44938C46.801 9.66792 46.4257 9.94891 46.1235 10.1883L44.4349 11.5516C44.2368 11.7181 43.8199 12.0303 43.6531 11.8325L43.5906 11.7493L43.403 11.9054L43.5176 12.0511C43.5697 12.1135 43.6427 12.1551 43.7052 12.2072C43.7782 12.2696 43.8407 12.3321 43.9033 12.4049C43.9554 12.4778 44.0179 12.5506 44.0596 12.6339C44.0909 12.7067 44.1222 12.79 44.1743 12.8524L44.2889 12.9981L44.4766 12.842L44.414 12.7587C44.2472 12.5506 44.6433 12.2176 44.8518 12.0511L46.5404 10.6878C46.8427 10.4484 47.1971 10.1362 47.3743 10.3548L47.4368 10.438L47.6244 10.2819L47.5202 10.157C47.4681 10.0946 47.4055 10.0426 47.343 9.98013C47.2805 9.91769 47.2075 9.85524 47.145 9.7824C47.0824 9.70955 47.0407 9.62629 46.9886 9.55345C46.9469 9.4806 46.9052 9.40775 46.8531 9.34531L46.7489 9.21002ZM47.8537 10.9584L47.9267 11.0416C47.9788 11.1041 47.9476 11.2081 47.8329 11.2602C47.5827 11.3955 47.2283 11.3642 46.9678 11.3538C46.6551 11.3434 46.3215 11.3642 45.8316 11.3746C45.6544 11.9886 45.4147 12.6235 45.3104 12.8836C45.0707 13.5184 44.9248 13.8515 45.1854 14.1637C45.3104 14.3198 45.373 14.3198 45.5919 14.4551L45.7795 14.299C45.6023 14.2261 45.5502 14.1637 45.5189 14.1324C45.4251 14.018 45.5606 13.737 45.6544 13.5288C45.7899 13.2062 45.9254 12.8628 46.0505 12.5402C46.1652 12.2384 46.3007 11.947 46.1964 11.5411C46.3007 11.5516 46.3528 11.5516 46.4466 11.5516C46.6967 11.5516 46.4779 11.5411 47.1137 11.5724C48.2811 11.6348 48.3645 11.5932 48.5521 11.8325L48.5938 11.8846L48.7814 11.7285L48.7085 11.6452C48.6772 11.6036 48.6355 11.5724 48.5938 11.5411C48.5104 11.4683 48.427 11.3955 48.3645 11.3122C48.2915 11.2185 48.229 11.1145 48.1769 11C48.1456 10.948 48.1143 10.9063 48.0831 10.8647L48.0205 10.7815L47.8537 10.9584Z" fill="#3BA6B3"/>
<path fill-rule="evenodd" clip-rule="evenodd" d="M49.9592 13.6225L49.7404 13.7266L49.782 13.8203C49.9071 14.1012 49.3651 14.299 49.0211 14.4551L47.2909 15.2564C46.9886 15.4021 46.4361 15.6623 46.3111 15.3917L46.2694 15.298L46.0505 15.4021L46.0922 15.4958C46.1756 15.6623 46.2381 15.7247 46.3111 15.8184C46.4153 15.9432 46.4049 16.0057 46.4361 16.141C46.457 16.2346 46.4778 16.3179 46.5091 16.4011C46.5508 16.5468 46.6133 16.6821 46.6759 16.8174C47.072 17.6708 47.8225 17.5251 48.3228 17.2961C48.8648 17.0464 49.2505 16.4844 48.8752 15.6831C48.8127 15.5582 48.7397 15.4333 48.6667 15.3084L49.3026 15.017C49.7716 14.7985 50.1573 14.5904 50.2824 14.8505L50.3241 14.9442L50.543 14.8401L50.47 14.684C50.4387 14.6112 50.3866 14.5383 50.3345 14.4759C50.2824 14.403 50.2303 14.3198 50.199 14.2365C50.1573 14.1533 50.1364 14.0596 50.1052 13.9764C50.0843 13.8931 50.0635 13.8099 50.0322 13.737L49.9592 13.6225ZM48.4791 15.4333C48.5 15.4749 48.5208 15.5166 48.5417 15.5582C48.771 16.0369 48.5417 16.4844 47.958 16.755C47.3847 17.0256 46.9677 16.8903 46.8322 16.6093C46.6967 16.3179 46.8739 16.1826 47.2387 16.0057L48.4791 15.4333ZM51.2205 16.3283L51.0016 16.4324L51.0433 16.526C51.1684 16.7966 50.6368 17.0047 50.2511 17.1817L48.5208 17.9934C48.2498 18.1183 47.6974 18.3888 47.5723 18.1287L47.5306 18.035L47.3117 18.1391L47.3847 18.3056C47.4159 18.3784 47.4785 18.4409 47.5306 18.5033C47.5827 18.5762 47.6348 18.6594 47.6661 18.7427C47.7078 18.8259 47.7391 18.9092 47.7599 19.0028C47.7808 19.0861 47.7808 19.1694 47.812 19.2422L47.885 19.4087L48.1039 19.3046L48.0622 19.211C47.9475 18.9716 48.4166 18.7531 48.7501 18.597L50.5325 17.7644C50.8869 17.5979 51.3873 17.3169 51.5228 17.5979L51.5645 17.6916L51.7833 17.5875L51.7104 17.4314C51.6791 17.3586 51.627 17.2857 51.5749 17.2233C51.5228 17.1504 51.4706 17.0672 51.4394 16.9839C51.3977 16.9007 51.3768 16.807 51.3456 16.7238C51.3247 16.6405 51.3039 16.5572 51.2726 16.4844L51.2205 16.3283Z" fill="#3BA6B3"/>
<path fill-rule="evenodd" clip-rule="evenodd" d="M49.3028 20.0955L49.1672 20.1268C48.7503 20.2308 48.2917 20.262 48.2604 20.9593C48.25 21.1258 48.2604 21.2819 48.3021 21.438C48.5314 22.3538 49.3861 22.5203 49.9594 22.385C50.7203 22.1977 50.8558 21.5109 50.7725 21.1674L50.7516 21.0842L50.8141 21.0634C50.9601 21.386 51.3145 21.8439 51.9711 21.6878C52.3985 21.5837 52.8676 21.2923 52.6904 20.5847C52.534 19.9707 52.3777 19.8874 52.3777 19.5336L52.2109 19.5752C52.0545 19.6168 51.5751 19.7105 51.377 19.7521L51.4187 19.929C51.9086 19.9082 52.2838 19.9394 52.3881 20.3453C52.4715 20.6783 52.2317 20.9489 51.7835 21.053C51.2832 21.1778 50.8871 20.9281 50.8037 20.5951C50.7829 20.5222 50.7725 20.439 50.762 20.3661L50.4285 20.4494C50.4598 20.5118 50.491 20.5743 50.5119 20.6783C50.6682 21.3027 50.1887 21.6149 49.678 21.7398C49.0213 21.9063 48.6044 21.667 48.521 21.2923C48.448 21.0009 48.5418 20.5743 49.334 20.2412L49.3028 20.0955Z" fill="#3BA6B3"/>
<path fill-rule="evenodd" clip-rule="evenodd" d="M48.8752 23.5298L48.8856 23.6859C48.896 23.8628 48.9898 24.0293 48.9898 24.1542C49.0003 24.3103 48.9377 24.4976 48.9481 24.5913L48.9586 24.7058L49.1983 24.6849L49.1879 24.5705C49.167 24.2791 49.7195 24.2999 49.9175 24.2895C50.4178 24.2583 51.7208 24.227 52.0022 24.2062L52.1064 24.1958V24.2479C51.9709 24.2791 51.6478 24.3727 50.595 24.8827C50.1573 25.0908 49.9279 25.2261 49.5736 25.3822C49.3651 25.4759 49.3651 25.4759 49.1253 25.5903L49.1358 25.7777C49.4902 25.8817 49.5319 25.8921 49.7091 25.9546C50.126 26.0795 50.1781 26.1003 50.741 26.2772C51.2413 26.4229 51.4602 26.4957 51.6895 26.5582C52.2211 26.7039 51.9605 26.6206 52.2732 26.7143V26.7455L51.9397 26.7559L49.9905 26.9848C49.4276 27.0473 49.3442 26.9328 49.3338 26.7767V26.7039L49.0941 26.7247L49.1045 26.8496C49.1149 26.9328 49.1358 27.0057 49.1566 27.0889C49.1775 27.193 49.2087 27.2866 49.2192 27.3907C49.2296 27.4948 49.2296 27.5988 49.2087 27.7133C49.1983 27.7862 49.1775 27.8694 49.1775 27.9527L49.1983 28.0984L49.438 28.0776L49.4276 28.0047C49.3964 27.6197 50.2511 27.5884 50.8556 27.5156L52.513 27.3179C52.711 27.2971 52.9195 27.2658 53.1279 27.245C53.1696 27.245 53.2113 27.2346 53.253 27.2346C53.3572 27.2242 53.4406 27.2138 53.597 27.193C53.5344 27.0473 53.4928 26.9016 53.4615 26.7351C53.3677 26.7143 52.9195 26.6206 51.8042 26.2876C51.0224 26.0482 50.6159 25.8609 50.0009 25.7673V25.7256C50.2198 25.6632 50.3866 25.5799 50.595 25.4967L53.3989 24.2687C53.3364 24.175 53.2947 24.0605 53.2634 23.9461C53.0967 23.9565 52.4504 23.9877 51.9292 23.9877H50.1051C49.3234 23.9877 49.1462 23.7587 49.1358 23.5922L49.1253 23.5194L48.8752 23.5298Z" fill="#3BA6B3"/>
<path fill-rule="evenodd" clip-rule="evenodd" d="M49.0003 28.8789L48.9795 29.0454C48.9691 29.0974 48.9899 29.1599 48.9899 29.2119C49.0003 29.3056 48.9795 29.3992 48.9691 29.4825C48.8961 29.9196 48.8961 29.5658 48.8336 29.9404L48.8231 30.0341L49.0629 30.0757L49.0837 29.9612C49.0942 29.8571 49.1775 29.6386 49.5841 29.8259L50.3137 30.1485C50.2616 30.4295 50.2303 30.4816 50.2199 30.6064C50.1886 30.8146 50.1573 31.0435 50.1573 31.1476L49.2609 31.2413C49.042 31.2621 48.8961 31.1476 48.917 31.0019L48.9378 30.8874L48.6981 30.8458L48.6668 31.0643C48.6564 31.158 48.6668 31.2621 48.6668 31.3557C48.6668 31.439 48.6564 31.5222 48.6459 31.6055C48.6251 31.72 48.6043 31.824 48.5626 31.9385C48.5313 32.0218 48.5 32.105 48.4896 32.1883L48.4688 32.3132L48.7085 32.3548L48.7189 32.3028C48.7398 32.1675 48.7085 32.0114 49.2297 31.9281C49.7196 31.8448 49.2505 31.8865 51.5437 31.6159C52.5651 31.5014 52.8049 31.4702 53.1384 31.4598C53.0967 31.3349 53.0655 31.1996 53.055 31.0539C52.7007 30.9395 52.3463 30.7834 50.8453 30.0965C50.5326 29.9508 50.074 29.7323 49.6362 29.4825C49.4381 29.368 49.2088 29.2223 49.2401 29.0246L49.2609 28.9205L49.0003 28.8789ZM52.1169 30.9603C51.7521 30.9499 51.6583 31.0123 50.4283 31.1268C50.4179 31.0123 50.4284 30.9082 50.4492 30.7313C50.4805 30.5232 50.5117 30.3983 50.5639 30.2734C51.8251 30.825 51.898 30.8666 52.1169 30.9186V30.9603Z" fill="#3BA6B3"/>
<path fill-rule="evenodd" clip-rule="evenodd" d="M51.5958 35.5705L49.0317 34.6859C48.6356 34.5506 47.9998 34.3217 48.0936 34.0511L48.1248 33.947L47.8955 33.8638L47.833 34.0511C47.8017 34.1343 47.8121 34.2176 47.8017 34.3009C47.7913 34.3945 47.76 34.4882 47.7392 34.5714C47.7079 34.6547 47.6766 34.7483 47.6245 34.8212C47.5828 34.894 47.5203 34.9565 47.4994 35.0397L47.4369 35.2167L47.6662 35.2999L47.6975 35.1958C47.7913 34.9044 48.4375 35.1542 48.8336 35.2895L51.3978 36.1741L51.2727 36.5487C51.2102 36.736 51.0642 37.1003 50.6056 36.9442C50.5848 36.9338 50.4701 36.9026 50.345 36.8297L50.2825 37.017C50.7515 37.2564 50.8245 37.3188 51.304 37.5166C51.4186 37.1003 51.5854 36.4343 51.7522 35.9555C51.8147 35.7682 51.9815 35.3103 52.0545 35.1542C52.1274 34.9773 52.1483 34.9461 52.3359 34.5506C52.0023 34.4153 51.8773 34.3425 51.3144 34.0719L51.2519 34.2488C51.8147 34.5922 51.8668 34.8836 51.7626 35.1854L51.5958 35.5705Z" fill="#3BA6B3"/>
<path fill-rule="evenodd" clip-rule="evenodd" d="M50.3034 39.2545L50.095 39.1296L50.0429 39.2233C49.8761 39.4834 49.407 39.1296 49.0943 38.9319L47.4683 37.9224C47.1869 37.7455 46.6553 37.4229 46.8116 37.1731L46.8637 37.0899L46.6553 36.965L46.6031 37.0587C46.4989 37.2148 46.4885 37.3084 46.4468 37.4125C46.3947 37.5686 46.3426 37.5998 46.2383 37.6935C46.1654 37.7559 46.1132 37.8288 46.0611 37.9016C45.9673 38.0161 45.8839 38.141 45.8005 38.2658C45.3002 39.0672 45.8214 39.6083 46.3009 39.8997C46.8012 40.2119 47.4891 40.2327 47.9582 39.4939C48.0311 39.369 48.0937 39.2441 48.1562 39.1192L48.7504 39.4834C49.1881 39.754 49.5738 39.9622 49.4175 40.2119L49.3653 40.3056L49.5738 40.4305L49.6676 40.2848C49.7093 40.2119 49.7406 40.1287 49.7719 40.0558C49.8136 39.9726 49.8448 39.8893 49.8969 39.8061C49.9491 39.7332 50.0116 39.65 50.0637 39.5875C50.1158 39.5251 50.1784 39.4626 50.2201 39.3898L50.3034 39.2545ZM47.979 38.9943C47.9582 39.036 47.9373 39.0776 47.9061 39.1192C47.6246 39.5667 47.1347 39.6187 46.5823 39.2753C46.0403 38.9423 45.9256 38.5156 46.0924 38.2554C46.2592 37.9849 46.4781 38.0473 46.8116 38.2658L47.979 38.9943ZM48.7191 41.7729L48.5106 41.6481L48.4585 41.7417C48.3022 42.0019 47.8331 41.6585 47.4787 41.4399L45.8631 40.4305C45.6025 40.2744 45.0813 39.9518 45.2377 39.7124L45.2898 39.6291L45.0813 39.5043L44.9875 39.6604C44.9458 39.7332 44.925 39.8165 44.9041 39.8893C44.8729 39.9726 44.8312 40.0558 44.779 40.1391C44.7269 40.2119 44.6748 40.2848 44.6123 40.3576C44.5497 40.4201 44.4872 40.4721 44.4455 40.5345L44.3517 40.6906L44.5602 40.8155L44.6123 40.7323C44.7478 40.5137 45.1856 40.7739 45.4983 40.9716L47.166 42.0123C47.4891 42.2204 48.0103 42.491 47.8435 42.7512L47.7914 42.8448L47.9999 42.9697L48.0937 42.824C48.1354 42.7512 48.1667 42.6679 48.1979 42.5951C48.2396 42.5118 48.2709 42.4286 48.323 42.3453C48.3751 42.2725 48.4377 42.1892 48.4898 42.1268C48.5419 42.0643 48.6044 42.0019 48.6461 41.929L48.7191 41.7729Z" fill="#3BA6B3"/>
</svg>
