<svg width="240" height="44" viewBox="0 0 240 44" fill="none" xmlns="http://www.w3.org/2000/svg">
<g filter="url(#filter0_d_704_7)">
<rect x="4" width="232" height="36" rx="3" fill="#3BA6B3"/>
<path d="M23.1666 13.8333L22 15L24.1666 17.1667H15.6666V18.8333H24.1666L22 21L23.1666 22.1667L27.3333 18L23.1666 13.8333ZM30.6666 23.8333H24V25.5H30.6666C31.5833 25.5 32.3333 24.75 32.3333 23.8333V12.1667C32.3333 11.25 31.5833 10.5 30.6666 10.5H24V12.1667H30.6666V23.8333Z" fill="white"/>
<path d="M44.302 23V13.116H47.76C48.6187 13.116 49.3093 13.34 49.832 13.788C50.364 14.236 50.63 14.852 50.63 15.636C50.63 16.112 50.518 16.5367 50.294 16.91C50.0793 17.2833 49.7807 17.568 49.398 17.764V17.792C49.9113 17.9413 50.3127 18.2353 50.602 18.674C50.8913 19.1127 51.036 19.6167 51.036 20.186C51.036 21.082 50.7327 21.7773 50.126 22.272C49.5193 22.7573 48.7587 23 47.844 23H44.302ZM45.688 17.274H47.76C48.1987 17.274 48.5487 17.134 48.81 16.854C49.0807 16.574 49.216 16.2147 49.216 15.776C49.216 15.3373 49.0853 14.9873 48.824 14.726C48.5627 14.4553 48.2033 14.32 47.746 14.32H45.688V17.274ZM45.688 21.796H47.914C48.4367 21.796 48.8473 21.642 49.146 21.334C49.454 21.026 49.608 20.6153 49.608 20.102C49.608 19.598 49.454 19.192 49.146 18.884C48.838 18.576 48.4273 18.422 47.914 18.422H45.688V21.796ZM51.8373 23L54.9453 17.904L52.0333 13.116H53.6153L55.1693 15.79L55.7853 16.938H55.8133C56.0093 16.5367 56.2146 16.154 56.4293 15.79L57.9973 13.116H59.5933L56.6533 17.904L59.7753 23H58.2213L56.4153 19.962L55.7993 18.828H55.7713C55.5753 19.22 55.3746 19.598 55.1693 19.962L53.3773 23H51.8373ZM60.3383 17.988C60.3383 16.5693 60.8283 15.3747 61.8083 14.404C62.7883 13.4333 63.9923 12.948 65.4203 12.948C66.8483 12.948 68.0477 13.4333 69.0183 14.404C69.9983 15.3747 70.4883 16.5693 70.4883 17.988C70.4883 19.444 69.9983 20.6713 69.0183 21.67C68.0477 22.6687 66.8483 23.168 65.4203 23.168C63.9923 23.168 62.7883 22.6687 61.8083 21.67C60.8283 20.6713 60.3383 19.444 60.3383 17.988ZM61.7663 17.988C61.7663 19.0893 62.121 20.018 62.8303 20.774C63.5397 21.5207 64.403 21.894 65.4203 21.894C66.4377 21.894 67.2963 21.5207 67.9963 20.774C68.7057 20.018 69.0603 19.0893 69.0603 17.988C69.0603 16.924 68.7057 16.028 67.9963 15.3C67.2963 14.572 66.4377 14.208 65.4203 14.208C64.403 14.208 63.5397 14.572 62.8303 15.3C62.121 16.028 61.7663 16.924 61.7663 17.988ZM73.3699 21.796H77.8639V14.32H74.7699V15.23C74.7699 18.1793 74.3033 20.368 73.3699 21.796ZM70.9199 21.796H71.9139C72.5299 20.928 72.9406 19.9387 73.1459 18.828C73.3606 17.7173 73.4679 16.49 73.4679 15.146V13.116H79.2499V21.796H80.3419V24.96H79.0959V23H72.2079V24.96H70.9199V21.796ZM85.7141 23V13.116H89.1721C90.0308 13.116 90.7214 13.34 91.2441 13.788C91.7761 14.236 92.0421 14.852 92.0421 15.636C92.0421 16.112 91.9301 16.5367 91.7061 16.91C91.4914 17.2833 91.1928 17.568 90.8101 17.764V17.792C91.3234 17.9413 91.7248 18.2353 92.0141 18.674C92.3034 19.1127 92.4481 19.6167 92.4481 20.186C92.4481 21.082 92.1448 21.7773 91.5381 22.272C90.9314 22.7573 90.1708 23 89.2561 23H85.7141ZM87.1001 17.274H89.1721C89.6108 17.274 89.9608 17.134 90.2221 16.854C90.4928 16.574 90.6281 16.2147 90.6281 15.776C90.6281 15.3373 90.4974 14.9873 90.2361 14.726C89.9748 14.4553 89.6154 14.32 89.1581 14.32H87.1001V17.274ZM87.1001 21.796H89.3261C89.8488 21.796 90.2594 21.642 90.5581 21.334C90.8661 21.026 91.0201 20.6153 91.0201 20.102C91.0201 19.598 90.8661 19.192 90.5581 18.884C90.2501 18.576 89.8394 18.422 89.3261 18.422H87.1001V21.796ZM96.8164 21.838C97.6284 21.726 98.2071 21.152 98.5524 20.116C98.8978 19.08 99.0704 17.526 99.0704 15.454V13.116H104.838V23H103.452V14.32H100.386V15.468C100.386 17.9693 100.116 19.85 99.5744 21.11C99.0424 22.37 98.1231 23.0373 96.8164 23.112V21.838ZM107.439 23V13.116H108.825V19.528L108.741 20.97H108.769C109.095 20.354 109.375 19.8687 109.609 19.514L113.991 13.116H115.349V23H113.977V16.588L114.061 15.146H114.033C113.715 15.7433 113.44 16.224 113.207 16.588L108.797 23H107.439ZM120.36 19.206C119.361 19.206 118.615 18.9587 118.12 18.464C117.625 17.9693 117.378 17.2553 117.378 16.322V13.116H118.778V16.028C118.778 16.6627 118.927 17.1433 119.226 17.47C119.525 17.7873 120.001 17.946 120.654 17.946C121.475 17.946 122.222 17.722 122.894 17.274V13.116H124.294V23H122.894V18.996L122.922 18.534H122.894C122.045 18.982 121.2 19.206 120.36 19.206ZM126.907 23V13.116H128.293V17.456H133.431V13.116H134.803V23H133.431V18.66H128.293V23H126.907ZM145.233 23V13.116H146.605V23H145.233ZM137.407 23V13.116H138.793V16.84H140.823C141.71 16.84 142.433 17.12 142.993 17.68C143.553 18.2307 143.833 18.9867 143.833 19.948C143.833 20.8627 143.558 21.6 143.007 22.16C142.466 22.72 141.761 23 140.893 23H137.407ZM138.793 21.796H140.669C141.22 21.796 141.649 21.6327 141.957 21.306C142.275 20.9793 142.433 20.5267 142.433 19.948C142.433 19.3693 142.27 18.9073 141.943 18.562C141.626 18.2167 141.192 18.044 140.641 18.044H138.793V21.796ZM153.224 12.654C152.655 12.654 152.165 12.4953 151.754 12.178C151.353 11.8513 151.152 11.4127 151.152 10.862V10.652H152.244V10.848C152.244 11.1373 152.342 11.366 152.538 11.534C152.734 11.6927 152.963 11.772 153.224 11.772C153.495 11.772 153.728 11.6927 153.924 11.534C154.12 11.366 154.218 11.1327 154.218 10.834V10.652H155.296V10.862C155.296 11.4127 155.095 11.8513 154.694 12.178C154.293 12.4953 153.803 12.654 153.224 12.654ZM149.22 23V13.116H150.606V19.528L150.522 20.97H150.55C150.877 20.354 151.157 19.8687 151.39 19.514L155.772 13.116H157.13V23H155.758V16.588L155.842 15.146H155.814C155.497 15.7433 155.221 16.224 154.988 16.588L150.578 23H149.22ZM163.247 23V13.116H164.633V17.274H166.103L168.609 13.116H170.135L167.251 17.806V17.834L170.317 23H168.735L166.103 18.478H164.633V23H163.247ZM170.755 23L174.297 13.116H175.767L179.309 23H177.881L176.887 20.158H173.163L172.169 23H170.755ZM173.527 19.01H176.523L175.431 15.888L175.039 14.474H175.011C174.871 15.0713 174.745 15.5427 174.633 15.888L173.527 19.01ZM180.816 23V13.116H186.654V14.32H182.202V17.078H184.372C185.258 17.078 185.982 17.344 186.542 17.876C187.102 18.3987 187.382 19.1267 187.382 20.06C187.382 20.9373 187.106 21.6467 186.556 22.188C186.014 22.7293 185.31 23 184.442 23H180.816ZM182.202 21.796H184.218C184.768 21.796 185.198 21.642 185.506 21.334C185.823 21.026 185.982 20.6013 185.982 20.06C185.982 19.5187 185.818 19.0893 185.492 18.772C185.174 18.4453 184.74 18.282 184.19 18.282H182.202V21.796ZM189.292 23V13.116H190.678V19.528L190.594 20.97H190.622C190.949 20.354 191.229 19.8687 191.462 19.514L195.844 13.116H197.202V23H195.83V16.588L195.914 15.146H195.886C195.569 15.7433 195.294 16.224 195.06 16.588L190.65 23H189.292ZM199.82 23V13.116H201.206V17.456H206.344V13.116H207.716V23H206.344V18.66H201.206V23H199.82ZM210.32 23V13.116H216.074V14.32H211.706V17.414H215.248V18.618H211.706V21.796H216.312V23H210.32ZM220.532 23V14.32H217.13V13.116H225.306V14.32H221.904V23H220.532Z" fill="white"/>
</g>
<defs>
<filter id="filter0_d_704_7" x="0" y="0" width="240" height="44" filterUnits="userSpaceOnUse" color-interpolation-filters="sRGB">
<feFlood flood-opacity="0" result="BackgroundImageFix"/>
<feColorMatrix in="SourceAlpha" type="matrix" values="0 0 0 0 0 0 0 0 0 0 0 0 0 0 0 0 0 0 127 0" result="hardAlpha"/>
<feOffset dy="4"/>
<feGaussianBlur stdDeviation="2"/>
<feComposite in2="hardAlpha" operator="out"/>
<feColorMatrix type="matrix" values="0 0 0 0 0 0 0 0 0 0 0 0 0 0 0 0 0 0 0.25 0"/>
<feBlend mode="normal" in2="BackgroundImageFix" result="effect1_dropShadow_704_7"/>
<feBlend mode="normal" in="SourceGraphic" in2="effect1_dropShadow_704_7" result="shape"/>
</filter>
</defs>
</svg>
