<svg width="206" height="182" viewBox="0 0 206 182" fill="none" xmlns="http://www.w3.org/2000/svg">
<path d="M153.619 13.9946C152.684 16.3664 152.134 18.8723 151.991 21.4175H145.424V21.2344C145.424 21.0662 145.458 20.8979 145.478 20.7396C145.559 19.8672 145.704 19.0021 145.914 18.1515C146.252 16.7517 146.742 15.3928 147.374 14.0985C147.384 14.0659 147.405 14.0379 147.434 14.0198C147.463 14.0016 147.498 13.9945 147.532 13.9996H153.629L153.619 13.9946Z" fill="#EBEBEB"/>
<path d="M153.42 30.5873H147.373C147.342 30.5909 147.311 30.5835 147.284 30.5663C147.258 30.5491 147.239 30.5233 147.23 30.4932C146.539 29.0396 146.04 27.5026 145.745 25.9207C145.599 25.1572 145.5 24.3854 145.448 23.6097C145.451 23.5834 145.451 23.5569 145.448 23.5306V23.3475H145.547H151.857C151.975 23.3475 151.97 23.3475 151.98 23.4662C152.02 23.9957 152.055 24.5252 152.104 25.0498C152.188 25.8822 152.323 26.7086 152.51 27.5241C152.726 28.533 153.014 29.5252 153.371 30.4932C153.401 30.518 153.406 30.5477 153.42 30.5873Z" fill="#EBEBEB"/>
<path d="M178.837 32.4974L178.787 32.5865C178.276 33.371 177.703 34.1139 177.075 34.8084C176.317 35.6634 175.475 36.4393 174.561 37.1244C172.803 38.4703 170.809 39.4772 168.682 40.0935C167.856 40.3324 167.015 40.5127 166.163 40.6329L165.916 40.6725H165.772L165.634 40.5834L165.792 40.4696C167.634 39.2142 169.247 37.6507 170.558 35.8476C171.299 34.8281 171.951 33.7471 172.507 32.6162C172.517 32.5858 172.538 32.5598 172.565 32.5426C172.592 32.5255 172.624 32.5183 172.656 32.5222H178.837V32.4974Z" fill="#EBEBEB"/>
<path d="M172.79 21.4126H164.303V13.9897H170.929C170.958 13.9862 170.988 13.9933 171.012 14.0096C171.037 14.0259 171.054 14.0504 171.063 14.0788C171.672 15.4743 172.125 16.9332 172.413 18.4286C172.565 19.2057 172.674 19.9903 172.74 20.7792C172.755 20.987 172.775 21.1849 172.79 21.4126Z" fill="#EBEBEB"/>
<path d="M172.74 23.397C172.74 23.5702 172.74 23.7434 172.715 23.8918C172.676 24.3075 172.651 24.7182 172.592 25.1339C172.512 25.6981 172.423 26.2671 172.31 26.8313C172.058 28.0706 171.69 29.2834 171.211 30.4537C171.204 30.4878 171.184 30.5179 171.156 30.5381C171.127 30.5583 171.092 30.567 171.058 30.5625H164.229V23.397H172.74Z" fill="#EBEBEB"/>
<path d="M162.388 14.0392V21.4621H154.099C154.099 21.2691 154.099 21.086 154.133 20.9029C154.178 20.4872 154.208 20.0715 154.277 19.6608C154.376 19.0273 154.485 18.3989 154.618 17.7754C154.897 16.5232 155.298 15.3016 155.816 14.1282C155.826 14.0991 155.846 14.0744 155.872 14.0581C155.898 14.0419 155.929 14.0352 155.959 14.0392H162.392H162.388Z" fill="#EBEBEB"/>
<path d="M162.397 23.491C162.397 25.8234 162.397 28.1526 162.397 30.4784V30.5873H155.771C155.739 30.5909 155.706 30.583 155.679 30.5649C155.652 30.5468 155.632 30.5196 155.623 30.4883C155.12 29.283 154.742 28.0294 154.495 26.7472C154.371 26.084 154.277 25.4209 154.193 24.7677C154.138 24.3322 154.128 23.8918 154.099 23.4514C154.099 23.4514 154.099 23.4514 154.099 23.4069H162.289C162.378 23.3871 162.397 23.4118 162.397 23.491Z" fill="#EBEBEB"/>
<path d="M181.796 21.467H174.838C174.697 18.9058 174.149 16.3834 173.215 13.9946H179.698C179.73 13.9895 179.763 13.9961 179.792 14.0133C179.82 14.0306 179.841 14.0573 179.851 14.0886C180.593 15.5492 181.132 17.1042 181.454 18.7106C181.625 19.5732 181.739 20.446 181.796 21.3235V21.467Z" fill="#EBEBEB"/>
<path d="M181.801 23.3376C181.801 23.5058 181.801 23.6691 181.776 23.8324C181.64 25.9197 181.138 27.9667 180.292 29.8796L179.995 30.5229C179.988 30.5447 179.974 30.5634 179.955 30.576C179.936 30.5887 179.914 30.5944 179.891 30.5922H173.408C173.487 30.3695 173.567 30.1567 173.641 29.939C174.287 28.0193 174.676 26.0226 174.799 24.0007C174.799 23.8027 174.824 23.6048 174.833 23.4019C174.833 23.3524 174.833 23.3227 174.903 23.3277C174.924 23.3302 174.946 23.3302 174.967 23.3277L181.801 23.3376Z" fill="#EBEBEB"/>
<path d="M178.649 12.0993V12.129H172.463C172.432 12.1327 172.401 12.1266 172.375 12.1114C172.348 12.0963 172.327 12.0729 172.314 12.0449C171.504 10.4289 170.49 8.9238 169.296 7.56641C168.589 6.78452 167.812 6.06894 166.975 5.42861C166.559 5.1119 166.129 4.81004 165.708 4.50322L165.639 4.45374L165.723 4.39435C165.723 4.35477 165.723 4.31518 165.678 4.26074C168.276 4.56006 170.779 5.41503 173.017 6.76758C175.255 8.12013 177.176 9.93855 178.649 12.0993Z" fill="#EBEBEB"/>
<path d="M161.21 40.5636C161.152 40.5812 161.092 40.5912 161.032 40.5933C160.365 40.5065 159.704 40.3776 159.053 40.2073C157.834 39.8972 156.651 39.4593 155.524 38.9009C154.234 38.2587 153.024 37.4646 151.922 36.5355C151.137 35.8818 150.413 35.1579 149.759 34.3729C149.269 33.779 148.818 33.1542 148.408 32.5024V32.4479H154.173C154.204 32.4461 154.235 32.4542 154.261 32.4711C154.287 32.4881 154.306 32.5129 154.317 32.542C155.422 34.8285 156.936 36.8932 158.785 38.6337C159.519 39.3218 160.305 39.9522 161.136 40.5191L161.21 40.5636Z" fill="#EBEBEB"/>
<path d="M161.136 4.44384C160.874 4.63188 160.572 4.84962 160.275 5.07231C159.289 5.84417 158.371 6.70019 157.533 7.63073C156.395 8.86728 155.425 10.2483 154.648 11.7381C154.599 11.8321 154.559 11.9311 154.505 12.0201C154.495 12.0357 154.482 12.0487 154.467 12.0582C154.451 12.0676 154.434 12.0733 154.416 12.0746H148.566C149.989 9.97354 151.837 8.19518 153.992 6.85498C156.146 5.51478 158.558 4.6427 161.072 4.29538L161.032 4.36961L161.136 4.44384Z" fill="#EBEBEB"/>
<path d="M170.256 32.5024C169.478 33.8758 168.538 35.1502 167.455 36.298C166.498 37.3258 165.423 38.2377 164.253 39.0147V32.5024H170.256Z" fill="#EBEBEB"/>
<path d="M162.388 32.5073V38.891C159.991 37.2463 158.016 35.0591 156.623 32.5073H162.388Z" fill="#EBEBEB"/>
<path d="M170.068 12.0696H164.303V5.98779C165.487 6.7583 166.573 7.66882 167.539 8.69962C168.495 9.73358 169.342 10.8628 170.068 12.0696Z" fill="#EBEBEB"/>
<path d="M162.388 6.17584V12.1142H156.851C158.207 9.72924 160.104 7.69543 162.388 6.17584Z" fill="#EBEBEB"/>
<path d="M124.843 39.6927L124.225 39.1038L124.442 38.8663L125.066 39.4601L124.843 39.6927Z" fill="#A6A6A6"/>
<path d="M122.017 73.7489V73.4273C122.596 73.4273 123.17 73.3778 123.724 73.3234L123.759 73.645C123.185 73.6995 122.601 73.7341 122.017 73.7489ZM119.85 73.7143C119.28 73.6797 118.701 73.6302 118.122 73.5609L118.157 73.2442C118.731 73.3085 119.305 73.363 119.864 73.3926L119.85 73.7143ZM125.892 73.3135L125.827 72.9968C126.392 72.8829 126.951 72.7345 127.48 72.5712L127.579 72.878C127.035 73.0462 126.471 73.1947 125.892 73.3135ZM115.995 73.2392C115.44 73.1353 114.871 73.0166 114.302 72.8829L114.376 72.5662C114.941 72.6998 115.505 72.8186 116.054 72.9225L115.995 73.2392ZM112.209 72.3287C111.665 72.1654 111.11 71.9922 110.561 71.8041L110.66 71.4973C111.209 71.6854 111.759 71.8586 112.298 72.0169L112.209 72.3287ZM129.618 72.0912L129.48 71.7992C129.991 71.5574 130.486 71.2848 130.964 70.9827L131.137 71.2548C130.638 71.5646 130.121 71.8439 129.588 72.0912H129.618ZM108.527 71.0619C107.998 70.854 107.458 70.6363 106.929 70.4037L107.057 70.1117C107.587 70.3394 108.121 70.5571 108.646 70.7649L108.527 71.0619ZM132.884 69.9336L132.666 69.696C133.087 69.3161 133.477 68.9041 133.834 68.4638L134.087 68.6667C133.712 69.1179 133.305 69.5413 132.869 69.9336H132.884ZM104.959 69.508C104.464 69.2655 103.935 69.0131 103.41 68.736L103.559 68.4539C104.078 68.7212 104.588 68.9488 105.098 69.221L104.959 69.508ZM101.495 67.7117C101 67.4296 100.506 67.1376 100.011 66.8457L100.174 66.5685C100.669 66.8605 101.164 67.1475 101.659 67.4345L101.495 67.7117ZM135.274 66.8555L134.992 66.7021C135.262 66.2046 135.492 65.6867 135.68 65.1532L135.987 65.2571C135.793 65.8074 135.556 66.3418 135.279 66.8555H135.274ZM98.1599 65.7025C97.665 65.3858 97.1949 65.0691 96.7248 64.7425L96.9079 64.4802C97.3763 64.8101 97.8514 65.1268 98.3331 65.4304L98.1599 65.7025ZM94.9631 63.4905C94.5028 63.1491 94.0426 62.8026 93.5874 62.4513L93.7853 62.1989C94.2356 62.5453 94.6958 62.8917 95.1561 63.2332L94.9631 63.4905ZM136.531 63.1491L136.215 63.0946C136.31 62.5348 136.369 61.9696 136.393 61.4022H136.714C136.693 61.9875 136.635 62.5709 136.541 63.1491H136.531ZM91.9098 61.1053C91.4644 60.7391 91.019 60.3679 90.5836 59.9918L90.7963 59.7444C91.2318 60.1205 91.6673 60.4917 92.1127 60.8529L91.9098 61.1053ZM136.333 59.2743C136.279 58.7201 136.2 58.151 136.091 57.5819L136.403 57.5225C136.516 58.1015 136.601 58.6805 136.655 59.2446L136.333 59.2743ZM88.9654 58.5666C88.5398 58.1807 88.1192 57.7897 87.6985 57.3988L87.9163 57.1662C88.3369 57.5571 88.7575 57.9431 89.1831 58.3242L88.9654 58.5666ZM86.1397 55.9192C85.724 55.5183 85.3133 55.1175 84.9075 54.7117L85.1302 54.4791L86.3624 55.6866L86.1397 55.9192ZM135.571 55.5084C135.408 54.9789 135.22 54.4346 135.007 53.8952L135.309 53.7764C135.522 54.3257 135.715 54.8799 135.878 55.4144L135.571 55.5084ZM83.3834 53.1826L82.1808 51.9454L82.4134 51.7227C82.8159 52.1384 83.2167 52.5492 83.6159 52.9549L83.3834 53.1826ZM134.156 51.9306C133.913 51.4357 133.661 50.9112 133.369 50.4064L133.651 50.2481C133.933 50.7429 134.2 51.2774 134.448 51.7871L134.156 51.9306ZM80.7111 50.3965L79.5185 49.1495L79.7511 48.9268L80.9437 50.1738L80.7111 50.3965ZM132.295 48.5655C131.993 48.0707 131.672 47.6105 131.34 47.1354L131.602 46.9523C131.939 47.4472 132.266 47.942 132.567 48.3923L132.295 48.5655ZM78.0339 47.5758L76.8462 46.3288L77.0788 46.1061L78.2665 47.3581L78.0339 47.5758ZM130.044 45.4331C129.702 44.9877 129.336 44.5423 128.965 44.097L129.212 43.8891C129.588 44.3345 129.955 44.7898 130.301 45.2351L130.044 45.4331ZM75.3419 44.8046L74.1443 43.5675L74.3719 43.3398L75.5745 44.5819L75.3419 44.8046ZM127.55 42.4788C127.169 42.0631 126.778 41.6474 126.372 41.2317L126.619 40.9793C127.032 41.3983 127.428 41.8189 127.807 42.2412L127.55 42.4788ZM72.6202 42.0284L71.4077 40.8111L71.6304 40.5834L72.8527 41.8008L72.6202 42.0284ZM69.8687 39.3018C69.4629 38.9059 69.0473 38.51 68.6266 38.1091L68.8493 37.8766C69.2699 38.2725 69.6856 38.6733 70.0964 39.0692L69.8687 39.3018ZM67.0579 36.6394C66.6373 36.2534 66.2167 35.8674 65.7861 35.4814L65.9989 35.239L67.2757 36.4019L67.0579 36.6394ZM64.1877 34.0513C63.7572 33.6752 63.3217 33.3041 62.8813 32.9329L63.0891 32.6855C63.5345 33.0616 63.97 33.4327 64.4005 33.8088L64.1877 34.0513ZM61.2186 31.577L59.8726 30.4982L60.0755 30.2458C60.5307 30.6071 60.9761 30.9683 61.4215 31.3296L61.2186 31.577ZM58.1752 29.1819C57.7249 28.8355 57.2647 28.494 56.7995 28.1476L56.9875 27.8903C57.4576 28.2367 57.9179 28.5781 58.3682 28.9245L58.1752 29.1819ZM55.0526 26.8907C54.5924 26.5641 54.1223 26.2325 53.6423 25.901L53.8254 25.6337C54.3202 25.9653 54.7755 26.2919 55.2407 26.6235L55.0526 26.8907ZM51.8558 24.7083C51.3857 24.3916 50.9008 24.0799 50.4158 23.7681L50.589 23.5009C51.0839 23.8126 51.5787 24.1244 52.034 24.4362L51.8558 24.7083ZM48.5898 22.6299C48.0949 22.333 47.6 22.0361 47.1052 21.7441L47.2685 21.467C47.7633 21.759 48.2582 22.0559 48.7531 22.3578L48.5898 22.6299ZM45.2544 20.6505L43.7698 19.8142L43.9232 19.5272L45.4326 20.3734L45.2544 20.6505ZM41.8597 18.7898C41.3648 18.5226 40.8699 18.2603 40.3355 17.9931L40.479 17.7061L42.0131 18.5028L41.8597 18.7898ZM38.3956 17.0281C37.9008 16.7807 37.3713 16.5333 36.8467 16.2809L36.9853 15.9889C37.5098 16.2363 38.0294 16.4838 38.5392 16.7411L38.3956 17.0281ZM34.9217 15.3456L33.353 14.633L33.4866 14.341C34.0161 14.5786 34.5407 14.8359 35.0553 15.0487L34.9217 15.3456ZM31.3785 13.762L29.79 13.094L29.9138 12.7971L31.5072 13.4651L31.3785 13.762Z" fill="#A6A6A6"/>
<path d="M27.6972 12.2775L26.8955 11.9608L27.0143 11.6589L27.8159 11.9756L27.6972 12.2775Z" fill="#A6A6A6"/>
<path d="M28.7165 6.11647L31.557 13.9155L25.594 9.25883L2.80566 0.994675L28.7165 6.11647Z" fill="#DBDBDB"/>
<path d="M24.832 11.075L31.5572 13.9154L25.5941 9.25882L24.832 11.075Z" fill="#C7C7C7"/>
<path d="M25.594 9.25883L2.80566 0.994675L21.4965 19.2352L25.594 9.25883Z" fill="#EBEBEB"/>
<path d="M28.7165 6.11647L38.1881 0L2.80566 0.994669L28.7165 6.11647Z" fill="#EBEBEB"/>
<path d="M39.5241 168.158L39.4202 168.119L38.866 167.901L38.9798 167.604L39.539 167.827L40.5287 168.213L40.4149 168.51L39.5241 168.158ZM36.9162 167.104C36.3867 166.886 35.8721 166.669 35.3624 166.446L35.491 166.159L37.035 166.817L36.9162 167.104ZM42.4042 169.247L42.5131 168.95L44.0966 169.514L43.9927 169.811L42.4042 169.247ZM45.9821 170.499L46.081 170.202L47.6794 170.732L47.5804 171.033L45.9821 170.499ZM33.4423 165.59C32.9227 165.352 32.413 165.095 31.9181 164.872L32.0517 164.59C32.5466 164.828 33.0415 165.085 33.571 165.303L33.4423 165.59ZM49.5846 171.677L49.6787 171.375L51.282 171.87L51.1929 172.172L49.5846 171.677ZM30.0278 163.932C29.5329 163.675 29.0381 163.413 28.5432 163.15L28.6966 162.868C29.1783 163.132 29.6731 163.394 30.1812 163.655L30.0278 163.932ZM53.207 172.785L53.2961 172.478L54.9093 172.973L54.8202 173.275L53.207 172.785ZM26.7023 162.116C26.2075 161.829 25.7126 161.537 25.2573 161.245L25.4256 160.978C25.8907 161.27 26.3708 161.557 26.8607 161.844L26.7023 162.116ZM56.8442 173.81L56.9333 173.508L58.5515 173.953L58.4674 174.26L56.8442 173.81ZM60.5012 174.799L60.5804 174.497L61.006 174.606L62.2085 174.913L62.1343 175.22L60.9268 174.913L60.5012 174.799ZM23.4907 160.077C23.0206 159.756 22.5554 159.429 22.11 159.087L22.2931 158.835C22.7385 159.157 23.1987 159.483 23.6639 159.8L23.4907 160.077ZM64.1879 175.69L64.2572 175.383C64.8016 175.502 65.3509 175.611 65.9051 175.72L65.8457 176.027C65.3063 175.928 64.762 175.814 64.2028 175.695L64.1879 175.69ZM67.9192 176.398L67.9736 176.086C68.5229 176.18 69.0771 176.269 69.6314 176.348L69.5869 176.66C69.0425 176.571 68.4883 176.497 67.934 176.403L67.9192 176.398ZM20.4374 157.821C19.9871 157.454 19.5516 157.088 19.1458 156.727L19.3586 156.494C19.7594 156.851 20.19 157.212 20.6353 157.573L20.4374 157.821ZM71.69 176.947L71.7247 176.635C72.2838 176.704 72.8381 176.764 73.3923 176.823L73.3626 177.14C72.8034 177.066 72.2443 177.016 71.69 176.947ZM17.6266 155.292C17.2258 154.886 16.8348 154.475 16.4686 154.06L16.7062 153.852C17.0674 154.258 17.4534 154.668 17.8493 155.074L17.6266 155.292ZM75.4559 177.348V177.031C76.0151 177.081 76.5693 177.125 77.1285 177.16V177.476C76.5743 177.427 76.0151 177.387 75.4559 177.338V177.348ZM79.2317 177.6V177.283L80.9092 177.358V177.669L79.2317 177.6ZM15.1325 152.417C14.791 151.962 14.4644 151.496 14.1428 151.031L14.4051 150.858C14.702 151.318 15.0236 151.778 15.3651 152.224L15.1325 152.417ZM83.0272 177.714V177.402H84.7048V177.719L83.0272 177.714ZM13.0887 149.205C12.8265 148.71 12.5939 148.191 12.3613 147.676L12.6532 147.552C12.871 148.047 13.1135 148.567 13.3708 149.037L13.0887 149.205ZM86.8228 177.724V177.407C87.387 177.407 87.9462 177.407 88.5053 177.378V177.694C87.9462 177.704 87.382 177.719 86.8179 177.724H86.8228ZM90.6134 177.625V177.308L92.296 177.229V177.546L90.6134 177.625ZM11.6239 145.692C11.4548 145.146 11.3339 144.586 11.2627 144.019L11.5794 143.984C11.6461 144.531 11.7621 145.071 11.9258 145.598L11.6239 145.692ZM94.3942 177.422V177.105L96.0717 176.987V177.298L94.3942 177.422ZM98.1749 177.12L98.1452 176.808L99.8228 176.645L99.8525 176.957C99.3048 177.029 98.7456 177.084 98.1749 177.12ZM11.3171 141.876C11.3879 141.497 11.4956 141.126 11.6388 140.768C11.7061 140.599 11.782 140.434 11.8664 140.273L12.1485 140.411C12.0693 140.57 11.9951 140.738 11.9308 140.906C11.7964 141.249 11.6937 141.604 11.6239 141.965L11.3171 141.876ZM101.931 176.729L101.891 176.417L103.564 176.215L103.604 176.526L101.931 176.729ZM105.692 176.234L105.647 175.923C106.221 175.843 106.776 175.764 107.315 175.68L107.359 175.992C106.825 176.076 106.286 176.17 105.712 176.249L105.692 176.234ZM13.3411 138.714L13.1085 138.501C13.4969 138.083 13.9208 137.699 14.3754 137.353L14.5634 137.606C14.1247 137.939 13.7157 138.31 13.3411 138.714ZM109.463 175.685L109.413 175.373L111.071 175.091L111.125 175.403L109.463 175.685ZM113.204 175.027L113.144 174.715C113.738 174.601 114.292 174.497 114.797 174.394L114.862 174.705L113.204 175.027ZM16.3103 136.487L16.1618 136.215C16.6587 135.942 17.1691 135.694 17.6909 135.473L17.8146 135.765C17.2851 135.992 16.7606 136.23 16.3103 136.487ZM116.925 174.275L116.856 173.963C117.925 173.73 118.499 173.587 118.504 173.582L118.578 173.889C118.578 173.889 117.999 174.032 116.925 174.27V174.275ZM19.7693 135.003L19.6704 134.706C20.1652 134.533 20.7294 134.369 21.2886 134.211L21.3727 134.518C20.8184 134.686 20.279 134.849 19.7693 135.003ZM23.4115 134.013L23.3472 133.706C23.8866 133.592 24.4458 133.488 25.0099 133.394L25.0594 133.706C24.5002 133.83 23.946 133.934 23.4115 134.048V134.013ZM27.1378 133.404L27.0982 133.093C27.6574 133.023 28.2215 132.964 28.7807 132.914L28.8055 133.231C28.2512 133.31 27.692 133.37 27.1526 133.439L27.1378 133.404ZM30.8987 133.093V132.776C31.4678 132.751 32.0369 132.736 32.5912 132.731V133.048C32.032 133.088 31.4678 133.102 30.8987 133.127V133.093Z" fill="#A6A6A6"/>
<path d="M123.483 167.812L118.544 173.73L125.22 171.543L147.746 171.499L123.483 167.812Z" fill="#DBDBDB"/>
<path d="M125.314 173.369L118.544 173.73L125.22 171.543L125.314 173.369Z" fill="#C7C7C7"/>
<path d="M125.219 171.543L147.745 171.499L125.654 181.554L125.219 171.543Z" fill="#EBEBEB"/>
<path d="M123.482 167.812L117.128 159.478L147.745 171.499L123.482 167.812Z" fill="#EBEBEB"/>
<path d="M168.124 27.0936H0V157.266H168.124V27.0936Z" fill="#C7C7C7"/>
<path d="M168.124 157.266H0V22.9318H131.539L168.124 55.6024V157.266Z" fill="#EBEBEB"/>
<path d="M48.12 46.2051V59.6158H45.1162V40.5686H47.4767L58.3636 54.3059V40.5933H61.3971V59.6158H58.9228L48.12 46.2051Z" fill="#3BA6B3"/>
<path d="M78.7616 56.9633V59.6158H65.6973V40.5686H78.5191V43.226H68.7209V48.6695H77.2275V51.1438H68.7209V56.9633H78.7616Z" fill="#3BA6B3"/>
<path d="M88.6346 40.6478H91.485L93.8207 47.1156L96.1812 40.6478H98.997L95.7507 49.1297L98.5961 56.1319L104.534 40.5686H107.815L99.952 59.6158H97.3788L93.8356 51.0844L90.2677 59.6158H87.6944L79.8311 40.5686H83.1021L89.0404 56.1319L91.8858 49.1297L88.6346 40.6478Z" fill="#3BA6B3"/>
<path d="M120.889 45.0471C120.653 44.8083 120.391 44.5974 120.107 44.4186C119.73 44.1734 119.33 43.963 118.915 43.7901C118.436 43.5792 117.939 43.4136 117.43 43.2953C116.881 43.1703 116.32 43.1073 115.757 43.1072C114.484 43.1072 113.549 43.3398 112.952 43.805C112.658 44.0309 112.422 44.3241 112.266 44.66C112.109 44.9959 112.035 45.3646 112.051 45.7349C112.034 46.1351 112.132 46.5317 112.333 46.8781C112.557 47.2028 112.856 47.4692 113.204 47.655C113.674 47.9088 114.172 48.1065 114.688 48.2439C115.279 48.4187 115.967 48.6018 116.752 48.7932C117.639 49.0027 118.513 49.2638 119.37 49.5751C120.078 49.8215 120.746 50.1735 121.349 50.6192C121.879 51.0181 122.306 51.5371 122.596 52.1335C122.911 52.8187 123.063 53.5671 123.042 54.3208C123.065 55.1861 122.876 56.044 122.492 56.8198C122.143 57.4992 121.633 58.0835 121.008 58.5221C120.337 58.979 119.587 59.3063 118.796 59.4871C117.908 59.6986 116.997 59.8016 116.084 59.7939C114.66 59.7976 113.243 59.5772 111.888 59.1407C110.565 58.7166 109.326 58.067 108.226 57.2206L109.591 54.6424C109.895 54.9343 110.227 55.1962 110.581 55.4243C111.067 55.7317 111.579 55.9966 112.11 56.2161C112.726 56.4662 113.36 56.6713 114.006 56.8297C114.698 57.0038 115.41 57.0902 116.124 57.087C117.076 57.1417 118.024 56.9273 118.86 56.4685C119.17 56.2784 119.423 56.0086 119.592 55.6874C119.762 55.3662 119.842 55.0053 119.825 54.6424C119.839 54.2113 119.713 53.7873 119.464 53.435C119.186 53.0815 118.832 52.7942 118.43 52.5937C117.908 52.3211 117.361 52.1006 116.797 51.9355C116.148 51.7376 115.416 51.5298 114.594 51.317C113.755 51.1017 112.929 50.8373 112.12 50.5252C111.485 50.2914 110.892 49.9573 110.363 49.5355C109.913 49.1585 109.552 48.6871 109.304 48.1548C109.048 47.5482 108.924 46.8933 108.943 46.2348C108.929 45.3799 109.112 44.5333 109.478 43.7605C109.831 43.0505 110.338 42.4283 110.962 41.9394C111.611 41.4284 112.354 41.0501 113.149 40.8259C114.038 40.5676 114.96 40.4409 115.886 40.4498C117.103 40.437 118.312 40.6449 119.454 41.0635C120.476 41.4417 121.442 41.9578 122.324 42.5975L120.889 45.0471Z" fill="#3BA6B3"/>
<path d="M144.914 34.8728H7.5166V31.2504H140.857L144.914 34.8728Z" fill="#C7C7C7"/>
<path d="M139.788 30.3003H7.5166V29.5778H138.986L139.788 30.3003Z" fill="#C7C7C7"/>
<path d="M147.23 36.9413H7.5166V36.2237H146.424L147.23 36.9413Z" fill="#C7C7C7"/>
<path d="M160.611 64.0893H7.5166V67.7067H160.611V64.0893Z" fill="#C7C7C7"/>
<path d="M160.611 62.4216H7.5166V63.1391H160.611V62.4216Z" fill="#C7C7C7"/>
<path d="M160.611 69.0676H7.5166V69.7802H160.611V69.0676Z" fill="#C7C7C7"/>
<path d="M34.4618 40.5686H7.51172V59.6207H34.4618V40.5686Z" fill="#C7C7C7"/>
<path d="M160.607 48.8872V59.6157H133.662V40.5735H151.299L160.607 48.8872Z" fill="#C7C7C7"/>
<path d="M52.3763 130.95H115.748V82.2556H52.3763L52.3763 130.95Z" fill="#3BA6B3"/>
<path opacity="0.2" d="M59.1857 93.672C58.9527 94.8594 59.1074 96.0903 59.627 97.1832C60.1465 98.276 61.0034 99.1731 62.0713 99.7421C63.1392 100.311 64.3617 100.522 65.5586 100.344C66.7555 100.165 67.8634 99.6072 68.719 98.7516C69.5747 97.8959 70.1328 96.788 70.3111 95.5912C70.4895 94.3943 70.2786 93.1718 69.7096 92.1039C69.1405 91.0359 68.2435 90.1791 67.1506 89.6595C66.0577 89.14 64.8269 88.9853 63.6394 89.2183C62.5392 89.4355 61.5283 89.9748 60.7353 90.7679C59.9423 91.5609 59.4029 92.5717 59.1857 93.672Z" fill="black"/>
<path opacity="0.2" d="M69.9482 120.672H115.748L92.8454 94.9933L69.9482 120.672Z" fill="black"/>
<path d="M52.376 120.696H90.1882L71.2796 103.97L52.376 120.696Z" fill="#3BA6B3"/>
<path opacity="0.3" d="M52.376 120.696H90.1882L71.2796 103.97L52.376 120.696Z" fill="black"/>
<path d="M115.748 120.672H52.376V130.95H115.748V120.672Z" fill="#3BA6B3"/>
<path opacity="0.3" d="M115.748 120.672H52.376V130.95H115.748V120.672Z" fill="black"/>
<path d="M103.109 74.1992H52.376V75.8966H103.109V74.1992Z" fill="#A6A6A6"/>
<path d="M88.669 77.881H52.376V79.5784H88.669V77.881Z" fill="#A6A6A6"/>
<path d="M45.116 74.2289H7.5166V75.9263H45.116V74.2289Z" fill="#A6A6A6"/>
<path d="M45.0867 82.2506H7.4873V83.948H45.0867V82.2506Z" fill="#DBDBDB"/>
<path d="M45.0867 85.4177H7.4873V87.1151H45.0867V85.4177Z" fill="#DBDBDB"/>
<path d="M45.0867 88.5848H7.4873V90.2822H45.0867V88.5848Z" fill="#DBDBDB"/>
<path d="M45.0867 91.752H7.4873V93.4493H45.0867V91.752Z" fill="#DBDBDB"/>
<path d="M45.0867 94.919H7.4873V96.6164H45.0867V94.919Z" fill="#DBDBDB"/>
<path d="M45.0867 98.0812H7.4873V99.7786H45.0867V98.0812Z" fill="#DBDBDB"/>
<path d="M45.0867 101.248H7.4873V102.946H45.0867V101.248Z" fill="#DBDBDB"/>
<path d="M45.0867 104.415H7.4873V106.113H45.0867V104.415Z" fill="#DBDBDB"/>
<path d="M29.5086 107.582H7.4873V109.28H29.5086V107.582Z" fill="#DBDBDB"/>
<path d="M45.0867 113.917H7.4873V115.614H45.0867V113.917Z" fill="#DBDBDB"/>
<path d="M45.0867 117.084H7.4873V118.781H45.0867V117.084Z" fill="#DBDBDB"/>
<path d="M45.0867 120.246H7.4873V121.943H45.0867V120.246Z" fill="#DBDBDB"/>
<path d="M45.0867 123.413H7.4873V125.11H45.0867V123.413Z" fill="#DBDBDB"/>
<path d="M29.5086 126.58H7.4873V128.278H29.5086V126.58Z" fill="#DBDBDB"/>
<path d="M34.4172 77.9107H7.5166V79.6081H34.4172V77.9107Z" fill="#A6A6A6"/>
<path d="M160.606 74.2289H123.007V75.9263H160.606V74.2289Z" fill="#A6A6A6"/>
<path d="M160.577 82.2506H122.978V83.948H160.577V82.2506Z" fill="#DBDBDB"/>
<path d="M160.577 85.4177H122.978V87.1151H160.577V85.4177Z" fill="#DBDBDB"/>
<path d="M160.577 88.5848H122.978V90.2822H160.577V88.5848Z" fill="#DBDBDB"/>
<path d="M145.147 91.752H122.978V93.4493H145.147V91.752Z" fill="#DBDBDB"/>
<path d="M160.577 98.0812H122.978V99.7786H160.577V98.0812Z" fill="#DBDBDB"/>
<path d="M160.577 101.248H122.978V102.946H160.577V101.248Z" fill="#DBDBDB"/>
<path d="M160.577 104.415H122.978V106.113H160.577V104.415Z" fill="#DBDBDB"/>
<path d="M160.577 107.582H122.978V109.28H160.577V107.582Z" fill="#DBDBDB"/>
<path d="M145.147 110.75H122.978V112.447H145.147V110.75Z" fill="#DBDBDB"/>
<path d="M160.577 117.084H122.978V118.781H160.577V117.084Z" fill="#DBDBDB"/>
<path d="M160.577 120.246H122.978V121.943H160.577V120.246Z" fill="#DBDBDB"/>
<path d="M160.577 123.413H122.978V125.11H160.577V123.413Z" fill="#DBDBDB"/>
<path d="M160.577 126.58H122.978V128.278H160.577V126.58Z" fill="#DBDBDB"/>
<path d="M145.147 129.747H122.978V131.445H145.147V129.747Z" fill="#DBDBDB"/>
<path d="M149.907 77.9107H123.007V79.6081H149.907V77.9107Z" fill="#A6A6A6"/>
<path d="M45.116 136.299H7.5166V137.997H45.116V136.299Z" fill="#A6A6A6"/>
<path d="M45.0867 144.326H7.4873V146.023H45.0867V144.326Z" fill="#DBDBDB"/>
<path d="M45.0867 147.493H7.4873V149.19H45.0867V147.493Z" fill="#DBDBDB"/>
<path d="M45.0867 150.655H7.4873V152.352H45.0867V150.655Z" fill="#DBDBDB"/>
<path d="M45.0867 153.822H7.4873V155.52H45.0867V153.822Z" fill="#DBDBDB"/>
<path d="M34.4172 139.986H7.5166V141.683H34.4172V139.986Z" fill="#A6A6A6"/>
<path d="M115.748 136.299H52.5146V137.997H115.748V136.299Z" fill="#A6A6A6"/>
<path d="M115.698 144.326H52.4648V146.023H115.698V144.326Z" fill="#DBDBDB"/>
<path d="M115.698 147.493H52.4648V149.19H115.698V147.493Z" fill="#DBDBDB"/>
<path d="M115.698 150.655H52.4648V152.352H115.698V150.655Z" fill="#DBDBDB"/>
<path d="M115.698 153.822H52.4648V155.52H115.698V153.822Z" fill="#DBDBDB"/>
<path d="M97.7498 139.986H52.5146V141.683H97.7498V139.986Z" fill="#A6A6A6"/>
<path d="M160.606 136.299H123.007V137.997H160.606V136.299Z" fill="#A6A6A6"/>
<path d="M160.577 144.326H122.978V146.023H160.577V144.326Z" fill="#DBDBDB"/>
<path d="M160.577 147.493H122.978V149.19H160.577V147.493Z" fill="#DBDBDB"/>
<path d="M160.577 150.655H122.978V152.352H160.577V150.655Z" fill="#DBDBDB"/>
<path d="M145.147 153.822H122.978V155.52H145.147V153.822Z" fill="#DBDBDB"/>
<path d="M149.907 139.986H123.007V141.683H149.907V139.986Z" fill="#A6A6A6"/>
<path d="M131.539 22.9318L132.474 55.7806L168.124 55.6024L131.539 22.9318Z" fill="#DBDBDB"/>
<path d="M189.647 149.637L193.715 145.975L172.344 122.24L168.277 125.902L189.647 149.637Z" fill="#C7C7C7"/>
<path d="M199.469 162.638L205.62 157.1L190.695 140.523L184.544 146.06L199.469 162.638Z" fill="#263238"/>
<path d="M149.849 131.165C145.011 130.209 140.564 127.841 137.072 124.359C133.58 120.877 131.199 116.437 130.23 111.602C129.26 106.767 129.747 101.753 131.627 97.1936C133.507 92.6346 136.697 88.7355 140.793 85.9893C144.889 83.2431 149.708 81.7731 154.639 81.7652C159.571 81.7573 164.394 83.2119 168.499 85.945C172.604 88.678 175.806 92.5669 177.701 97.1199C179.596 101.673 180.098 106.685 179.144 111.524C177.859 118.011 174.052 123.722 168.559 127.405C163.067 131.087 156.337 132.439 149.849 131.165ZM150.403 128.364C154.687 129.209 159.127 128.765 163.159 127.087C167.191 125.41 170.635 122.574 173.056 118.939C175.476 115.304 176.764 111.033 176.757 106.666C176.751 102.299 175.449 98.0316 173.017 94.4043C170.585 90.777 167.132 87.9523 163.094 86.2875C159.057 84.6227 154.616 84.1926 150.334 85.0514C146.052 85.9103 142.121 88.0197 139.038 91.1127C135.955 94.2058 133.859 98.1436 133.014 102.428C131.887 108.173 133.086 114.13 136.346 118.992C139.605 123.854 144.661 127.224 150.403 128.364Z" fill="#37474F"/>
<path d="M179.62 100.568C181.179 106.831 180.335 113.452 177.252 119.124C174.17 124.795 169.073 129.105 162.969 131.203C156.864 133.301 150.195 133.035 144.277 130.457C138.36 127.879 133.623 123.176 131.002 117.277C128.382 111.378 128.067 104.711 130.121 98.5916C132.175 92.4722 136.449 87.3449 142.098 84.2216C147.747 81.0983 154.361 80.2058 160.636 81.7203C166.911 83.2348 172.39 87.0462 175.992 92.4024C177.671 94.8902 178.899 97.6541 179.62 100.568ZM131.173 112.474C132.593 118.266 136.102 123.33 141.027 126.694C145.951 130.058 151.944 131.486 157.856 130.703C163.768 129.921 169.183 126.983 173.063 122.453C176.942 117.924 179.013 112.122 178.877 106.159C178.742 100.197 176.41 94.4949 172.329 90.1462C168.248 85.7975 162.705 83.1086 156.763 82.5953C150.822 82.082 144.9 83.7804 140.133 87.3647C135.367 90.949 132.091 96.1669 130.935 102.018C130.252 105.479 130.333 109.047 131.173 112.474ZM176.844 101.251C177.757 104.976 177.717 108.872 176.728 112.578C175.738 116.285 173.831 119.682 171.181 122.456C168.532 125.231 165.227 127.293 161.57 128.453C157.913 129.612 154.024 129.832 150.26 129.091C146.576 128.368 143.127 126.746 140.22 124.371C137.312 121.995 135.036 118.939 133.592 115.474C132.148 112.008 131.581 108.239 131.942 104.502C132.303 100.765 133.58 97.1749 135.661 94.0496C137.741 90.9243 140.561 88.3605 143.869 86.5854C147.177 84.8104 150.873 83.8789 154.627 83.8736C158.382 83.8683 162.079 84.7893 165.393 86.555C168.706 88.3206 171.533 90.8765 173.622 93.9959C175.11 96.2084 176.2 98.6634 176.844 101.251ZM150.547 127.632C155.396 128.594 160.428 127.845 164.787 125.512C169.146 123.179 172.56 119.407 174.449 114.838C176.337 110.269 176.583 105.187 175.143 100.458C173.704 95.7281 170.669 91.6442 166.556 88.902C162.442 86.1598 157.505 84.929 152.586 85.4195C147.667 85.9099 143.07 88.0913 139.579 91.5917C136.088 95.0921 133.919 99.6949 133.442 104.615C132.965 109.536 134.209 114.47 136.963 118.576C140.113 123.274 144.998 126.53 150.547 127.632Z" fill="#37474F"/>
<g opacity="0.2">
<path opacity="0.2" d="M133.489 105.59C133.27 109.78 134.299 113.941 136.445 117.546C138.591 121.151 141.758 124.039 145.545 125.844C149.332 127.65 153.57 128.292 157.722 127.689C161.874 127.087 165.754 125.266 168.871 122.459C171.989 119.651 174.204 115.982 175.237 111.916C176.269 107.849 176.073 103.568 174.672 99.613C173.272 95.6581 170.73 92.2073 167.369 89.6969C164.007 87.1864 159.977 85.7291 155.787 85.509C153.004 85.3629 150.22 85.7665 147.593 86.6967C144.966 87.6269 142.548 89.0655 140.478 90.9303C138.407 92.7951 136.724 95.0497 135.525 97.5651C134.326 100.081 133.634 102.808 133.489 105.59Z" fill="white"/>
<path opacity="0.2" d="M134.023 111.568C135.31 117.013 138.693 121.73 143.437 124.694C148.181 127.659 153.903 128.633 159.36 127.404L134.023 111.568Z" fill="#EBEBEB"/>
<path opacity="0.2" d="M140.278 91.096L174.988 112.776C175.467 111.166 175.755 109.505 175.844 107.827C175.949 105.897 175.782 103.961 175.349 102.077L149.725 86.0682C146.198 86.9089 142.946 88.64 140.278 91.096Z" fill="#EBEBEB"/>
<path opacity="0.2" d="M133.707 103.482L166.769 124.133C167.911 123.339 168.973 122.436 169.941 121.436L134.736 99.4443C134.257 100.752 133.912 102.105 133.707 103.482Z" fill="#EBEBEB"/>
<path opacity="0.2" d="M138.299 93.2091L173.978 115.478C174.087 115.245 174.191 114.983 174.29 114.77L138.794 92.6252C138.635 92.8033 138.462 93.0062 138.299 93.2091Z" fill="#EBEBEB"/>
<path opacity="0.2" d="M156.852 85.5932L172.687 95.4904C172.356 94.951 171.989 94.4264 171.608 93.9167L158.742 85.8703C158.094 85.7466 157.485 85.6526 156.852 85.5932Z" fill="#EBEBEB"/>
</g>
<path d="M150.422 123.292C148.142 122.78 145.991 121.805 144.103 120.426C143.141 119.74 142.25 118.961 141.441 118.101C140.637 117.226 139.916 116.279 139.288 115.27C138.065 113.227 137.288 110.949 137.007 108.584C136.738 106.263 136.914 103.912 137.526 101.656C137.502 103.915 137.711 106.171 138.15 108.386C138.386 109.466 138.707 110.525 139.11 111.554C139.497 112.578 139.983 113.562 140.56 114.493C141.709 116.378 143.145 118.073 144.816 119.516C146.528 120.993 148.41 122.261 150.422 123.292Z" fill="white"/>
</svg>
