<svg width="1043" height="718" viewBox="0 0 1043 718" fill="none" xmlns="http://www.w3.org/2000/svg">
<path d="M0 0H1043V718H0V0Z" fill="#3BA6B3" fill-opacity="0.1"/>
<path d="M430.88 363.502C434.34 385.311 433.309 390 429.923 398.857C429.702 399.453 432.058 401.462 432.941 399.229C435.665 392.084 435.665 392.01 436.107 385.757C436.549 377.868 430.732 362.907 430.88 363.502ZM572.389 356.208C572.536 355.538 562.671 376.9 563.26 385.534C563.775 392.382 563.48 394.466 566.794 402.207C567.824 404.663 570.696 402.43 570.475 401.76C565.836 386.502 565.1 385.608 572.389 356.208ZM587.924 358.292C588.072 357.622 581.077 374.89 581.666 383.524C582.181 390.372 581.961 389.33 585.274 397.071C586.305 399.527 589.323 397.443 589.029 396.848C584.979 387.172 583.728 382.11 587.924 358.292ZM605.226 361.79C605.3 361.269 599.336 374.369 599.852 381.291C600.294 386.799 600.294 386.874 603.091 393.052C603.975 394.987 606.405 393.275 606.184 392.754C602.723 385.087 601.619 380.919 605.226 361.79ZM490.37 348.839C489.265 347.351 487.498 345.788 488.382 347.574C490.664 352.487 493.388 354.868 497.511 355.762C502.371 356.804 506.273 353.678 508.776 348.244C509.586 346.383 504.8 352.71 498.837 352.561C495.229 352.487 492.578 351.742 490.37 348.839ZM490.811 371.094C489.707 369.606 487.94 368.043 488.824 369.829C491.106 374.742 493.83 377.123 497.953 378.016C502.812 379.059 506.715 375.932 509.218 370.499C510.028 368.638 505.242 374.965 499.278 374.816C495.671 374.742 493.02 374.072 490.811 371.094ZM491.253 395.061C490.149 393.573 488.382 392.01 489.265 393.87C491.548 398.783 494.272 401.165 498.395 402.058C503.254 403.1 507.156 399.974 509.66 394.54C510.47 392.679 505.684 399.006 499.72 398.857C496.113 398.708 493.388 398.038 491.253 395.061ZM492.431 415.604C491.327 414.116 489.56 412.552 490.443 414.413C492.726 419.326 495.45 421.708 499.573 422.601C504.432 423.643 508.334 420.517 510.838 415.083C511.648 413.222 506.862 419.549 500.898 419.4C497.364 419.251 494.64 418.581 492.431 415.604ZM511.279 337.228C510.175 335.74 508.408 334.177 509.292 335.963C511.574 340.875 514.298 343.257 518.421 344.15C523.281 345.192 527.183 342.066 529.686 336.633C530.496 334.772 525.71 341.099 519.746 340.95C516.139 340.801 513.488 340.131 511.279 337.228ZM511.648 359.483C510.543 357.995 508.776 356.431 509.66 358.218C511.942 363.13 514.666 365.512 518.789 366.405C523.649 367.447 527.551 364.321 530.054 358.888C530.864 357.027 526.078 363.354 520.115 363.205C516.507 363.13 513.856 362.386 511.648 359.483ZM512.089 383.45C510.985 381.961 509.218 380.398 510.101 382.185C512.384 387.097 515.108 389.479 519.231 390.372C524.09 391.414 527.993 388.288 530.496 382.854C531.306 380.994 526.52 387.32 520.556 387.171C516.949 387.097 514.298 386.353 512.089 383.45ZM513.341 403.993C512.237 402.504 510.47 400.941 511.353 402.802C513.636 407.714 516.36 410.096 520.483 410.989C525.342 412.031 529.244 408.905 531.748 403.472C532.557 401.611 527.772 407.938 521.808 407.789C518.2 407.64 515.55 406.97 513.341 403.993ZM530.57 349.956C529.465 348.467 527.698 346.904 528.582 348.691C530.864 353.603 533.588 355.985 537.711 356.878C542.571 357.92 546.473 354.794 548.976 349.36C549.786 347.5 545 353.826 539.037 353.677C535.429 353.529 532.705 352.859 530.57 349.956ZM530.938 372.211C529.833 370.722 528.066 369.159 528.95 370.946C531.232 375.858 533.956 378.24 538.079 379.133C542.939 380.175 546.841 377.049 549.344 371.615C550.154 369.755 545.368 376.081 539.405 375.932C535.797 375.858 533.146 375.114 530.938 372.211ZM531.379 396.178C530.275 394.689 528.508 393.126 529.392 394.987C531.674 399.899 534.398 402.281 538.521 403.174C543.38 404.216 547.283 401.09 549.786 395.657C550.596 393.796 545.81 400.123 539.846 399.974C536.239 399.825 533.515 399.155 531.379 396.178ZM532.631 416.721C531.527 415.232 529.76 413.669 530.643 415.455C532.926 420.368 535.65 422.75 539.773 423.643C544.632 424.685 548.534 421.559 551.038 416.125C551.848 414.264 547.062 420.591 541.098 420.442C537.49 420.368 534.766 419.698 532.631 416.721ZM462.613 357.176C469.681 390.744 468.944 391.712 464.453 409.203C464.232 409.947 467.03 412.478 467.987 409.724C471.153 400.867 470.932 398.411 471.374 390.67C471.963 380.77 462.465 356.431 462.613 357.176ZM447.666 359.558C451.716 386.725 450.464 392.531 446.562 403.546C446.268 404.291 449.213 406.598 450.243 403.844C453.409 394.987 453.262 396.178 453.704 388.362C454.293 378.463 447.519 358.739 447.666 359.558ZM513.194 273.441C511.427 273.441 510.028 274.929 510.028 276.716C510.028 278.056 511.574 279.991 512.973 280.065C519.378 280.363 517.17 276.641 518.642 276.641C519.747 276.641 527.256 276.492 527.256 279.693C527.256 280.958 528.066 281.182 528.066 279.842C527.993 275.45 516.507 273.441 513.194 273.441ZM582.844 299.864C605.079 302.246 627.388 344.001 627.167 374.593C627.167 379.207 618.774 371.615 620.688 375.784C626.799 388.958 623.78 403.918 624.369 411.957C624.811 417.093 618.332 418.135 618.332 418.135C618.332 434.212 616.418 446.046 609.791 460.784C605.006 471.576 595.802 484.006 593.005 494.576C586.746 492.789 581.445 483.858 581.445 479.466C581.445 472.246 590.575 454.755 595.361 442.176C597.569 435.477 598.6 430.193 601.913 427.141C595.802 432.053 594.772 437.338 591.827 443.59C587.483 453.043 580.341 467.706 578.353 476.935C573.641 472.916 569.297 467.334 569.297 462.049C569.297 459.295 581.74 429.225 585.642 422.824C574.083 431.681 572.684 446.865 566.867 459.816C563.26 456.765 559.505 450.363 559.505 445.749C559.505 441.804 569.15 418.879 571.506 416.646C563.333 420.665 559.578 435.031 557.149 443.218C551.627 438.082 550.817 431.16 550.522 425.578C548.534 434.956 540.509 456.765 540.509 460.04C540.509 462.57 546.988 479.54 549.05 482.22C550.596 482.369 553.394 479.54 558.4 482.369C560.756 484.825 561.787 482.964 564.511 488.844C562.965 488.919 560.535 486.76 559.505 486.388C556.339 485.272 557.296 486.463 555.087 487.579C552.657 488.77 550.154 486.314 549.639 486.686C555.382 491.375 558.474 491.747 556.044 498.297C555.602 499.562 553.983 503.135 553.467 503.805C552.51 502.689 552.878 497.776 551.921 495.171C544.927 495.097 549.05 488.249 545.221 487.802C543.749 495.022 536.533 488.621 534.693 495.766L532.557 498.074C531.748 484.825 542.202 484.676 542.055 484.006C538.079 465.845 519.673 450.14 519.673 450.14C512.237 459.891 504.506 463.687 497.732 484.006C497.511 484.676 507.893 486.463 509.292 499.786L507.966 499.265C507.598 497.404 505.537 494.948 503.254 494.501C499.72 493.757 495.597 494.948 496.407 488.621C495.082 489.589 495.008 491.003 493.241 493.757C491.842 495.915 488.234 498.595 487.793 501.572C487.498 503.507 488.971 505.666 490.002 507.675C489.265 506.708 484.48 502.391 485.069 501.126C488.75 492.938 481.314 494.278 490.075 486.686C489.633 486.239 487.056 489.663 484.627 488.472C481.608 486.984 482.565 490.78 476.307 490.631C480.062 488.175 480.798 484.081 484.259 482.592C485.731 481.997 490.222 482.071 491.769 481.922C493.83 479.243 499.131 462.57 499.131 460.04C499.131 456.765 491.106 434.956 489.118 425.578C488.824 431.16 488.087 438.082 482.492 443.218C480.062 435.031 476.307 420.665 468.135 416.646C470.491 418.879 480.136 441.804 480.136 445.749C480.136 450.363 476.381 456.765 472.773 459.816C466.957 446.865 465.558 431.607 453.998 422.824C457.901 429.225 470.343 459.295 470.343 462.049C470.343 467.259 465.999 472.842 461.287 476.935C459.299 467.78 452.158 453.043 447.814 443.59C444.869 437.338 443.838 432.053 437.727 427.141C441.04 430.193 442.071 435.477 444.28 442.176C449.065 454.68 458.195 472.172 458.195 479.466C458.195 483.783 452.82 492.789 446.636 494.576C443.764 484.006 435.297 471.279 429.849 460.784C415.639 433.393 422.928 427.736 420.646 413.297C419.909 408.682 415.639 413.967 416.081 405.705C416.081 405.705 408.424 377.198 421.824 357.548C422.045 354.347 414.093 361.269 414.461 358.292C416.154 345.937 431.837 302.469 456.87 299.864C471.742 298.301 471.006 318.174 480.356 324.947C482.492 326.51 485.142 327.403 488.603 327.403C494.934 327.403 498.689 323.235 500.898 318.025C503.917 311.177 504.138 302.618 504.138 300.087C504.138 293.239 504.8 284.159 491.769 284.531C494.051 283.117 496.554 282.745 497.88 282.745C501.708 282.745 505.61 284.531 509.292 287.136L510.101 286.243C507.525 281.851 500.751 280.512 497.585 280.512C495.376 280.512 488.308 282.149 487.056 284.903C486.247 284.308 485.658 283.787 485.658 282.447C485.584 279.321 486.394 275.302 488.161 273.962C494.272 269.421 500.015 272.399 503.181 270.24C508.555 266.519 510.838 265.104 515.476 265.104C516.801 265.104 528.287 266.742 534.913 268.454C535.502 269.049 535.576 268.677 535.576 270.091C535.576 271.506 534.987 272.25 534.472 272.548C538.227 274.036 539.92 284.084 539.92 287.583V306.786C539.92 315.643 542.939 325.17 554.277 325.319C573.199 325.617 566.278 298.152 582.844 299.864ZM491.032 440.241L496.922 459.295C494.198 467.185 493.756 474.479 490.811 479.466C489.854 481.029 483.522 480.062 481.829 481.178C479.767 482.592 477.191 487.058 474.835 488.696L491.032 440.241ZM494.714 511.695C493.388 511.695 481.019 511.546 479.62 511.546C475.718 511.546 469.754 510.281 469.754 503.954C469.754 502.54 471.963 496.362 474.393 492.343C475.203 493.608 475.497 492.119 476.822 492.119C478.148 492.119 479.694 492.343 480.872 491.747C480.872 491.747 483.449 490.705 484.185 490.556C483.154 493.161 484.553 495.841 484.111 497.851C483.302 501.274 482.933 502.614 483.743 503.731C484.995 505.442 486.615 508.569 490.37 509.09C492.137 509.164 489.413 504.624 489.413 502.168C489.486 498.967 493.536 497.404 495.082 493.608C495.523 496.362 499.72 495.766 503.033 496.883C505.537 498.074 504.653 501.051 509.292 502.54C511.648 503.284 510.985 498.595 510.985 497.851C510.985 493.161 505.684 485.197 500.751 483.634C502.96 470.758 519.894 454.234 520.409 453.638C525.416 459.072 536.975 471.204 538.668 482.592C536.828 484.676 532.557 484.453 530.717 494.129C530.57 494.873 530.275 500.158 532.557 501.2C534.177 501.944 536.901 497.627 537.343 495.171C537.932 492.045 541.982 496.66 544.853 491.97C545.81 493.236 546.326 494.427 546.915 496.139C547.43 497.627 550.228 496.436 550.669 497.851C551.7 501.274 550.89 506.261 552.952 506.187C555.382 505.666 558.327 500.604 558.327 497.627C558.327 496.213 560.462 491.747 555.455 489.217C556.044 488.547 559.652 488.323 559.652 488.323C560.83 488.919 562.818 491.301 566.278 492.417C568.708 496.436 570.917 502.614 570.917 504.028C570.917 510.281 565.836 511.62 561.861 511.62C560.609 511.546 507.156 511.695 494.714 511.695ZM549.271 438.678L564.438 484.825C562.082 483.188 560.094 480.806 558.032 479.466C556.339 478.35 551.848 480.806 550.89 479.168C546.841 472.097 545.221 467.706 542.497 459.816L549.271 438.678Z" fill="#3BA6B3" fill-opacity="0.1"/>
<path fill-rule="evenodd" clip-rule="evenodd" d="M370.948 504.549L372.347 503.582L371.979 502.912C370.875 501.274 373.599 499.488 375.881 497.85L388.471 488.919C389.943 487.877 393.036 485.793 394.14 487.356L394.582 487.951L395.981 486.984L395.244 485.942C394.95 485.495 394.435 485.123 393.993 484.751C393.551 484.304 393.109 483.783 392.741 483.188C392.373 482.667 392.005 482.071 391.784 481.476C391.416 480.881 391.269 480.285 390.901 479.839L390.164 478.797L388.766 479.764L389.207 480.36C390.312 481.923 387.293 484.155 385.821 485.197L373.231 494.129C371.022 495.692 368.371 497.702 367.193 496.064L366.752 495.469L365.353 496.436L366.015 497.404C366.31 497.85 366.825 498.297 367.193 498.744C367.635 499.19 368.077 499.711 368.445 500.232C368.813 500.753 369.108 501.349 369.402 501.944C369.623 502.465 369.918 503.061 370.212 503.507L370.948 504.549ZM364.028 491.524L363.586 490.854C363.291 490.408 363.512 489.663 364.322 489.291C366.163 488.398 368.592 488.845 370.433 489.068C372.642 489.291 374.998 489.291 378.458 489.44C380.004 485.123 382.066 480.732 382.876 478.945C384.937 474.554 386.041 472.247 384.348 469.865C383.538 468.749 383.17 468.674 381.624 467.558L380.225 468.6C381.477 469.195 381.771 469.642 381.918 469.865C382.507 470.758 381.403 472.693 380.667 474.107C379.562 476.34 378.458 478.722 377.427 480.955C376.47 483.039 375.366 485.049 375.955 488.026C375.219 487.951 374.85 487.877 374.188 487.802C372.421 487.654 373.967 487.877 369.476 487.281C361.304 486.239 360.715 486.463 359.463 484.751L359.168 484.304L357.77 485.272L358.211 485.942C358.432 486.239 358.727 486.463 358.948 486.76C359.463 487.281 360.052 487.877 360.494 488.472C361.009 489.217 361.304 489.961 361.672 490.78C361.893 491.152 362.04 491.45 362.261 491.747L362.702 492.343L364.028 491.524Z" fill="#3BA6B3" fill-opacity="0.1"/>
<path fill-rule="evenodd" clip-rule="evenodd" d="M350.848 472.022L352.394 471.353L352.099 470.683C351.363 468.673 355.339 467.408 357.768 466.44L370.285 461.305C372.493 460.411 376.469 458.7 377.279 460.709L377.573 461.379L379.12 460.709L378.825 460.039C378.31 458.774 377.868 458.327 377.426 457.658C376.764 456.69 376.837 456.243 376.69 455.276C376.616 454.606 376.395 454.011 376.248 453.415C375.954 452.373 375.586 451.405 375.217 450.363C372.714 444.111 367.413 444.856 363.806 446.344C359.903 447.907 356.958 451.852 359.314 457.658C359.683 458.625 360.124 459.518 360.64 460.411L356.075 462.272C352.688 463.612 349.891 465.026 349.081 463.091L348.786 462.421L347.24 463.091L347.682 464.207C347.903 464.728 348.271 465.249 348.565 465.77C348.86 466.366 349.228 466.887 349.449 467.482C349.67 468.078 349.891 468.748 350.038 469.417C350.185 470.013 350.259 470.608 350.48 471.129L350.848 472.022ZM362.039 459.667C361.891 459.369 361.744 459.072 361.597 458.774C360.198 455.276 361.965 452.224 366.162 450.438C370.285 448.726 373.23 449.842 374.039 451.852C374.923 454.011 373.598 454.904 370.947 456.02L362.039 459.667ZM342.97 452.299L344.516 451.629L344.221 450.959C343.412 448.949 347.314 447.684 350.038 446.568L362.554 441.432C364.542 440.613 368.518 438.901 369.254 440.836L369.548 441.506L371.094 440.836L370.653 439.646C370.432 439.125 369.99 438.678 369.696 438.157C369.327 437.636 369.033 437.041 368.812 436.445C368.591 435.85 368.37 435.254 368.223 434.584C368.149 433.989 368.149 433.394 367.929 432.873L367.413 431.682L365.867 432.277L366.162 432.947C366.824 434.659 363.511 436.073 361.081 437.041L348.197 442.325C345.694 443.367 341.939 445.228 341.129 443.144L340.835 442.4L339.289 443.069L339.73 444.186C339.951 444.707 340.319 445.228 340.614 445.749C340.908 446.344 341.276 446.865 341.497 447.461C341.718 448.056 341.939 448.726 342.086 449.396C342.234 450.066 342.307 450.661 342.528 451.182L342.97 452.299Z" fill="#3BA6B3" fill-opacity="0.1"/>
<path fill-rule="evenodd" clip-rule="evenodd" d="M364.468 413.891L362.774 414.189L362.995 415.156C363.437 417.315 358.21 418.059 355.559 418.58L341.202 421.408L336.932 422.227C336.785 421.855 336.785 421.557 336.711 421.185C336.049 417.761 338.405 415.156 342.969 414.263C348.27 413.221 350.626 415.603 350.405 418.059L351.878 417.761C351.878 417.091 351.878 416.422 351.731 415.752C350.7 410.542 345.988 408.904 341.35 409.797C338.699 410.318 333.03 412.551 334.502 420.069C334.65 420.887 334.944 421.706 335.239 422.525C335.607 423.567 335.975 424.609 336.196 425.725C336.343 426.395 336.417 427.139 336.49 427.809C336.49 428.181 336.564 428.628 336.638 429L336.785 429.745L338.478 429.447L338.331 428.702C337.963 426.767 342.159 425.949 345.473 425.279L353.866 423.641C355.412 423.344 359.24 422.674 360.86 422.376C361.891 422.227 364.468 421.855 364.836 423.418L364.983 424.162L366.676 423.865L366.456 422.525C366.308 421.929 366.014 421.408 365.793 420.887C365.572 420.292 365.351 419.697 365.278 419.027C365.13 418.357 365.057 417.687 365.057 417.017C365.057 416.422 365.204 415.826 365.057 415.231L364.468 413.891Z" fill="#3BA6B3" fill-opacity="0.1"/>
<path fill-rule="evenodd" clip-rule="evenodd" d="M332.515 399.899L334.209 399.824V399.006C334.135 397.145 337.964 396.996 340.393 396.922L354.971 396.401C357.327 396.326 361.082 396.103 361.155 398.112V398.857L362.849 398.782L362.775 397.443C362.775 396.847 362.481 396.326 362.333 395.731C362.186 395.061 362.112 394.465 362.112 393.795C362.112 393.126 362.112 392.53 362.26 391.86C362.407 391.265 362.554 390.669 362.554 390.148L362.481 388.362L360.787 388.437L360.861 389.702C360.934 391.563 357.327 391.786 354.456 391.86L334.356 392.605L334.282 390.074C334.209 388.362 333.62 385.906 337.595 385.757C338.7 385.683 339.804 385.906 340.025 385.98L339.951 384.566C337.816 384.045 335.092 383.599 332 383.227C332.294 388.139 332.442 387.916 332.589 390.521C332.589 391.339 332.663 393.498 332.663 394.54C332.663 396.847 332.442 396.252 332.442 398.261L332.515 399.899Z" fill="#3BA6B3" fill-opacity="0.1"/>
<path fill-rule="evenodd" clip-rule="evenodd" d="M332.515 370.721L334.208 371.019L334.355 370.274C334.723 368.116 338.699 369.084 341.276 369.53L354.602 371.689C356.958 372.061 361.228 372.731 360.934 374.815L360.786 375.559L362.48 375.857L362.627 375.112C362.848 373.773 362.701 373.177 362.627 372.358C362.553 371.242 362.848 370.87 363.216 369.902C363.511 369.307 363.658 368.711 363.805 368.042C364.1 367 364.32 365.958 364.468 364.916C365.498 358.217 360.566 356.133 356.737 355.537C352.614 354.868 348.123 356.654 347.092 362.832C346.945 363.799 346.871 364.841 346.871 365.883L342.012 365.064C338.405 364.469 335.312 364.246 335.607 362.162L335.754 361.417L334.061 361.12L333.914 362.311C333.84 362.906 333.84 363.501 333.84 364.097C333.84 364.767 333.84 365.437 333.693 366.032C333.619 366.702 333.398 367.372 333.177 367.967C333.03 368.488 332.736 369.084 332.662 369.679L332.515 370.721ZM348.344 365.958C348.344 365.66 348.418 365.288 348.491 364.916C349.08 361.194 352.172 359.482 356.663 360.152C361.081 360.896 362.995 363.353 362.701 365.437C362.333 367.744 360.786 367.818 357.989 367.372L348.344 365.958ZM335.828 349.657L337.521 349.955L337.668 349.211C338.036 347.052 342.012 348.02 344.884 348.467L358.21 350.625C360.345 350.997 364.541 351.593 364.247 353.602L364.1 354.347L365.793 354.644L366.014 353.305C366.087 352.709 365.94 352.114 365.94 351.518C365.94 350.848 365.94 350.178 366.087 349.583C366.161 348.913 366.308 348.318 366.529 347.722C366.75 347.201 367.045 346.606 367.118 346.085L367.339 344.82L365.646 344.522L365.572 345.266C365.278 347.127 361.67 346.606 359.167 346.159L345.473 343.926C342.748 343.48 338.699 343.182 338.994 341.024L339.141 340.279L337.374 339.907L337.153 341.098C337.079 341.694 337.079 342.289 337.079 342.884C337.079 343.554 337.079 344.224 336.932 344.82C336.858 345.489 336.638 346.159 336.417 346.755C336.269 347.276 336.049 347.871 335.901 348.467L335.828 349.657Z" fill="#3BA6B3" fill-opacity="0.1"/>
<path fill-rule="evenodd" clip-rule="evenodd" d="M362.627 334.845L363.51 335.217C366.382 336.333 369.106 337.971 372.124 334.101C372.861 333.207 373.45 332.165 373.818 331.123C376.247 324.797 371.904 320.331 368.075 318.842C362.921 316.833 359.314 320.257 358.43 322.638L358.209 323.234L357.768 322.936C358.209 320.48 358.062 316.312 353.645 314.6C350.773 313.484 346.798 313.26 344.957 318.098C343.337 322.341 343.926 323.457 342.527 325.541L343.632 325.988C344.736 326.434 347.828 327.774 349.154 328.369L349.595 327.104C346.724 325.243 344.662 323.457 345.693 320.703C346.577 318.47 349.006 317.8 352.099 318.991C355.485 320.331 356.737 323.383 355.853 325.69C355.706 326.137 355.412 326.732 355.117 327.179L357.4 328.072C357.473 327.551 357.547 327.104 357.841 326.434C359.461 322.117 363.51 322.266 366.971 323.606C371.462 325.318 372.861 328.444 371.904 330.974C371.167 332.984 368.885 335.068 362.921 333.803L362.627 334.845Z" fill="#3BA6B3" fill-opacity="0.1"/>
<path fill-rule="evenodd" clip-rule="evenodd" d="M385.231 292.643C387.661 295.695 387.44 300.086 386.115 302.245C383.906 305.966 377.133 308.274 368.887 303.287C362.04 299.119 359.021 293.09 362.187 287.731C363.807 284.977 367.414 283.116 371.39 285.498L372.126 284.307C371.832 284.158 371.611 284.01 371.316 283.861C369.844 282.968 367.046 281.107 365.5 279.916C365.279 280.66 364.764 281.479 364.322 282.298C363.291 284.01 361.672 285.052 359.757 288.178C354.972 296.216 359.389 303.585 365.942 307.529C374.114 312.516 383.096 311.102 387.44 303.808C388.618 301.873 389.575 299.193 389.575 297.035C389.575 295.621 389.281 294.281 385.968 291.527L385.231 292.643Z" fill="#3BA6B3" fill-opacity="0.1"/>
<path fill-rule="evenodd" clip-rule="evenodd" d="M380.593 263.913L394.877 276.864C397.085 278.873 400.619 282.148 399.22 283.711L398.705 284.307L399.957 285.423L400.914 284.381C401.355 283.934 401.576 283.339 401.797 282.818C402.092 282.223 402.533 281.702 402.975 281.255C403.417 280.808 403.932 280.287 404.448 279.915C404.963 279.543 405.478 279.32 405.92 278.873L406.804 277.906L405.552 276.789L405.037 277.385C403.638 279.022 400.104 275.598 397.895 273.663L383.612 260.489L385.526 258.331C386.483 257.289 388.324 255.279 390.974 257.661C391.122 257.81 391.711 258.331 392.373 259.149L393.33 258.107C390.827 255.205 390.533 254.535 388.029 251.93C386.115 254.386 383.17 258.331 380.814 261.01C379.857 262.052 377.501 264.657 376.618 265.476C375.66 266.443 375.44 266.592 373.157 268.676C374.924 270.537 375.513 271.356 378.532 274.705L379.415 273.663C376.765 269.867 377.133 267.783 378.679 266.071L380.593 263.913Z" fill="#3BA6B3" fill-opacity="0.1"/>
<path fill-rule="evenodd" clip-rule="evenodd" d="M414.755 269.571L415.712 268.827C416.006 268.604 416.227 268.157 416.448 267.859C416.816 267.338 417.332 266.966 417.847 266.52C420.277 264.51 418.583 266.445 420.718 264.659L421.234 264.287L420.129 262.947L419.467 263.468C418.878 263.915 417.479 264.733 416.154 261.756L413.798 256.546C415.417 255.355 415.785 255.132 416.522 254.536C417.626 253.569 418.878 252.452 419.393 251.931L424.547 255.727C425.798 256.695 426.019 257.96 425.209 258.63L424.547 259.151L425.651 260.491L426.829 259.523C427.345 259.077 427.786 258.481 428.228 257.96C428.67 257.514 429.038 257.067 429.553 256.695C430.142 256.174 430.805 255.727 431.541 255.281C432.057 254.983 432.646 254.685 433.161 254.313L433.824 253.718L432.719 252.378L432.498 252.825C431.762 253.42 431.173 254.388 428.081 252.378C425.136 250.443 427.713 252.452 414.46 242.925C408.57 238.683 407.171 237.641 405.331 236.152C404.963 237.045 404.447 237.939 403.785 238.757C405.11 241.065 406.214 243.595 410.853 254.388C411.81 256.62 413.209 260.044 414.313 263.394C414.828 264.882 415.344 266.817 414.239 267.71L413.65 268.157L414.755 269.571ZM408.202 243.595C410.043 245.382 410.853 245.53 417.847 250.815C417.332 251.485 416.816 252.006 415.785 252.825C414.681 253.792 413.871 254.313 413.061 254.76C409.012 245.828 408.865 245.233 407.981 243.893L408.202 243.595Z" fill="#3BA6B3" fill-opacity="0.1"/>
<path fill-rule="evenodd" clip-rule="evenodd" d="M426.314 223.2L427.051 224.763L427.713 224.465C429.112 223.795 430.069 225.433 430.732 226.698C431.321 227.889 432.425 230.047 433.014 231.238L438.683 243.072C439.493 244.71 441.039 248.134 439.346 248.952L438.683 249.25L439.42 250.813L440.598 250.218C441.113 249.994 441.555 249.473 441.996 249.101C442.512 248.729 443.101 248.357 443.69 248.059C444.279 247.762 444.868 247.538 445.53 247.389C446.119 247.24 446.708 247.24 447.224 246.943L448.402 246.347L447.666 244.784L447.003 245.082C445.53 245.826 443.984 243.221 442.88 240.914L439.567 233.992C440.524 233.694 441.628 233.173 443.248 232.429C443.984 232.057 444.794 231.685 445.53 231.313C446.267 230.94 447.077 230.568 447.813 230.196C449.433 229.377 450.463 228.782 451.273 228.187L454.586 235.108C455.691 237.416 456.795 240.244 455.323 240.988L454.66 241.286L455.396 242.849L456.574 242.254C457.09 242.03 457.531 241.509 457.973 241.137C458.488 240.765 459.077 240.393 459.666 240.095C460.255 239.798 460.844 239.574 461.507 239.425C462.096 239.277 462.685 239.277 463.2 238.979L464.378 238.383L463.642 236.82L462.98 237.118C461.286 237.937 459.593 234.587 458.783 232.95L453.114 221.116C451.494 217.841 449.064 213.673 451.126 212.631L451.789 212.333L451.052 210.77L450.022 211.291C449.359 211.886 448.844 212.259 448.402 212.631C447.886 213.003 447.297 213.375 446.708 213.673C446.119 213.97 445.53 214.194 444.868 214.343C444.279 214.491 443.69 214.64 443.174 214.938L442.07 215.459L442.806 217.022L443.469 216.724C445.015 215.98 446.119 218.139 446.561 218.957C446.929 219.627 448.402 222.53 448.844 223.572L450.242 226.475C449.359 227.07 448.034 228.038 444.573 229.75C441.113 231.461 439.567 231.982 438.536 232.28L437.137 229.377C436.622 228.335 435.223 225.358 434.929 224.688C434.56 223.795 433.53 221.562 435.076 220.818L435.738 220.52L435.076 218.883L433.971 219.404C433.456 219.627 432.941 220.074 432.499 220.371C431.984 220.744 431.395 221.116 430.879 221.413C430.29 221.711 429.628 221.934 429.039 222.158C428.45 222.307 427.861 222.455 427.345 222.753L426.314 223.2Z" fill="#3BA6B3" fill-opacity="0.1"/>
<path fill-rule="evenodd" clip-rule="evenodd" d="M503.254 222.083C502.591 225.953 499.278 228.707 496.775 229.228C492.504 230.047 486.32 226.548 484.479 217.021C482.933 209.057 485.363 202.731 491.4 201.54C494.566 200.945 498.321 202.359 499.204 206.973L500.603 206.676C500.529 206.378 500.456 206.08 500.382 205.783C500.088 204.071 499.499 200.721 499.425 198.786C498.689 199.084 497.805 199.307 496.848 199.456C494.934 199.828 493.02 199.307 489.486 199.977C480.356 201.763 477.927 209.951 479.399 217.542C481.24 226.995 488.234 232.8 496.48 231.163C498.689 230.716 501.266 229.674 502.885 228.26C503.916 227.293 504.726 226.176 504.505 221.785L503.254 222.083Z" fill="#3BA6B3" fill-opacity="0.1"/>
<path fill-rule="evenodd" clip-rule="evenodd" d="M511.942 228.707H513.12C513.488 228.707 513.93 228.558 514.298 228.484C514.961 228.335 515.55 228.335 516.212 228.409C519.304 228.484 516.875 228.856 519.599 228.856H520.261V227.144H519.452C518.715 227.144 517.169 226.846 517.979 223.72L519.525 218.212C521.513 218.361 521.881 218.436 522.838 218.436C524.311 218.436 526.004 218.436 526.74 218.361L528.213 224.613C528.581 226.176 527.918 227.293 526.888 227.218H526.078V228.93H527.624C528.287 228.93 528.949 228.781 529.685 228.633C530.274 228.558 530.863 228.484 531.452 228.558C532.262 228.558 533.072 228.633 533.808 228.781C534.397 228.856 534.986 229.079 535.649 229.079H536.533V227.367H536.164C535.207 227.367 534.177 227.739 533.072 224.167C532.041 220.743 532.778 224.018 528.655 208.09C526.814 201.019 526.372 199.307 525.931 197C525.121 197.447 524.164 197.819 523.133 197.968C522.691 200.573 521.955 203.252 518.568 214.565C517.905 216.947 516.801 220.445 515.476 223.72C514.887 225.209 514.077 226.995 512.678 226.995H511.942V228.707ZM523.427 204.517C523.722 207.122 524.237 207.718 526.225 216.277C525.415 216.501 524.679 216.575 523.427 216.501C521.955 216.501 521.071 216.352 520.114 216.203C522.691 206.75 522.986 206.155 523.133 204.592L523.427 204.517Z" fill="#3BA6B3" fill-opacity="0.1"/>
<path fill-rule="evenodd" clip-rule="evenodd" d="M541.393 229.972L542.865 230.27C543.675 230.419 544.411 230.047 545.884 230.345C546.62 230.493 547.356 230.791 548.092 231.089C548.534 231.238 548.902 231.461 549.344 231.535L549.933 231.684L550.228 229.972L549.418 229.749C548.681 229.6 547.577 228.93 549.123 225.581L555.381 212.109C556.117 210.472 556.559 209.579 556.854 208.09L557.148 208.165C557.075 209.207 557.001 209.504 557.075 210.025L558.253 225.507C558.4 227.74 558.989 231.61 556.117 231.014L555.676 230.94L555.381 232.726L557.148 233.098C557.737 233.173 558.253 233.098 558.842 233.024C559.504 232.95 560.167 233.098 560.829 233.247C561.566 233.396 562.228 233.545 562.891 233.917C563.333 234.14 563.848 234.438 564.29 234.513L565.468 234.736L565.762 233.024L565.026 232.875C563.333 232.503 562.891 227.814 562.449 223.348C561.566 213.821 561.124 208.983 560.903 201.615C560.02 201.689 559.062 201.689 558.105 201.689C556.044 206.825 554.056 210.77 551.994 214.789C548.313 222.157 548.313 221.86 546.914 224.539C546.105 226.028 544.485 228.93 542.571 228.484L541.687 228.261L541.393 229.972Z" fill="#3BA6B3" fill-opacity="0.1"/>
<path fill-rule="evenodd" clip-rule="evenodd" d="M584.243 208.909L583.581 210.472L584.243 210.769C586.231 211.663 584.243 215.31 583.139 217.766L577.617 230.27C576.66 232.428 574.893 236.448 573.052 235.629L572.39 235.331L571.727 236.894L572.39 237.192C573.568 237.713 574.23 237.787 575.04 237.936C576.145 238.159 576.439 238.532 577.249 239.127C577.764 239.574 578.28 239.871 578.869 240.169C579.826 240.765 580.709 241.211 581.666 241.658C587.777 244.412 591.09 240.169 592.636 236.522C594.33 232.652 593.814 227.814 588.145 225.209C587.262 224.837 586.305 224.464 585.348 224.167L587.335 219.627C588.808 216.277 589.912 213.3 591.753 214.119L592.416 214.416L593.078 212.853L591.974 212.407C591.458 212.184 590.869 212.035 590.28 211.886C589.618 211.737 589.029 211.514 588.44 211.216C587.851 210.993 587.262 210.621 586.746 210.248C586.231 209.951 585.789 209.579 585.274 209.355L584.243 208.909ZM584.759 225.581C585.053 225.655 585.421 225.804 585.716 225.953C589.176 227.516 589.986 230.94 588.145 235.182C586.305 239.35 583.433 240.541 581.519 239.648C579.384 238.755 579.678 237.192 580.856 234.512L584.759 225.581ZM603.533 217.617L602.87 219.18L603.533 219.478C605.521 220.371 603.607 224.018 602.355 226.697L596.833 239.202C595.95 241.211 594.256 245.156 592.416 244.337L591.753 244.039L591.09 245.602L592.268 246.123C592.784 246.347 593.373 246.421 593.962 246.496C594.624 246.644 595.213 246.868 595.802 247.091C596.391 247.389 596.98 247.686 597.496 248.059C597.937 248.431 598.379 248.877 598.895 249.101L600.073 249.622L600.735 248.059L600.073 247.761C598.379 247.017 599.852 243.667 600.882 241.211L606.552 228.335C607.656 225.804 609.055 221.859 611.043 222.753L611.779 223.199L612.441 221.636L611.337 221.115C610.822 220.892 610.233 220.743 609.644 220.594C608.981 220.445 608.392 220.222 607.803 219.924C607.214 219.701 606.699 219.329 606.11 219.031C605.594 218.733 605.153 218.361 604.564 218.138L603.533 217.617Z" fill="#3BA6B3" fill-opacity="0.1"/>
<path fill-rule="evenodd" clip-rule="evenodd" d="M624.37 229.452L623.339 230.866L623.928 231.312C625.548 232.503 623.486 235.108 621.866 237.341L612.811 249.92C611.706 251.408 609.497 254.386 607.951 253.269L607.362 252.823L606.332 254.237L607.362 254.981C607.804 255.353 608.393 255.502 608.982 255.725C609.571 256.023 610.16 256.395 610.675 256.767C611.191 257.139 611.706 257.586 612.148 258.107C612.516 258.554 612.884 259.075 613.326 259.447L614.357 260.191L615.387 258.777L614.798 258.33C613.326 257.214 615.387 254.162 616.492 252.599L625.548 240.021C627.167 237.788 629.008 235.034 630.628 236.225L631.217 236.671L632.247 235.257L631.29 234.587C630.849 234.215 630.333 233.992 629.818 233.769C629.229 233.471 628.64 233.099 628.124 232.727C627.609 232.354 627.094 231.833 626.652 231.387C626.21 230.94 625.842 230.494 625.4 230.196L624.37 229.452ZM635.119 239.5L635.781 239.946C636.223 240.318 636.223 240.988 635.561 241.658C634.088 243.072 631.658 243.444 629.818 243.891C627.683 244.412 625.474 245.156 622.087 246.124C622.014 250.738 621.498 255.502 621.351 257.512C620.836 262.349 620.541 264.88 622.823 266.592C623.928 267.411 624.37 267.336 626.137 267.857L627.167 266.443C625.768 266.294 625.327 265.922 625.106 265.773C624.222 265.103 624.664 262.945 624.959 261.307C625.327 258.851 625.548 256.246 625.842 253.716C626.137 251.483 626.505 249.175 624.959 246.57C625.695 246.422 626.063 246.347 626.726 246.198C628.419 245.752 626.946 246.049 631.364 245.156C639.463 243.444 639.904 242.998 641.671 244.263L642.04 244.561L643.07 243.147L642.408 242.7C642.113 242.477 641.745 242.328 641.45 242.179C640.788 241.881 640.052 241.509 639.463 241.063C638.8 240.542 638.211 239.946 637.622 239.276C637.328 238.979 637.033 238.755 636.739 238.532L636.076 238.085L635.119 239.5Z" fill="#3BA6B3" fill-opacity="0.1"/>
<path fill-rule="evenodd" clip-rule="evenodd" d="M662.212 262.871L660.887 263.988L661.329 264.583C662.58 266.146 659.93 268.156 657.795 269.867L645.867 279.618C644.469 280.809 641.524 283.042 640.346 281.627L639.904 281.032L638.579 282.148L639.388 283.19C639.757 283.637 640.272 283.935 640.714 284.307C641.229 284.753 641.671 285.2 642.113 285.721C642.481 286.242 642.922 286.763 643.217 287.358C643.438 287.879 643.659 288.475 644.027 288.921L644.837 289.963L646.162 288.847L645.72 288.252C644.542 286.763 647.34 284.381 648.812 283.19L660.74 273.44C662.875 271.728 665.378 269.495 666.63 271.058L667.071 271.654L668.397 270.537L667.66 269.644C667.292 269.198 666.85 268.825 666.409 268.379C665.967 267.932 665.452 267.486 665.01 266.965C664.568 266.444 664.274 265.848 663.905 265.327C663.611 264.806 663.316 264.285 662.948 263.839L662.212 262.871ZM670.016 275.375L670.532 275.971C670.9 276.417 670.679 277.162 669.869 277.534C668.102 278.501 665.599 278.278 663.758 278.204C661.55 278.129 659.194 278.278 655.733 278.352C654.482 282.744 652.788 287.284 652.052 289.145C650.359 293.685 649.328 296.067 651.168 298.3C652.052 299.416 652.494 299.416 654.04 300.384L655.365 299.267C654.113 298.746 653.745 298.3 653.524 298.076C652.862 297.258 653.819 295.248 654.482 293.759C655.439 291.452 656.396 288.996 657.279 286.689C658.089 284.53 659.046 282.446 658.31 279.543C659.046 279.618 659.414 279.618 660.077 279.618C661.844 279.618 660.298 279.543 664.789 279.767C673.035 280.213 673.624 279.915 674.949 281.627L675.244 281.999L676.569 280.883L676.054 280.288C675.833 279.99 675.538 279.767 675.244 279.543C674.655 279.022 674.066 278.501 673.624 277.906C673.109 277.236 672.667 276.492 672.299 275.673C672.078 275.301 671.857 275.003 671.636 274.705L671.194 274.11L670.016 275.375Z" fill="#3BA6B3" fill-opacity="0.1"/>
<path fill-rule="evenodd" clip-rule="evenodd" d="M684.889 294.431L683.343 295.175L683.638 295.845C684.521 297.854 680.693 299.269 678.263 300.385L666.042 306.116C663.906 307.158 660.004 309.019 659.121 307.084L658.826 306.414L657.28 307.158L657.575 307.828C658.164 309.019 658.606 309.465 659.121 310.135C659.857 311.028 659.783 311.475 660.004 312.443C660.152 313.113 660.299 313.708 660.52 314.303C660.814 315.345 661.256 316.313 661.698 317.281C664.495 323.384 669.796 322.342 673.33 320.704C677.159 318.918 679.883 314.899 677.233 309.168C676.791 308.275 676.275 307.381 675.76 306.488L680.251 304.404C683.564 302.841 686.288 301.353 687.172 303.213L687.466 303.883L689.012 303.139L688.497 302.022C688.276 301.501 687.908 300.98 687.54 300.534C687.172 300.013 686.804 299.417 686.583 298.822C686.288 298.227 686.141 297.557 685.92 296.961C685.773 296.366 685.626 295.77 685.405 295.249L684.889 294.431ZM674.435 307.381C674.582 307.679 674.729 307.977 674.877 308.275C676.496 311.698 674.877 314.899 670.754 316.834C666.704 318.769 663.759 317.802 662.802 315.792C661.845 313.708 663.097 312.74 665.673 311.475L674.435 307.381ZM693.798 313.782L692.252 314.527L692.546 315.197C693.43 317.132 689.675 318.62 686.951 319.886L674.729 325.691C672.815 326.584 668.913 328.519 668.029 326.659L667.735 325.989L666.189 326.733L666.704 327.924C666.925 328.445 667.367 328.892 667.735 329.338C668.103 329.859 668.471 330.455 668.692 331.05C668.987 331.645 669.207 332.241 669.355 332.911C669.502 333.506 669.502 334.102 669.723 334.623L670.238 335.814L671.784 335.069L671.49 334.399C670.68 332.687 673.993 331.124 676.349 330.008L688.939 324.054C691.442 322.863 694.976 320.853 695.933 322.863L696.228 323.533L697.774 322.788L697.258 321.672C697.038 321.151 696.669 320.63 696.301 320.183C695.933 319.662 695.565 319.067 695.344 318.471C695.05 317.876 694.902 317.206 694.682 316.611C694.534 316.015 694.387 315.42 694.166 314.899L693.798 313.782Z" fill="#3BA6B3" fill-opacity="0.1"/>
<path fill-rule="evenodd" clip-rule="evenodd" d="M680.252 340.727L679.295 340.95C676.35 341.695 673.111 341.918 672.89 346.905C672.816 348.096 672.89 349.212 673.184 350.329C674.804 356.878 680.841 358.069 684.891 357.102C690.265 355.762 691.222 350.85 690.633 348.393L690.486 347.798L690.928 347.649C691.959 349.956 694.462 353.231 699.1 352.115C702.119 351.371 705.432 349.287 704.18 344.225C703.076 339.834 701.972 339.239 701.972 336.708L700.794 337.006C699.689 337.303 696.303 337.973 694.904 338.271L695.198 339.536C698.659 339.387 701.309 339.611 702.045 342.514C702.634 344.895 700.941 346.83 697.775 347.575C694.241 348.468 691.443 346.682 690.854 344.3C690.707 343.779 690.633 343.183 690.56 342.662L688.204 343.258C688.425 343.704 688.646 344.151 688.793 344.895C689.897 349.361 686.51 351.594 682.903 352.487C678.264 353.678 675.319 351.966 674.73 349.287C674.215 347.203 674.878 344.151 680.473 341.769L680.252 340.727Z" fill="#3BA6B3" fill-opacity="0.1"/>
<path fill-rule="evenodd" clip-rule="evenodd" d="M677.232 365.287L677.306 366.404C677.38 367.669 678.042 368.86 678.042 369.753C678.116 370.87 677.674 372.209 677.748 372.879L677.821 373.698L679.515 373.549L679.441 372.73C679.294 370.646 683.196 370.795 684.595 370.721C688.129 370.497 697.332 370.274 699.32 370.125L700.056 370.051V370.423C699.099 370.646 696.817 371.316 689.38 374.963C686.288 376.452 684.669 377.419 682.165 378.536C680.693 379.206 680.693 379.206 678.999 380.024L679.073 381.364C681.576 382.108 681.871 382.183 683.122 382.629C686.067 383.523 686.435 383.671 690.411 384.937C693.945 385.979 695.491 386.5 697.111 386.946C700.866 387.988 699.025 387.393 701.234 388.063V388.286L698.878 388.36L685.11 389.998C681.135 390.445 680.546 389.626 680.472 388.509V387.988L678.779 388.137L678.852 389.03C678.926 389.626 679.073 390.147 679.22 390.742C679.368 391.487 679.588 392.156 679.662 392.901C679.736 393.645 679.736 394.389 679.588 395.208C679.515 395.729 679.368 396.324 679.368 396.92L679.515 397.962L681.208 397.813L681.135 397.292C680.914 394.538 686.951 394.315 691.221 393.794L702.927 392.38C704.326 392.231 705.799 392.008 707.271 391.859C707.566 391.859 707.86 391.784 708.155 391.784C708.891 391.71 709.48 391.635 710.584 391.487C710.143 390.445 709.848 389.403 709.627 388.212C708.965 388.063 705.799 387.393 697.921 385.011C692.399 383.299 689.528 381.96 685.184 381.29V380.992C686.73 380.545 687.908 379.95 689.38 379.355L709.185 370.572C708.744 369.902 708.449 369.083 708.228 368.265C707.05 368.339 702.486 368.562 698.804 368.562H685.92C680.398 368.562 679.147 366.925 679.073 365.734L678.999 365.213L677.232 365.287Z" fill="#3BA6B3" fill-opacity="0.1"/>
<path fill-rule="evenodd" clip-rule="evenodd" d="M678.116 403.547L677.969 404.738C677.895 405.11 678.043 405.556 678.043 405.929C678.116 406.598 677.969 407.268 677.895 407.864C677.38 410.99 677.38 408.459 676.938 411.139L676.865 411.809L678.558 412.106L678.705 411.288C678.779 410.543 679.368 408.98 682.239 410.32L687.393 412.627C687.025 414.637 686.804 415.009 686.73 415.902C686.509 417.391 686.289 419.028 686.289 419.773L679.957 420.442C678.411 420.591 677.38 419.773 677.527 418.731L677.674 417.912L675.981 417.614L675.76 419.177C675.687 419.847 675.76 420.591 675.76 421.261C675.76 421.857 675.687 422.452 675.613 423.047C675.466 423.866 675.318 424.61 675.024 425.429C674.803 426.025 674.582 426.62 674.509 427.215L674.361 428.109L676.055 428.406L676.128 428.034C676.276 427.067 676.055 425.95 679.736 425.355C683.196 424.759 679.883 425.057 696.081 423.122C703.296 422.303 704.989 422.08 707.345 422.005C707.051 421.112 706.83 420.145 706.756 419.103C704.253 418.284 701.75 417.167 691.148 412.255C688.939 411.213 685.7 409.65 682.607 407.864C681.208 407.045 679.589 406.003 679.81 404.589L679.957 403.845L678.116 403.547ZM700.13 418.433C697.553 418.358 696.891 418.805 688.203 419.624C688.129 418.805 688.203 418.061 688.35 416.795C688.571 415.307 688.792 414.414 689.16 413.52C698.068 417.465 698.584 417.763 700.13 418.135V418.433Z" fill="#3BA6B3" fill-opacity="0.1"/>
<path fill-rule="evenodd" clip-rule="evenodd" d="M696.449 451.405L678.338 445.078C675.54 444.111 671.049 442.473 671.712 440.538L671.932 439.794L670.313 439.198L669.871 440.538C669.65 441.133 669.724 441.729 669.65 442.324C669.576 442.994 669.356 443.664 669.208 444.259C668.987 444.855 668.767 445.525 668.398 446.046C668.104 446.567 667.662 447.013 667.515 447.609L667.073 448.874L668.693 449.47L668.914 448.725C669.576 446.641 674.141 448.428 676.939 449.395L695.051 455.722L694.167 458.401C693.725 459.741 692.695 462.346 689.455 461.229C689.308 461.155 688.498 460.932 687.615 460.411L687.173 461.75C690.486 463.462 691.001 463.909 694.388 465.323C695.198 462.346 696.376 457.582 697.554 454.159C697.996 452.819 699.174 449.544 699.689 448.428C700.204 447.162 700.352 446.939 701.677 444.111C699.321 443.143 698.437 442.622 694.462 440.687L694.02 441.952C697.996 444.408 698.364 446.492 697.627 448.651L696.449 451.405Z" fill="#3BA6B3" fill-opacity="0.1"/>
<path fill-rule="evenodd" clip-rule="evenodd" d="M687.32 477.754L685.847 476.861L685.479 477.531C684.301 479.392 680.988 476.861 678.779 475.447L667.294 468.227C665.306 466.962 661.551 464.655 662.656 462.868L663.024 462.273L661.551 461.38L661.183 462.05C660.447 463.166 660.373 463.836 660.079 464.58C659.711 465.697 659.343 465.92 658.606 466.59C658.091 467.037 657.723 467.558 657.355 468.079C656.692 468.897 656.103 469.79 655.514 470.684C651.98 476.415 655.661 480.285 659.048 482.369C662.582 484.602 667.441 484.751 670.754 479.466C671.27 478.573 671.712 477.68 672.153 476.787L676.35 479.392C679.442 481.327 682.166 482.816 681.062 484.602L680.694 485.272L682.166 486.165L682.829 485.123C683.123 484.602 683.344 484.007 683.565 483.486C683.86 482.89 684.08 482.295 684.449 481.699C684.817 481.178 685.258 480.583 685.627 480.136C685.995 479.69 686.436 479.243 686.731 478.722L687.32 477.754ZM670.902 475.894C670.754 476.191 670.607 476.489 670.386 476.787C668.398 479.987 664.938 480.359 661.036 477.903C657.207 475.522 656.398 472.47 657.576 470.609C658.754 468.674 660.3 469.121 662.656 470.684L670.902 475.894ZM676.129 495.766L674.657 494.873L674.288 495.543C673.184 497.404 669.871 494.948 667.368 493.385L655.956 486.165C654.115 485.049 650.434 482.741 651.538 481.029L651.907 480.434L650.434 479.541L649.771 480.657C649.477 481.178 649.33 481.774 649.182 482.295C648.962 482.89 648.667 483.485 648.299 484.081C647.931 484.602 647.563 485.123 647.121 485.644C646.679 486.091 646.237 486.463 645.943 486.909L645.28 488.026L646.753 488.919L647.121 488.323C648.078 486.76 651.17 488.621 653.379 490.035L665.159 497.478C667.441 498.967 671.123 500.902 669.945 502.763L669.576 503.433L671.049 504.326L671.712 503.284C672.006 502.763 672.227 502.167 672.448 501.646C672.742 501.051 672.963 500.455 673.331 499.86C673.699 499.339 674.141 498.744 674.509 498.297C674.877 497.85 675.319 497.404 675.614 496.883L676.129 495.766Z" fill="#3BA6B3" fill-opacity="0.1"/>
</svg>
