<svg width="127" height="34" viewBox="0 0 127 34" fill="none" xmlns="http://www.w3.org/2000/svg">
<path fill-rule="evenodd" clip-rule="evenodd" d="M20.1643 0V14.1603L34.3471 0H20.1643Z" fill="#3BA6B3"/>
<path fill-rule="evenodd" clip-rule="evenodd" d="M14.8381 19.4778V33.6381L0.655273 19.4778H14.8381Z" fill="#E53712"/>
<path d="M121.688 15.9229H119.25V8.36474H116.407V6.46774H124.531V8.36474H121.688V15.9229ZM105.935 9.17134C105.935 8.63361 105.665 8.36474 105.127 8.36474H102.419V11.3372H105.127C105.665 11.3372 105.935 11.0683 105.935 10.5306V9.17134ZM99.9802 6.46774H105.665C106.608 6.46774 107.296 6.67686 107.73 7.11003C108.164 7.54321 108.373 8.23031 108.373 9.17134V10.5157C108.373 11.4567 108.164 12.1438 107.73 12.577C107.296 13.0101 106.608 13.2193 105.665 13.2193H102.419V15.9229H99.9802V6.46774ZM85.7824 12.4873H87.9517L86.8745 9.30577L85.7824 12.4873ZM84.5556 15.9229H81.9225L85.5131 6.46774H88.221L91.8116 15.9229H89.1785L88.5651 14.235H85.1839L84.5556 15.9229ZM71.3003 10.665L69.4003 14.0408H67.5003L65.6002 10.665V15.9378H63.1616V6.48268H65.7349L68.4428 11.4716L71.1507 6.48268H73.724V15.9378H71.2853V10.665H71.3003ZM49.5922 15.9677C48.7095 15.9677 48.0512 15.7585 47.6473 15.3553C47.2284 14.952 47.0189 14.3097 47.0189 13.4284V9.14146C47.0189 8.20043 47.2284 7.52827 47.6622 7.0951C48.0961 6.67686 48.7843 6.46774 49.7268 6.46774H54.604V8.36474H50.2804C49.7418 8.36474 49.4725 8.63361 49.4725 9.17134V13.4732C49.4725 13.6823 49.5323 13.8466 49.652 13.9661C49.7717 14.0856 49.9363 14.1454 50.1457 14.1454C50.3103 14.1454 50.5197 14.1454 50.7442 14.1454C50.9686 14.1454 51.2079 14.1454 51.4473 14.1454C51.6867 14.1454 51.941 14.1454 52.1804 14.1454C52.4347 14.1454 52.6741 14.1005 52.8985 14.0259C53.4521 14.0259 54.0206 14.0259 54.604 14.0259V15.7884C54.0056 15.9079 53.4072 15.9677 52.8088 15.9677C52.3001 15.9677 51.7465 15.9677 51.178 15.9677C50.5946 15.9677 50.0709 15.9677 49.5922 15.9677Z" fill="#3BA6B3"/>
<path fill-rule="evenodd" clip-rule="evenodd" d="M14.8381 14.1603V1.52588e-05L0.655273 14.1603H14.8381Z" fill="#F7A803"/>
<path fill-rule="evenodd" clip-rule="evenodd" d="M20.1643 33.6381V19.4778L34.3471 33.6381H20.1643Z" fill="#F7A803"/>
<path d="M101.88 25.6468C101.88 25.1091 101.611 24.8402 101.072 24.8402H98.499V27.2749H101.072C101.611 27.2749 101.88 27.0061 101.88 26.4683V25.6468ZM107.835 29.1719H105.396V19.7168H107.835V29.1719ZM98.499 22.9581H101.611C102.553 22.9581 103.242 23.1672 103.675 23.6004C104.109 24.0336 104.319 24.7207 104.319 25.6617V26.4683C104.319 27.4094 104.109 28.0965 103.675 28.5296C103.242 28.9628 102.553 29.1719 101.611 29.1719H96.0604V19.7168H98.499V22.9581ZM81.9225 27.2002C81.8776 27.8425 81.6681 28.3653 81.2941 28.7387C80.9201 29.1122 80.4264 29.3063 79.813 29.3063C79.6484 29.3063 79.4689 29.3063 79.3043 29.2914C79.1398 29.2765 78.9902 29.2615 78.8555 29.2466C78.6909 29.2317 78.5413 29.2018 78.3917 29.1869V27.3645H79.0051C79.1697 27.3645 79.3193 27.3048 79.439 27.1853C79.5437 27.0658 79.6185 26.9314 79.6185 26.7521L80.0225 19.7317H87.5328V29.1869H85.0942V21.6287H82.2516L81.9225 27.2002ZM65.4955 25.7215H67.6648L66.5727 22.5548L65.4955 25.7215ZM64.2687 29.1719H61.6356L65.2262 19.7168H67.9341L71.5247 29.1719H68.8916L68.2782 27.484H64.8971L64.2687 29.1719ZM124.217 23.8992L122.317 27.2749H120.432L118.532 23.8992V29.1719H116.093V19.7168H118.666L121.374 24.7207L124.082 19.7168H126.655V29.1719H124.217V23.8992ZM49.5922 29.2018C48.7095 29.2018 48.0512 28.9927 47.6473 28.5894C47.2284 28.1861 47.0189 27.5288 47.0189 26.6625V22.3756C47.0189 21.4346 47.2284 20.7624 47.6622 20.3292C48.0961 19.911 48.7843 19.6869 49.7268 19.6869H54.604V21.5839H50.2804C49.7418 21.5839 49.4725 21.8528 49.4725 22.3905V26.6924C49.4725 26.9015 49.5323 27.0658 49.652 27.1853C49.7717 27.3048 49.9363 27.3645 50.1457 27.3645C50.3103 27.3645 50.5197 27.3645 50.7442 27.3645C50.9686 27.3645 51.2079 27.3645 51.4473 27.3645C51.6867 27.3645 51.941 27.3645 52.1804 27.3645C52.4347 27.3645 52.6741 27.3197 52.8985 27.245C53.4521 27.245 54.0206 27.245 54.604 27.245V29.0076C54.0056 29.1271 53.4072 29.1869 52.8088 29.1869C52.3001 29.1869 51.7465 29.1869 51.178 29.1869C50.5946 29.2018 50.0709 29.2018 49.5922 29.2018Z" fill="#E53712"/>
</svg>
